<mxfile host="app.diagrams.net" modified="2024-05-05T17:24:35.359Z" agent="Mozilla/5.0 (Windows NT 10.0; Win64; x64) AppleWebKit/537.36 (KHTML, like Gecko) Chrome/124.0.0.0 Safari/537.36" etag="0f3nWJAgQXT7xG47Krqg" version="24.3.1" type="device">
  <diagram id="R2lEEEUBdFMjLlhIrx00" name="Page-1">
    <mxGraphModel dx="3475" dy="-692" grid="1" gridSize="10" guides="1" tooltips="1" connect="1" arrows="1" fold="1" page="1" pageScale="1" pageWidth="850" pageHeight="1100" math="0" shadow="0" extFonts="Permanent Marker^https://fonts.googleapis.com/css?family=Permanent+Marker">
      <root>
        <mxCell id="0" />
        <mxCell id="1" parent="0" />
        <mxCell id="D8zbSiBJ9EzXnrRQjWzC-5371" value="relates to" style="curved=1;startArrow=ERmandOne;startSize=10;;endArrow=ERmany;endSize=10;;exitX=0.0012413660685221355;exitY=0.39483636156062374;entryX=0;entryY=0.6144808025769053;rounded=0;" parent="1" edge="1">
          <mxGeometry relative="1" as="geometry">
            <Array as="points">
              <mxPoint x="20" y="6207" />
              <mxPoint x="20" y="5951" />
            </Array>
            <mxPoint x="360" y="5833.992063661266" as="targetPoint" />
          </mxGeometry>
        </mxCell>
        <mxCell id="D8zbSiBJ9EzXnrRQjWzC-5377" value="is applied to" style="curved=1;startArrow=ERmandOne;startSize=10;;endArrow=ERmany;endSize=10;;exitX=0.002918096689077524;exitY=0.4141442430157262;entryX=0;entryY=0.6537646484634515;rounded=0;" parent="1" edge="1">
          <mxGeometry relative="1" as="geometry">
            <Array as="points">
              <mxPoint x="120" y="5951" />
            </Array>
            <mxPoint x="360" y="5841.0238720749585" as="targetPoint" />
          </mxGeometry>
        </mxCell>
        <mxCell id="D8zbSiBJ9EzXnrRQjWzC-5738" value="Text" style="text;strokeColor=none;align=center;fillColor=none;html=1;verticalAlign=middle;whiteSpace=wrap;rounded=0;" parent="1" vertex="1">
          <mxGeometry x="-30" y="2390" width="60" height="30" as="geometry" />
        </mxCell>
        <mxCell id="D8zbSiBJ9EzXnrRQjWzC-5739" value="Order" style="shape=table;startSize=25;container=1;collapsible=0;childLayout=tableLayout;fixedRows=1;rowLines=1;fontStyle=1;align=center;resizeLast=1;fillColor=#dae8fc;strokeColor=#6c8ebf;" parent="1" vertex="1">
          <mxGeometry x="2400" y="7440" width="125" height="179" as="geometry" />
        </mxCell>
        <mxCell id="D8zbSiBJ9EzXnrRQjWzC-5740" style="shape=tableRow;horizontal=0;startSize=0;swimlaneHead=0;swimlaneBody=0;fillColor=none;collapsible=0;dropTarget=0;points=[[0,0.5],[1,0.5]];portConstraint=eastwest;top=0;left=0;right=0;bottom=0;" parent="D8zbSiBJ9EzXnrRQjWzC-5739" vertex="1">
          <mxGeometry y="25" width="125" height="22" as="geometry" />
        </mxCell>
        <mxCell id="D8zbSiBJ9EzXnrRQjWzC-5741" value="PK" style="shape=partialRectangle;connectable=0;fillColor=none;top=0;left=0;bottom=0;right=0;align=left;spacingLeft=2;overflow=hidden;fontSize=11;fontStyle=1" parent="D8zbSiBJ9EzXnrRQjWzC-5740" vertex="1">
          <mxGeometry width="48" height="22" as="geometry">
            <mxRectangle width="48" height="22" as="alternateBounds" />
          </mxGeometry>
        </mxCell>
        <mxCell id="D8zbSiBJ9EzXnrRQjWzC-5742" value="OrderID" style="shape=partialRectangle;connectable=0;fillColor=#f5f5f5;top=0;left=0;bottom=0;right=0;align=left;spacingLeft=2;overflow=hidden;fontSize=11;fontStyle=5;fontColor=#333333;strokeColor=#666666;" parent="D8zbSiBJ9EzXnrRQjWzC-5740" vertex="1">
          <mxGeometry x="48" width="77" height="22" as="geometry">
            <mxRectangle width="77" height="22" as="alternateBounds" />
          </mxGeometry>
        </mxCell>
        <mxCell id="D8zbSiBJ9EzXnrRQjWzC-5743" style="shape=tableRow;horizontal=0;startSize=0;swimlaneHead=0;swimlaneBody=0;fillColor=none;collapsible=0;dropTarget=0;points=[[0,0.5],[1,0.5]];portConstraint=eastwest;top=0;left=0;right=0;bottom=0;" parent="D8zbSiBJ9EzXnrRQjWzC-5739" vertex="1">
          <mxGeometry y="47" width="125" height="22" as="geometry" />
        </mxCell>
        <mxCell id="D8zbSiBJ9EzXnrRQjWzC-5744" value="FK" style="shape=partialRectangle;connectable=0;fillColor=none;top=0;left=0;bottom=0;right=0;align=left;spacingLeft=2;overflow=hidden;fontSize=11;fontStyle=1" parent="D8zbSiBJ9EzXnrRQjWzC-5743" vertex="1">
          <mxGeometry width="48" height="22" as="geometry">
            <mxRectangle width="48" height="22" as="alternateBounds" />
          </mxGeometry>
        </mxCell>
        <mxCell id="D8zbSiBJ9EzXnrRQjWzC-5745" value="UserID" style="shape=partialRectangle;connectable=0;fillColor=#f5f5f5;top=0;left=0;bottom=0;right=0;align=left;spacingLeft=2;overflow=hidden;fontSize=11;fontColor=#333333;strokeColor=#666666;" parent="D8zbSiBJ9EzXnrRQjWzC-5743" vertex="1">
          <mxGeometry x="48" width="77" height="22" as="geometry">
            <mxRectangle width="77" height="22" as="alternateBounds" />
          </mxGeometry>
        </mxCell>
        <mxCell id="D8zbSiBJ9EzXnrRQjWzC-5746" style="shape=tableRow;horizontal=0;startSize=0;swimlaneHead=0;swimlaneBody=0;fillColor=none;collapsible=0;dropTarget=0;points=[[0,0.5],[1,0.5]];portConstraint=eastwest;top=0;left=0;right=0;bottom=0;" parent="D8zbSiBJ9EzXnrRQjWzC-5739" vertex="1">
          <mxGeometry y="69" width="125" height="22" as="geometry" />
        </mxCell>
        <mxCell id="D8zbSiBJ9EzXnrRQjWzC-5747" value="FK" style="shape=partialRectangle;connectable=0;fillColor=none;top=0;left=0;bottom=0;right=0;align=left;spacingLeft=2;overflow=hidden;fontSize=11;fontStyle=1" parent="D8zbSiBJ9EzXnrRQjWzC-5746" vertex="1">
          <mxGeometry width="48" height="22" as="geometry">
            <mxRectangle width="48" height="22" as="alternateBounds" />
          </mxGeometry>
        </mxCell>
        <mxCell id="D8zbSiBJ9EzXnrRQjWzC-5748" value="PaymentID" style="shape=partialRectangle;connectable=0;fillColor=#f5f5f5;top=0;left=0;bottom=0;right=0;align=left;spacingLeft=2;overflow=hidden;fontSize=11;fontColor=#333333;strokeColor=#666666;" parent="D8zbSiBJ9EzXnrRQjWzC-5746" vertex="1">
          <mxGeometry x="48" width="77" height="22" as="geometry">
            <mxRectangle width="77" height="22" as="alternateBounds" />
          </mxGeometry>
        </mxCell>
        <mxCell id="D8zbSiBJ9EzXnrRQjWzC-5749" style="shape=tableRow;horizontal=0;startSize=0;swimlaneHead=0;swimlaneBody=0;fillColor=none;collapsible=0;dropTarget=0;points=[[0,0.5],[1,0.5]];portConstraint=eastwest;top=0;left=0;right=0;bottom=0;" parent="D8zbSiBJ9EzXnrRQjWzC-5739" vertex="1">
          <mxGeometry y="91" width="125" height="22" as="geometry" />
        </mxCell>
        <mxCell id="D8zbSiBJ9EzXnrRQjWzC-5750" value="" style="shape=partialRectangle;connectable=0;fillColor=none;top=0;left=0;bottom=0;right=0;align=left;spacingLeft=2;overflow=hidden;fontSize=11;" parent="D8zbSiBJ9EzXnrRQjWzC-5749" vertex="1">
          <mxGeometry width="48" height="22" as="geometry">
            <mxRectangle width="48" height="22" as="alternateBounds" />
          </mxGeometry>
        </mxCell>
        <mxCell id="D8zbSiBJ9EzXnrRQjWzC-5751" value="OrderStatus" style="shape=partialRectangle;connectable=0;fillColor=#f5f5f5;top=0;left=0;bottom=0;right=0;align=left;spacingLeft=2;overflow=hidden;fontSize=11;fontColor=#333333;strokeColor=#666666;" parent="D8zbSiBJ9EzXnrRQjWzC-5749" vertex="1">
          <mxGeometry x="48" width="77" height="22" as="geometry">
            <mxRectangle width="77" height="22" as="alternateBounds" />
          </mxGeometry>
        </mxCell>
        <mxCell id="D8zbSiBJ9EzXnrRQjWzC-5752" style="shape=tableRow;horizontal=0;startSize=0;swimlaneHead=0;swimlaneBody=0;fillColor=none;collapsible=0;dropTarget=0;points=[[0,0.5],[1,0.5]];portConstraint=eastwest;top=0;left=0;right=0;bottom=0;" parent="D8zbSiBJ9EzXnrRQjWzC-5739" vertex="1">
          <mxGeometry y="113" width="125" height="22" as="geometry" />
        </mxCell>
        <mxCell id="D8zbSiBJ9EzXnrRQjWzC-5753" value="" style="shape=partialRectangle;connectable=0;fillColor=none;top=0;left=0;bottom=0;right=0;align=left;spacingLeft=2;overflow=hidden;fontSize=11;" parent="D8zbSiBJ9EzXnrRQjWzC-5752" vertex="1">
          <mxGeometry width="48" height="22" as="geometry">
            <mxRectangle width="48" height="22" as="alternateBounds" />
          </mxGeometry>
        </mxCell>
        <mxCell id="D8zbSiBJ9EzXnrRQjWzC-5754" value="OrderDate" style="shape=partialRectangle;connectable=0;fillColor=#f5f5f5;top=0;left=0;bottom=0;right=0;align=left;spacingLeft=2;overflow=hidden;fontSize=11;fontColor=#333333;strokeColor=#666666;" parent="D8zbSiBJ9EzXnrRQjWzC-5752" vertex="1">
          <mxGeometry x="48" width="77" height="22" as="geometry">
            <mxRectangle width="77" height="22" as="alternateBounds" />
          </mxGeometry>
        </mxCell>
        <mxCell id="D8zbSiBJ9EzXnrRQjWzC-5755" style="shape=tableRow;horizontal=0;startSize=0;swimlaneHead=0;swimlaneBody=0;fillColor=none;collapsible=0;dropTarget=0;points=[[0,0.5],[1,0.5]];portConstraint=eastwest;top=0;left=0;right=0;bottom=0;" parent="D8zbSiBJ9EzXnrRQjWzC-5739" vertex="1">
          <mxGeometry y="135" width="125" height="22" as="geometry" />
        </mxCell>
        <mxCell id="D8zbSiBJ9EzXnrRQjWzC-5756" value="" style="shape=partialRectangle;connectable=0;fillColor=none;top=0;left=0;bottom=0;right=0;align=left;spacingLeft=2;overflow=hidden;fontSize=11;" parent="D8zbSiBJ9EzXnrRQjWzC-5755" vertex="1">
          <mxGeometry width="48" height="22" as="geometry">
            <mxRectangle width="48" height="22" as="alternateBounds" />
          </mxGeometry>
        </mxCell>
        <mxCell id="D8zbSiBJ9EzXnrRQjWzC-5757" value="DeliveryDate" style="shape=partialRectangle;connectable=0;fillColor=#f5f5f5;top=0;left=0;bottom=0;right=0;align=left;spacingLeft=2;overflow=hidden;fontSize=11;fontColor=#333333;strokeColor=#666666;" parent="D8zbSiBJ9EzXnrRQjWzC-5755" vertex="1">
          <mxGeometry x="48" width="77" height="22" as="geometry">
            <mxRectangle width="77" height="22" as="alternateBounds" />
          </mxGeometry>
        </mxCell>
        <mxCell id="D8zbSiBJ9EzXnrRQjWzC-5758" style="shape=tableRow;horizontal=0;startSize=0;swimlaneHead=0;swimlaneBody=0;fillColor=none;collapsible=0;dropTarget=0;points=[[0,0.5],[1,0.5]];portConstraint=eastwest;top=0;left=0;right=0;bottom=0;" parent="D8zbSiBJ9EzXnrRQjWzC-5739" vertex="1">
          <mxGeometry y="157" width="125" height="22" as="geometry" />
        </mxCell>
        <mxCell id="D8zbSiBJ9EzXnrRQjWzC-5759" value="" style="shape=partialRectangle;connectable=0;fillColor=none;top=0;left=0;bottom=0;right=0;align=left;spacingLeft=2;overflow=hidden;fontSize=11;" parent="D8zbSiBJ9EzXnrRQjWzC-5758" vertex="1">
          <mxGeometry width="48" height="22" as="geometry">
            <mxRectangle width="48" height="22" as="alternateBounds" />
          </mxGeometry>
        </mxCell>
        <mxCell id="D8zbSiBJ9EzXnrRQjWzC-5760" value="TotalAmount" style="shape=partialRectangle;connectable=0;fillColor=#f5f5f5;top=0;left=0;bottom=0;right=0;align=left;spacingLeft=2;overflow=hidden;fontSize=11;fontColor=#333333;strokeColor=#666666;" parent="D8zbSiBJ9EzXnrRQjWzC-5758" vertex="1">
          <mxGeometry x="48" width="77" height="22" as="geometry">
            <mxRectangle width="77" height="22" as="alternateBounds" />
          </mxGeometry>
        </mxCell>
        <mxCell id="D8zbSiBJ9EzXnrRQjWzC-5761" value="OrderDetails" style="shape=table;startSize=25;container=1;collapsible=0;childLayout=tableLayout;fixedRows=1;rowLines=1;fontStyle=1;align=center;resizeLast=1;fillColor=#dae8fc;strokeColor=#6c8ebf;" parent="1" vertex="1">
          <mxGeometry x="1275" y="7440" width="115" height="157" as="geometry" />
        </mxCell>
        <mxCell id="D8zbSiBJ9EzXnrRQjWzC-5762" style="shape=tableRow;horizontal=0;startSize=0;swimlaneHead=0;swimlaneBody=0;fillColor=none;collapsible=0;dropTarget=0;points=[[0,0.5],[1,0.5]];portConstraint=eastwest;top=0;left=0;right=0;bottom=0;" parent="D8zbSiBJ9EzXnrRQjWzC-5761" vertex="1">
          <mxGeometry y="25" width="115" height="22" as="geometry" />
        </mxCell>
        <mxCell id="D8zbSiBJ9EzXnrRQjWzC-5763" value="PK" style="shape=partialRectangle;connectable=0;fillColor=none;top=0;left=0;bottom=0;right=0;align=left;spacingLeft=2;overflow=hidden;fontSize=11;fontStyle=1" parent="D8zbSiBJ9EzXnrRQjWzC-5762" vertex="1">
          <mxGeometry width="30" height="22" as="geometry">
            <mxRectangle width="30" height="22" as="alternateBounds" />
          </mxGeometry>
        </mxCell>
        <mxCell id="D8zbSiBJ9EzXnrRQjWzC-5764" value="OrderDetailID" style="shape=partialRectangle;connectable=0;fillColor=#f5f5f5;top=0;left=0;bottom=0;right=0;align=left;spacingLeft=2;overflow=hidden;fontSize=11;fontStyle=5;fontColor=#333333;strokeColor=#666666;" parent="D8zbSiBJ9EzXnrRQjWzC-5762" vertex="1">
          <mxGeometry x="30" width="85" height="22" as="geometry">
            <mxRectangle width="85" height="22" as="alternateBounds" />
          </mxGeometry>
        </mxCell>
        <mxCell id="D8zbSiBJ9EzXnrRQjWzC-5765" style="shape=tableRow;horizontal=0;startSize=0;swimlaneHead=0;swimlaneBody=0;fillColor=none;collapsible=0;dropTarget=0;points=[[0,0.5],[1,0.5]];portConstraint=eastwest;top=0;left=0;right=0;bottom=0;" parent="D8zbSiBJ9EzXnrRQjWzC-5761" vertex="1">
          <mxGeometry y="47" width="115" height="22" as="geometry" />
        </mxCell>
        <mxCell id="D8zbSiBJ9EzXnrRQjWzC-5766" value="FK" style="shape=partialRectangle;connectable=0;fillColor=none;top=0;left=0;bottom=0;right=0;align=left;spacingLeft=2;overflow=hidden;fontSize=11;fontStyle=1" parent="D8zbSiBJ9EzXnrRQjWzC-5765" vertex="1">
          <mxGeometry width="30" height="22" as="geometry">
            <mxRectangle width="30" height="22" as="alternateBounds" />
          </mxGeometry>
        </mxCell>
        <mxCell id="D8zbSiBJ9EzXnrRQjWzC-5767" value="OrderID" style="shape=partialRectangle;connectable=0;fillColor=#f5f5f5;top=0;left=0;bottom=0;right=0;align=left;spacingLeft=2;overflow=hidden;fontSize=11;fontColor=#333333;strokeColor=#666666;" parent="D8zbSiBJ9EzXnrRQjWzC-5765" vertex="1">
          <mxGeometry x="30" width="85" height="22" as="geometry">
            <mxRectangle width="85" height="22" as="alternateBounds" />
          </mxGeometry>
        </mxCell>
        <mxCell id="D8zbSiBJ9EzXnrRQjWzC-5768" style="shape=tableRow;horizontal=0;startSize=0;swimlaneHead=0;swimlaneBody=0;fillColor=none;collapsible=0;dropTarget=0;points=[[0,0.5],[1,0.5]];portConstraint=eastwest;top=0;left=0;right=0;bottom=0;" parent="D8zbSiBJ9EzXnrRQjWzC-5761" vertex="1">
          <mxGeometry y="69" width="115" height="22" as="geometry" />
        </mxCell>
        <mxCell id="D8zbSiBJ9EzXnrRQjWzC-5769" value="FK" style="shape=partialRectangle;connectable=0;fillColor=none;top=0;left=0;bottom=0;right=0;align=left;spacingLeft=2;overflow=hidden;fontSize=11;fontStyle=1" parent="D8zbSiBJ9EzXnrRQjWzC-5768" vertex="1">
          <mxGeometry width="30" height="22" as="geometry">
            <mxRectangle width="30" height="22" as="alternateBounds" />
          </mxGeometry>
        </mxCell>
        <mxCell id="D8zbSiBJ9EzXnrRQjWzC-5770" value="ProductItem" style="shape=partialRectangle;connectable=0;fillColor=#f5f5f5;top=0;left=0;bottom=0;right=0;align=left;spacingLeft=2;overflow=hidden;fontSize=11;fontColor=#333333;strokeColor=#666666;" parent="D8zbSiBJ9EzXnrRQjWzC-5768" vertex="1">
          <mxGeometry x="30" width="85" height="22" as="geometry">
            <mxRectangle width="85" height="22" as="alternateBounds" />
          </mxGeometry>
        </mxCell>
        <mxCell id="D8zbSiBJ9EzXnrRQjWzC-5771" style="shape=tableRow;horizontal=0;startSize=0;swimlaneHead=0;swimlaneBody=0;fillColor=none;collapsible=0;dropTarget=0;points=[[0,0.5],[1,0.5]];portConstraint=eastwest;top=0;left=0;right=0;bottom=0;" parent="D8zbSiBJ9EzXnrRQjWzC-5761" vertex="1">
          <mxGeometry y="91" width="115" height="22" as="geometry" />
        </mxCell>
        <mxCell id="D8zbSiBJ9EzXnrRQjWzC-5772" value="" style="shape=partialRectangle;connectable=0;fillColor=none;top=0;left=0;bottom=0;right=0;align=left;spacingLeft=2;overflow=hidden;fontSize=11;" parent="D8zbSiBJ9EzXnrRQjWzC-5771" vertex="1">
          <mxGeometry width="30" height="22" as="geometry">
            <mxRectangle width="30" height="22" as="alternateBounds" />
          </mxGeometry>
        </mxCell>
        <mxCell id="D8zbSiBJ9EzXnrRQjWzC-5773" value="Quantity" style="shape=partialRectangle;connectable=0;fillColor=#f5f5f5;top=0;left=0;bottom=0;right=0;align=left;spacingLeft=2;overflow=hidden;fontSize=11;fontColor=#333333;strokeColor=#666666;" parent="D8zbSiBJ9EzXnrRQjWzC-5771" vertex="1">
          <mxGeometry x="30" width="85" height="22" as="geometry">
            <mxRectangle width="85" height="22" as="alternateBounds" />
          </mxGeometry>
        </mxCell>
        <mxCell id="D8zbSiBJ9EzXnrRQjWzC-5774" style="shape=tableRow;horizontal=0;startSize=0;swimlaneHead=0;swimlaneBody=0;fillColor=none;collapsible=0;dropTarget=0;points=[[0,0.5],[1,0.5]];portConstraint=eastwest;top=0;left=0;right=0;bottom=0;" parent="D8zbSiBJ9EzXnrRQjWzC-5761" vertex="1">
          <mxGeometry y="113" width="115" height="22" as="geometry" />
        </mxCell>
        <mxCell id="D8zbSiBJ9EzXnrRQjWzC-5775" value="" style="shape=partialRectangle;connectable=0;fillColor=none;top=0;left=0;bottom=0;right=0;align=left;spacingLeft=2;overflow=hidden;fontSize=11;" parent="D8zbSiBJ9EzXnrRQjWzC-5774" vertex="1">
          <mxGeometry width="30" height="22" as="geometry">
            <mxRectangle width="30" height="22" as="alternateBounds" />
          </mxGeometry>
        </mxCell>
        <mxCell id="D8zbSiBJ9EzXnrRQjWzC-5776" value="SubTotal" style="shape=partialRectangle;connectable=0;fillColor=#f5f5f5;top=0;left=0;bottom=0;right=0;align=left;spacingLeft=2;overflow=hidden;fontSize=11;fontColor=#333333;strokeColor=#666666;" parent="D8zbSiBJ9EzXnrRQjWzC-5774" vertex="1">
          <mxGeometry x="30" width="85" height="22" as="geometry">
            <mxRectangle width="85" height="22" as="alternateBounds" />
          </mxGeometry>
        </mxCell>
        <mxCell id="D8zbSiBJ9EzXnrRQjWzC-5777" style="shape=tableRow;horizontal=0;startSize=0;swimlaneHead=0;swimlaneBody=0;fillColor=none;collapsible=0;dropTarget=0;points=[[0,0.5],[1,0.5]];portConstraint=eastwest;top=0;left=0;right=0;bottom=0;" parent="D8zbSiBJ9EzXnrRQjWzC-5761" vertex="1">
          <mxGeometry y="135" width="115" height="22" as="geometry" />
        </mxCell>
        <mxCell id="D8zbSiBJ9EzXnrRQjWzC-5778" value="FK" style="shape=partialRectangle;connectable=0;fillColor=none;top=0;left=0;bottom=0;right=0;align=left;spacingLeft=2;overflow=hidden;fontSize=11;fontStyle=1" parent="D8zbSiBJ9EzXnrRQjWzC-5777" vertex="1">
          <mxGeometry width="30" height="22" as="geometry">
            <mxRectangle width="30" height="22" as="alternateBounds" />
          </mxGeometry>
        </mxCell>
        <mxCell id="D8zbSiBJ9EzXnrRQjWzC-5779" value="DiscountID" style="shape=partialRectangle;connectable=0;fillColor=#f5f5f5;top=0;left=0;bottom=0;right=0;align=left;spacingLeft=2;overflow=hidden;fontSize=11;fontColor=#333333;strokeColor=#666666;" parent="D8zbSiBJ9EzXnrRQjWzC-5777" vertex="1">
          <mxGeometry x="30" width="85" height="22" as="geometry">
            <mxRectangle width="85" height="22" as="alternateBounds" />
          </mxGeometry>
        </mxCell>
        <mxCell id="D8zbSiBJ9EzXnrRQjWzC-5780" value="Notification" style="shape=table;startSize=25;container=1;collapsible=0;childLayout=tableLayout;fixedRows=1;rowLines=1;fontStyle=1;align=center;resizeLast=1;fillColor=#dae8fc;strokeColor=#6c8ebf;" parent="1" vertex="1">
          <mxGeometry x="1682" y="7717" width="162" height="179" as="geometry" />
        </mxCell>
        <mxCell id="D8zbSiBJ9EzXnrRQjWzC-5781" style="shape=tableRow;horizontal=0;startSize=0;swimlaneHead=0;swimlaneBody=0;fillColor=none;collapsible=0;dropTarget=0;points=[[0,0.5],[1,0.5]];portConstraint=eastwest;top=0;left=0;right=0;bottom=0;" parent="D8zbSiBJ9EzXnrRQjWzC-5780" vertex="1">
          <mxGeometry y="25" width="162" height="22" as="geometry" />
        </mxCell>
        <mxCell id="D8zbSiBJ9EzXnrRQjWzC-5782" value="PK" style="shape=partialRectangle;connectable=0;fillColor=none;top=0;left=0;bottom=0;right=0;align=left;spacingLeft=2;overflow=hidden;fontSize=11;fontStyle=1" parent="D8zbSiBJ9EzXnrRQjWzC-5781" vertex="1">
          <mxGeometry width="48" height="22" as="geometry">
            <mxRectangle width="48" height="22" as="alternateBounds" />
          </mxGeometry>
        </mxCell>
        <mxCell id="D8zbSiBJ9EzXnrRQjWzC-5783" value="NotificationID" style="shape=partialRectangle;connectable=0;fillColor=#f5f5f5;top=0;left=0;bottom=0;right=0;align=left;spacingLeft=2;overflow=hidden;fontSize=11;fontStyle=5;fontColor=#333333;strokeColor=#666666;" parent="D8zbSiBJ9EzXnrRQjWzC-5781" vertex="1">
          <mxGeometry x="48" width="114" height="22" as="geometry">
            <mxRectangle width="114" height="22" as="alternateBounds" />
          </mxGeometry>
        </mxCell>
        <mxCell id="D8zbSiBJ9EzXnrRQjWzC-5784" style="shape=tableRow;horizontal=0;startSize=0;swimlaneHead=0;swimlaneBody=0;fillColor=none;collapsible=0;dropTarget=0;points=[[0,0.5],[1,0.5]];portConstraint=eastwest;top=0;left=0;right=0;bottom=0;" parent="D8zbSiBJ9EzXnrRQjWzC-5780" vertex="1">
          <mxGeometry y="47" width="162" height="22" as="geometry" />
        </mxCell>
        <mxCell id="D8zbSiBJ9EzXnrRQjWzC-5785" value="FK" style="shape=partialRectangle;connectable=0;fillColor=none;top=0;left=0;bottom=0;right=0;align=left;spacingLeft=2;overflow=hidden;fontSize=11;fontStyle=1" parent="D8zbSiBJ9EzXnrRQjWzC-5784" vertex="1">
          <mxGeometry width="48" height="22" as="geometry">
            <mxRectangle width="48" height="22" as="alternateBounds" />
          </mxGeometry>
        </mxCell>
        <mxCell id="D8zbSiBJ9EzXnrRQjWzC-5786" value="UserID" style="shape=partialRectangle;connectable=0;fillColor=#f5f5f5;top=0;left=0;bottom=0;right=0;align=left;spacingLeft=2;overflow=hidden;fontSize=11;fontColor=#333333;strokeColor=#666666;" parent="D8zbSiBJ9EzXnrRQjWzC-5784" vertex="1">
          <mxGeometry x="48" width="114" height="22" as="geometry">
            <mxRectangle width="114" height="22" as="alternateBounds" />
          </mxGeometry>
        </mxCell>
        <mxCell id="D8zbSiBJ9EzXnrRQjWzC-5787" style="shape=tableRow;horizontal=0;startSize=0;swimlaneHead=0;swimlaneBody=0;fillColor=none;collapsible=0;dropTarget=0;points=[[0,0.5],[1,0.5]];portConstraint=eastwest;top=0;left=0;right=0;bottom=0;" parent="D8zbSiBJ9EzXnrRQjWzC-5780" vertex="1">
          <mxGeometry y="69" width="162" height="22" as="geometry" />
        </mxCell>
        <mxCell id="D8zbSiBJ9EzXnrRQjWzC-5788" value="" style="shape=partialRectangle;connectable=0;fillColor=none;top=0;left=0;bottom=0;right=0;align=left;spacingLeft=2;overflow=hidden;fontSize=11;" parent="D8zbSiBJ9EzXnrRQjWzC-5787" vertex="1">
          <mxGeometry width="48" height="22" as="geometry">
            <mxRectangle width="48" height="22" as="alternateBounds" />
          </mxGeometry>
        </mxCell>
        <mxCell id="D8zbSiBJ9EzXnrRQjWzC-5789" value="NotificationType" style="shape=partialRectangle;connectable=0;fillColor=#f5f5f5;top=0;left=0;bottom=0;right=0;align=left;spacingLeft=2;overflow=hidden;fontSize=11;fontColor=#333333;strokeColor=#666666;" parent="D8zbSiBJ9EzXnrRQjWzC-5787" vertex="1">
          <mxGeometry x="48" width="114" height="22" as="geometry">
            <mxRectangle width="114" height="22" as="alternateBounds" />
          </mxGeometry>
        </mxCell>
        <mxCell id="D8zbSiBJ9EzXnrRQjWzC-5790" style="shape=tableRow;horizontal=0;startSize=0;swimlaneHead=0;swimlaneBody=0;fillColor=none;collapsible=0;dropTarget=0;points=[[0,0.5],[1,0.5]];portConstraint=eastwest;top=0;left=0;right=0;bottom=0;" parent="D8zbSiBJ9EzXnrRQjWzC-5780" vertex="1">
          <mxGeometry y="91" width="162" height="22" as="geometry" />
        </mxCell>
        <mxCell id="D8zbSiBJ9EzXnrRQjWzC-5791" value="" style="shape=partialRectangle;connectable=0;fillColor=none;top=0;left=0;bottom=0;right=0;align=left;spacingLeft=2;overflow=hidden;fontSize=11;" parent="D8zbSiBJ9EzXnrRQjWzC-5790" vertex="1">
          <mxGeometry width="48" height="22" as="geometry">
            <mxRectangle width="48" height="22" as="alternateBounds" />
          </mxGeometry>
        </mxCell>
        <mxCell id="D8zbSiBJ9EzXnrRQjWzC-5792" value="NotificationContent" style="shape=partialRectangle;connectable=0;fillColor=#f5f5f5;top=0;left=0;bottom=0;right=0;align=left;spacingLeft=2;overflow=hidden;fontSize=11;fontColor=#333333;strokeColor=#666666;" parent="D8zbSiBJ9EzXnrRQjWzC-5790" vertex="1">
          <mxGeometry x="48" width="114" height="22" as="geometry">
            <mxRectangle width="114" height="22" as="alternateBounds" />
          </mxGeometry>
        </mxCell>
        <mxCell id="D8zbSiBJ9EzXnrRQjWzC-5793" style="shape=tableRow;horizontal=0;startSize=0;swimlaneHead=0;swimlaneBody=0;fillColor=none;collapsible=0;dropTarget=0;points=[[0,0.5],[1,0.5]];portConstraint=eastwest;top=0;left=0;right=0;bottom=0;" parent="D8zbSiBJ9EzXnrRQjWzC-5780" vertex="1">
          <mxGeometry y="113" width="162" height="22" as="geometry" />
        </mxCell>
        <mxCell id="D8zbSiBJ9EzXnrRQjWzC-5794" value="" style="shape=partialRectangle;connectable=0;fillColor=none;top=0;left=0;bottom=0;right=0;align=left;spacingLeft=2;overflow=hidden;fontSize=11;" parent="D8zbSiBJ9EzXnrRQjWzC-5793" vertex="1">
          <mxGeometry width="48" height="22" as="geometry">
            <mxRectangle width="48" height="22" as="alternateBounds" />
          </mxGeometry>
        </mxCell>
        <mxCell id="D8zbSiBJ9EzXnrRQjWzC-5795" value="NotificationDate" style="shape=partialRectangle;connectable=0;fillColor=#f5f5f5;top=0;left=0;bottom=0;right=0;align=left;spacingLeft=2;overflow=hidden;fontSize=11;fontColor=#333333;strokeColor=#666666;" parent="D8zbSiBJ9EzXnrRQjWzC-5793" vertex="1">
          <mxGeometry x="48" width="114" height="22" as="geometry">
            <mxRectangle width="114" height="22" as="alternateBounds" />
          </mxGeometry>
        </mxCell>
        <mxCell id="D8zbSiBJ9EzXnrRQjWzC-5796" style="shape=tableRow;horizontal=0;startSize=0;swimlaneHead=0;swimlaneBody=0;fillColor=none;collapsible=0;dropTarget=0;points=[[0,0.5],[1,0.5]];portConstraint=eastwest;top=0;left=0;right=0;bottom=0;" parent="D8zbSiBJ9EzXnrRQjWzC-5780" vertex="1">
          <mxGeometry y="135" width="162" height="22" as="geometry" />
        </mxCell>
        <mxCell id="D8zbSiBJ9EzXnrRQjWzC-5797" value="" style="shape=partialRectangle;connectable=0;fillColor=none;top=0;left=0;bottom=0;right=0;align=left;spacingLeft=2;overflow=hidden;fontSize=11;" parent="D8zbSiBJ9EzXnrRQjWzC-5796" vertex="1">
          <mxGeometry width="48" height="22" as="geometry">
            <mxRectangle width="48" height="22" as="alternateBounds" />
          </mxGeometry>
        </mxCell>
        <mxCell id="D8zbSiBJ9EzXnrRQjWzC-5798" value="IsRead" style="shape=partialRectangle;connectable=0;fillColor=#f5f5f5;top=0;left=0;bottom=0;right=0;align=left;spacingLeft=2;overflow=hidden;fontSize=11;fontColor=#333333;strokeColor=#666666;" parent="D8zbSiBJ9EzXnrRQjWzC-5796" vertex="1">
          <mxGeometry x="48" width="114" height="22" as="geometry">
            <mxRectangle width="114" height="22" as="alternateBounds" />
          </mxGeometry>
        </mxCell>
        <mxCell id="D8zbSiBJ9EzXnrRQjWzC-6107" style="shape=tableRow;horizontal=0;startSize=0;swimlaneHead=0;swimlaneBody=0;fillColor=none;collapsible=0;dropTarget=0;points=[[0,0.5],[1,0.5]];portConstraint=eastwest;top=0;left=0;right=0;bottom=0;" parent="D8zbSiBJ9EzXnrRQjWzC-5780" vertex="1">
          <mxGeometry y="157" width="162" height="22" as="geometry" />
        </mxCell>
        <mxCell id="D8zbSiBJ9EzXnrRQjWzC-6108" value="FK" style="shape=partialRectangle;connectable=0;fillColor=none;top=0;left=0;bottom=0;right=0;align=left;spacingLeft=2;overflow=hidden;fontSize=11;fontStyle=1" parent="D8zbSiBJ9EzXnrRQjWzC-6107" vertex="1">
          <mxGeometry width="48" height="22" as="geometry">
            <mxRectangle width="48" height="22" as="alternateBounds" />
          </mxGeometry>
        </mxCell>
        <mxCell id="D8zbSiBJ9EzXnrRQjWzC-6109" value="OrderID" style="shape=partialRectangle;connectable=0;fillColor=#f5f5f5;top=0;left=0;bottom=0;right=0;align=left;spacingLeft=2;overflow=hidden;fontSize=11;fontColor=#333333;strokeColor=#666666;" parent="D8zbSiBJ9EzXnrRQjWzC-6107" vertex="1">
          <mxGeometry x="48" width="114" height="22" as="geometry">
            <mxRectangle width="114" height="22" as="alternateBounds" />
          </mxGeometry>
        </mxCell>
        <mxCell id="D8zbSiBJ9EzXnrRQjWzC-5799" value="Discount" style="shape=table;startSize=25;container=1;collapsible=0;childLayout=tableLayout;fixedRows=1;rowLines=1;fontStyle=1;align=center;resizeLast=1;fillColor=#dae8fc;strokeColor=#6c8ebf;" parent="1" vertex="1">
          <mxGeometry x="2527" y="7717" width="156" height="157" as="geometry" />
        </mxCell>
        <mxCell id="D8zbSiBJ9EzXnrRQjWzC-5800" style="shape=tableRow;horizontal=0;startSize=0;swimlaneHead=0;swimlaneBody=0;fillColor=none;collapsible=0;dropTarget=0;points=[[0,0.5],[1,0.5]];portConstraint=eastwest;top=0;left=0;right=0;bottom=0;" parent="D8zbSiBJ9EzXnrRQjWzC-5799" vertex="1">
          <mxGeometry y="25" width="156" height="22" as="geometry" />
        </mxCell>
        <mxCell id="D8zbSiBJ9EzXnrRQjWzC-5801" value="PK" style="shape=partialRectangle;connectable=0;fillColor=none;top=0;left=0;bottom=0;right=0;align=left;spacingLeft=2;overflow=hidden;fontSize=11;fontStyle=1" parent="D8zbSiBJ9EzXnrRQjWzC-5800" vertex="1">
          <mxGeometry width="48" height="22" as="geometry">
            <mxRectangle width="48" height="22" as="alternateBounds" />
          </mxGeometry>
        </mxCell>
        <mxCell id="D8zbSiBJ9EzXnrRQjWzC-5802" value="DiscountID" style="shape=partialRectangle;connectable=0;fillColor=#f5f5f5;top=0;left=0;bottom=0;right=0;align=left;spacingLeft=2;overflow=hidden;fontSize=11;fontStyle=5;fontColor=#333333;strokeColor=#666666;" parent="D8zbSiBJ9EzXnrRQjWzC-5800" vertex="1">
          <mxGeometry x="48" width="108" height="22" as="geometry">
            <mxRectangle width="108" height="22" as="alternateBounds" />
          </mxGeometry>
        </mxCell>
        <mxCell id="D8zbSiBJ9EzXnrRQjWzC-5803" style="shape=tableRow;horizontal=0;startSize=0;swimlaneHead=0;swimlaneBody=0;fillColor=none;collapsible=0;dropTarget=0;points=[[0,0.5],[1,0.5]];portConstraint=eastwest;top=0;left=0;right=0;bottom=0;" parent="D8zbSiBJ9EzXnrRQjWzC-5799" vertex="1">
          <mxGeometry y="47" width="156" height="22" as="geometry" />
        </mxCell>
        <mxCell id="D8zbSiBJ9EzXnrRQjWzC-5804" value="" style="shape=partialRectangle;connectable=0;fillColor=none;top=0;left=0;bottom=0;right=0;align=left;spacingLeft=2;overflow=hidden;fontSize=11;" parent="D8zbSiBJ9EzXnrRQjWzC-5803" vertex="1">
          <mxGeometry width="48" height="22" as="geometry">
            <mxRectangle width="48" height="22" as="alternateBounds" />
          </mxGeometry>
        </mxCell>
        <mxCell id="D8zbSiBJ9EzXnrRQjWzC-5805" value="DiscountName" style="shape=partialRectangle;connectable=0;fillColor=#f5f5f5;top=0;left=0;bottom=0;right=0;align=left;spacingLeft=2;overflow=hidden;fontSize=11;fontColor=#333333;strokeColor=#666666;" parent="D8zbSiBJ9EzXnrRQjWzC-5803" vertex="1">
          <mxGeometry x="48" width="108" height="22" as="geometry">
            <mxRectangle width="108" height="22" as="alternateBounds" />
          </mxGeometry>
        </mxCell>
        <mxCell id="D8zbSiBJ9EzXnrRQjWzC-5806" style="shape=tableRow;horizontal=0;startSize=0;swimlaneHead=0;swimlaneBody=0;fillColor=none;collapsible=0;dropTarget=0;points=[[0,0.5],[1,0.5]];portConstraint=eastwest;top=0;left=0;right=0;bottom=0;" parent="D8zbSiBJ9EzXnrRQjWzC-5799" vertex="1">
          <mxGeometry y="69" width="156" height="22" as="geometry" />
        </mxCell>
        <mxCell id="D8zbSiBJ9EzXnrRQjWzC-5807" value="" style="shape=partialRectangle;connectable=0;fillColor=none;top=0;left=0;bottom=0;right=0;align=left;spacingLeft=2;overflow=hidden;fontSize=11;" parent="D8zbSiBJ9EzXnrRQjWzC-5806" vertex="1">
          <mxGeometry width="48" height="22" as="geometry">
            <mxRectangle width="48" height="22" as="alternateBounds" />
          </mxGeometry>
        </mxCell>
        <mxCell id="D8zbSiBJ9EzXnrRQjWzC-5808" value="Description" style="shape=partialRectangle;connectable=0;fillColor=#f5f5f5;top=0;left=0;bottom=0;right=0;align=left;spacingLeft=2;overflow=hidden;fontSize=11;fontColor=#333333;strokeColor=#666666;" parent="D8zbSiBJ9EzXnrRQjWzC-5806" vertex="1">
          <mxGeometry x="48" width="108" height="22" as="geometry">
            <mxRectangle width="108" height="22" as="alternateBounds" />
          </mxGeometry>
        </mxCell>
        <mxCell id="D8zbSiBJ9EzXnrRQjWzC-5809" style="shape=tableRow;horizontal=0;startSize=0;swimlaneHead=0;swimlaneBody=0;fillColor=none;collapsible=0;dropTarget=0;points=[[0,0.5],[1,0.5]];portConstraint=eastwest;top=0;left=0;right=0;bottom=0;" parent="D8zbSiBJ9EzXnrRQjWzC-5799" vertex="1">
          <mxGeometry y="91" width="156" height="22" as="geometry" />
        </mxCell>
        <mxCell id="D8zbSiBJ9EzXnrRQjWzC-5810" value="" style="shape=partialRectangle;connectable=0;fillColor=none;top=0;left=0;bottom=0;right=0;align=left;spacingLeft=2;overflow=hidden;fontSize=11;" parent="D8zbSiBJ9EzXnrRQjWzC-5809" vertex="1">
          <mxGeometry width="48" height="22" as="geometry">
            <mxRectangle width="48" height="22" as="alternateBounds" />
          </mxGeometry>
        </mxCell>
        <mxCell id="D8zbSiBJ9EzXnrRQjWzC-5811" value="DiscountPercentage" style="shape=partialRectangle;connectable=0;fillColor=#f5f5f5;top=0;left=0;bottom=0;right=0;align=left;spacingLeft=2;overflow=hidden;fontSize=11;fontColor=#333333;strokeColor=#666666;" parent="D8zbSiBJ9EzXnrRQjWzC-5809" vertex="1">
          <mxGeometry x="48" width="108" height="22" as="geometry">
            <mxRectangle width="108" height="22" as="alternateBounds" />
          </mxGeometry>
        </mxCell>
        <mxCell id="D8zbSiBJ9EzXnrRQjWzC-5812" style="shape=tableRow;horizontal=0;startSize=0;swimlaneHead=0;swimlaneBody=0;fillColor=none;collapsible=0;dropTarget=0;points=[[0,0.5],[1,0.5]];portConstraint=eastwest;top=0;left=0;right=0;bottom=0;" parent="D8zbSiBJ9EzXnrRQjWzC-5799" vertex="1">
          <mxGeometry y="113" width="156" height="22" as="geometry" />
        </mxCell>
        <mxCell id="D8zbSiBJ9EzXnrRQjWzC-5813" value="" style="shape=partialRectangle;connectable=0;fillColor=none;top=0;left=0;bottom=0;right=0;align=left;spacingLeft=2;overflow=hidden;fontSize=11;" parent="D8zbSiBJ9EzXnrRQjWzC-5812" vertex="1">
          <mxGeometry width="48" height="22" as="geometry">
            <mxRectangle width="48" height="22" as="alternateBounds" />
          </mxGeometry>
        </mxCell>
        <mxCell id="D8zbSiBJ9EzXnrRQjWzC-5814" value="StartDate" style="shape=partialRectangle;connectable=0;fillColor=#f5f5f5;top=0;left=0;bottom=0;right=0;align=left;spacingLeft=2;overflow=hidden;fontSize=11;fontColor=#333333;strokeColor=#666666;" parent="D8zbSiBJ9EzXnrRQjWzC-5812" vertex="1">
          <mxGeometry x="48" width="108" height="22" as="geometry">
            <mxRectangle width="108" height="22" as="alternateBounds" />
          </mxGeometry>
        </mxCell>
        <mxCell id="D8zbSiBJ9EzXnrRQjWzC-5815" style="shape=tableRow;horizontal=0;startSize=0;swimlaneHead=0;swimlaneBody=0;fillColor=none;collapsible=0;dropTarget=0;points=[[0,0.5],[1,0.5]];portConstraint=eastwest;top=0;left=0;right=0;bottom=0;" parent="D8zbSiBJ9EzXnrRQjWzC-5799" vertex="1">
          <mxGeometry y="135" width="156" height="22" as="geometry" />
        </mxCell>
        <mxCell id="D8zbSiBJ9EzXnrRQjWzC-5816" value="" style="shape=partialRectangle;connectable=0;fillColor=none;top=0;left=0;bottom=0;right=0;align=left;spacingLeft=2;overflow=hidden;fontSize=11;" parent="D8zbSiBJ9EzXnrRQjWzC-5815" vertex="1">
          <mxGeometry width="48" height="22" as="geometry">
            <mxRectangle width="48" height="22" as="alternateBounds" />
          </mxGeometry>
        </mxCell>
        <mxCell id="D8zbSiBJ9EzXnrRQjWzC-5817" value="EndDate" style="shape=partialRectangle;connectable=0;fillColor=#f5f5f5;top=0;left=0;bottom=0;right=0;align=left;spacingLeft=2;overflow=hidden;fontSize=11;fontColor=#333333;strokeColor=#666666;" parent="D8zbSiBJ9EzXnrRQjWzC-5815" vertex="1">
          <mxGeometry x="48" width="108" height="22" as="geometry">
            <mxRectangle width="108" height="22" as="alternateBounds" />
          </mxGeometry>
        </mxCell>
        <mxCell id="D8zbSiBJ9EzXnrRQjWzC-5818" value="Payment" style="shape=table;startSize=25;container=1;collapsible=0;childLayout=tableLayout;fixedRows=1;rowLines=1;fontStyle=1;align=center;resizeLast=1;fillColor=#dae8fc;strokeColor=#6c8ebf;" parent="1" vertex="1">
          <mxGeometry x="2618" y="8462" width="152" height="157" as="geometry" />
        </mxCell>
        <mxCell id="D8zbSiBJ9EzXnrRQjWzC-5819" style="shape=tableRow;horizontal=0;startSize=0;swimlaneHead=0;swimlaneBody=0;fillColor=none;collapsible=0;dropTarget=0;points=[[0,0.5],[1,0.5]];portConstraint=eastwest;top=0;left=0;right=0;bottom=0;" parent="D8zbSiBJ9EzXnrRQjWzC-5818" vertex="1">
          <mxGeometry y="25" width="152" height="22" as="geometry" />
        </mxCell>
        <mxCell id="D8zbSiBJ9EzXnrRQjWzC-5820" value="PK" style="shape=partialRectangle;connectable=0;fillColor=none;top=0;left=0;bottom=0;right=0;align=left;spacingLeft=2;overflow=hidden;fontSize=11;fontStyle=1" parent="D8zbSiBJ9EzXnrRQjWzC-5819" vertex="1">
          <mxGeometry width="48" height="22" as="geometry">
            <mxRectangle width="48" height="22" as="alternateBounds" />
          </mxGeometry>
        </mxCell>
        <mxCell id="D8zbSiBJ9EzXnrRQjWzC-5821" value="PaymentID" style="shape=partialRectangle;connectable=0;fillColor=#f5f5f5;top=0;left=0;bottom=0;right=0;align=left;spacingLeft=2;overflow=hidden;fontSize=11;fontStyle=5;fontColor=#333333;strokeColor=#666666;" parent="D8zbSiBJ9EzXnrRQjWzC-5819" vertex="1">
          <mxGeometry x="48" width="104" height="22" as="geometry">
            <mxRectangle width="104" height="22" as="alternateBounds" />
          </mxGeometry>
        </mxCell>
        <mxCell id="D8zbSiBJ9EzXnrRQjWzC-5822" style="shape=tableRow;horizontal=0;startSize=0;swimlaneHead=0;swimlaneBody=0;fillColor=none;collapsible=0;dropTarget=0;points=[[0,0.5],[1,0.5]];portConstraint=eastwest;top=0;left=0;right=0;bottom=0;" parent="D8zbSiBJ9EzXnrRQjWzC-5818" vertex="1">
          <mxGeometry y="47" width="152" height="22" as="geometry" />
        </mxCell>
        <mxCell id="D8zbSiBJ9EzXnrRQjWzC-5823" value="FK" style="shape=partialRectangle;connectable=0;fillColor=none;top=0;left=0;bottom=0;right=0;align=left;spacingLeft=2;overflow=hidden;fontSize=11;fontStyle=1" parent="D8zbSiBJ9EzXnrRQjWzC-5822" vertex="1">
          <mxGeometry width="48" height="22" as="geometry">
            <mxRectangle width="48" height="22" as="alternateBounds" />
          </mxGeometry>
        </mxCell>
        <mxCell id="D8zbSiBJ9EzXnrRQjWzC-5824" value="PaymentMethodID" style="shape=partialRectangle;connectable=0;fillColor=#f5f5f5;top=0;left=0;bottom=0;right=0;align=left;spacingLeft=2;overflow=hidden;fontSize=11;fontColor=#333333;strokeColor=#666666;" parent="D8zbSiBJ9EzXnrRQjWzC-5822" vertex="1">
          <mxGeometry x="48" width="104" height="22" as="geometry">
            <mxRectangle width="104" height="22" as="alternateBounds" />
          </mxGeometry>
        </mxCell>
        <mxCell id="D8zbSiBJ9EzXnrRQjWzC-5825" style="shape=tableRow;horizontal=0;startSize=0;swimlaneHead=0;swimlaneBody=0;fillColor=none;collapsible=0;dropTarget=0;points=[[0,0.5],[1,0.5]];portConstraint=eastwest;top=0;left=0;right=0;bottom=0;" parent="D8zbSiBJ9EzXnrRQjWzC-5818" vertex="1">
          <mxGeometry y="69" width="152" height="22" as="geometry" />
        </mxCell>
        <mxCell id="D8zbSiBJ9EzXnrRQjWzC-5826" value="FK" style="shape=partialRectangle;connectable=0;fillColor=none;top=0;left=0;bottom=0;right=0;align=left;spacingLeft=2;overflow=hidden;fontSize=11;fontStyle=1" parent="D8zbSiBJ9EzXnrRQjWzC-5825" vertex="1">
          <mxGeometry width="48" height="22" as="geometry">
            <mxRectangle width="48" height="22" as="alternateBounds" />
          </mxGeometry>
        </mxCell>
        <mxCell id="D8zbSiBJ9EzXnrRQjWzC-5827" value="OrderID" style="shape=partialRectangle;connectable=0;fillColor=#f5f5f5;top=0;left=0;bottom=0;right=0;align=left;spacingLeft=2;overflow=hidden;fontSize=11;fontColor=#333333;strokeColor=#666666;" parent="D8zbSiBJ9EzXnrRQjWzC-5825" vertex="1">
          <mxGeometry x="48" width="104" height="22" as="geometry">
            <mxRectangle width="104" height="22" as="alternateBounds" />
          </mxGeometry>
        </mxCell>
        <mxCell id="D8zbSiBJ9EzXnrRQjWzC-5828" style="shape=tableRow;horizontal=0;startSize=0;swimlaneHead=0;swimlaneBody=0;fillColor=none;collapsible=0;dropTarget=0;points=[[0,0.5],[1,0.5]];portConstraint=eastwest;top=0;left=0;right=0;bottom=0;" parent="D8zbSiBJ9EzXnrRQjWzC-5818" vertex="1">
          <mxGeometry y="91" width="152" height="22" as="geometry" />
        </mxCell>
        <mxCell id="D8zbSiBJ9EzXnrRQjWzC-5829" value="" style="shape=partialRectangle;connectable=0;fillColor=none;top=0;left=0;bottom=0;right=0;align=left;spacingLeft=2;overflow=hidden;fontSize=11;" parent="D8zbSiBJ9EzXnrRQjWzC-5828" vertex="1">
          <mxGeometry width="48" height="22" as="geometry">
            <mxRectangle width="48" height="22" as="alternateBounds" />
          </mxGeometry>
        </mxCell>
        <mxCell id="D8zbSiBJ9EzXnrRQjWzC-5830" value="PaymentStatus" style="shape=partialRectangle;connectable=0;fillColor=#f5f5f5;top=0;left=0;bottom=0;right=0;align=left;spacingLeft=2;overflow=hidden;fontSize=11;fontColor=#333333;strokeColor=#666666;" parent="D8zbSiBJ9EzXnrRQjWzC-5828" vertex="1">
          <mxGeometry x="48" width="104" height="22" as="geometry">
            <mxRectangle width="104" height="22" as="alternateBounds" />
          </mxGeometry>
        </mxCell>
        <mxCell id="D8zbSiBJ9EzXnrRQjWzC-5831" style="shape=tableRow;horizontal=0;startSize=0;swimlaneHead=0;swimlaneBody=0;fillColor=none;collapsible=0;dropTarget=0;points=[[0,0.5],[1,0.5]];portConstraint=eastwest;top=0;left=0;right=0;bottom=0;" parent="D8zbSiBJ9EzXnrRQjWzC-5818" vertex="1">
          <mxGeometry y="113" width="152" height="22" as="geometry" />
        </mxCell>
        <mxCell id="D8zbSiBJ9EzXnrRQjWzC-5832" value="" style="shape=partialRectangle;connectable=0;fillColor=none;top=0;left=0;bottom=0;right=0;align=left;spacingLeft=2;overflow=hidden;fontSize=11;" parent="D8zbSiBJ9EzXnrRQjWzC-5831" vertex="1">
          <mxGeometry width="48" height="22" as="geometry">
            <mxRectangle width="48" height="22" as="alternateBounds" />
          </mxGeometry>
        </mxCell>
        <mxCell id="D8zbSiBJ9EzXnrRQjWzC-5833" value="PaymentDate" style="shape=partialRectangle;connectable=0;fillColor=#f5f5f5;top=0;left=0;bottom=0;right=0;align=left;spacingLeft=2;overflow=hidden;fontSize=11;fontColor=#333333;strokeColor=#666666;" parent="D8zbSiBJ9EzXnrRQjWzC-5831" vertex="1">
          <mxGeometry x="48" width="104" height="22" as="geometry">
            <mxRectangle width="104" height="22" as="alternateBounds" />
          </mxGeometry>
        </mxCell>
        <mxCell id="D8zbSiBJ9EzXnrRQjWzC-5834" style="shape=tableRow;horizontal=0;startSize=0;swimlaneHead=0;swimlaneBody=0;fillColor=none;collapsible=0;dropTarget=0;points=[[0,0.5],[1,0.5]];portConstraint=eastwest;top=0;left=0;right=0;bottom=0;" parent="D8zbSiBJ9EzXnrRQjWzC-5818" vertex="1">
          <mxGeometry y="135" width="152" height="22" as="geometry" />
        </mxCell>
        <mxCell id="D8zbSiBJ9EzXnrRQjWzC-5835" value="" style="shape=partialRectangle;connectable=0;fillColor=none;top=0;left=0;bottom=0;right=0;align=left;spacingLeft=2;overflow=hidden;fontSize=11;" parent="D8zbSiBJ9EzXnrRQjWzC-5834" vertex="1">
          <mxGeometry width="48" height="22" as="geometry">
            <mxRectangle width="48" height="22" as="alternateBounds" />
          </mxGeometry>
        </mxCell>
        <mxCell id="D8zbSiBJ9EzXnrRQjWzC-5836" value="Amount" style="shape=partialRectangle;connectable=0;fillColor=#f5f5f5;top=0;left=0;bottom=0;right=0;align=left;spacingLeft=2;overflow=hidden;fontSize=11;fontColor=#333333;strokeColor=#666666;" parent="D8zbSiBJ9EzXnrRQjWzC-5834" vertex="1">
          <mxGeometry x="48" width="104" height="22" as="geometry">
            <mxRectangle width="104" height="22" as="alternateBounds" />
          </mxGeometry>
        </mxCell>
        <mxCell id="D8zbSiBJ9EzXnrRQjWzC-5837" value="Feedback" style="shape=table;startSize=25;container=1;collapsible=0;childLayout=tableLayout;fixedRows=1;rowLines=1;fontStyle=1;align=center;resizeLast=1;fillColor=#dae8fc;strokeColor=#6c8ebf;" parent="1" vertex="1">
          <mxGeometry x="1343" y="8462" width="162" height="157" as="geometry" />
        </mxCell>
        <mxCell id="D8zbSiBJ9EzXnrRQjWzC-5838" style="shape=tableRow;horizontal=0;startSize=0;swimlaneHead=0;swimlaneBody=0;fillColor=none;collapsible=0;dropTarget=0;points=[[0,0.5],[1,0.5]];portConstraint=eastwest;top=0;left=0;right=0;bottom=0;" parent="D8zbSiBJ9EzXnrRQjWzC-5837" vertex="1">
          <mxGeometry y="25" width="162" height="22" as="geometry" />
        </mxCell>
        <mxCell id="D8zbSiBJ9EzXnrRQjWzC-5839" value="PK" style="shape=partialRectangle;connectable=0;fillColor=none;top=0;left=0;bottom=0;right=0;align=left;spacingLeft=2;overflow=hidden;fontSize=11;fontStyle=1" parent="D8zbSiBJ9EzXnrRQjWzC-5838" vertex="1">
          <mxGeometry width="48" height="22" as="geometry">
            <mxRectangle width="48" height="22" as="alternateBounds" />
          </mxGeometry>
        </mxCell>
        <mxCell id="D8zbSiBJ9EzXnrRQjWzC-5840" value="FeedbackID" style="shape=partialRectangle;connectable=0;fillColor=#f5f5f5;top=0;left=0;bottom=0;right=0;align=left;spacingLeft=2;overflow=hidden;fontSize=11;fontStyle=5;fontColor=#333333;strokeColor=#666666;" parent="D8zbSiBJ9EzXnrRQjWzC-5838" vertex="1">
          <mxGeometry x="48" width="114" height="22" as="geometry">
            <mxRectangle width="114" height="22" as="alternateBounds" />
          </mxGeometry>
        </mxCell>
        <mxCell id="D8zbSiBJ9EzXnrRQjWzC-5841" style="shape=tableRow;horizontal=0;startSize=0;swimlaneHead=0;swimlaneBody=0;fillColor=none;collapsible=0;dropTarget=0;points=[[0,0.5],[1,0.5]];portConstraint=eastwest;top=0;left=0;right=0;bottom=0;" parent="D8zbSiBJ9EzXnrRQjWzC-5837" vertex="1">
          <mxGeometry y="47" width="162" height="22" as="geometry" />
        </mxCell>
        <mxCell id="D8zbSiBJ9EzXnrRQjWzC-5842" value="FK" style="shape=partialRectangle;connectable=0;fillColor=none;top=0;left=0;bottom=0;right=0;align=left;spacingLeft=2;overflow=hidden;fontSize=11;fontStyle=1" parent="D8zbSiBJ9EzXnrRQjWzC-5841" vertex="1">
          <mxGeometry width="48" height="22" as="geometry">
            <mxRectangle width="48" height="22" as="alternateBounds" />
          </mxGeometry>
        </mxCell>
        <mxCell id="D8zbSiBJ9EzXnrRQjWzC-5843" value="UserID" style="shape=partialRectangle;connectable=0;fillColor=#f5f5f5;top=0;left=0;bottom=0;right=0;align=left;spacingLeft=2;overflow=hidden;fontSize=11;fontColor=#333333;strokeColor=#666666;" parent="D8zbSiBJ9EzXnrRQjWzC-5841" vertex="1">
          <mxGeometry x="48" width="114" height="22" as="geometry">
            <mxRectangle width="114" height="22" as="alternateBounds" />
          </mxGeometry>
        </mxCell>
        <mxCell id="D8zbSiBJ9EzXnrRQjWzC-5844" style="shape=tableRow;horizontal=0;startSize=0;swimlaneHead=0;swimlaneBody=0;fillColor=none;collapsible=0;dropTarget=0;points=[[0,0.5],[1,0.5]];portConstraint=eastwest;top=0;left=0;right=0;bottom=0;" parent="D8zbSiBJ9EzXnrRQjWzC-5837" vertex="1">
          <mxGeometry y="69" width="162" height="22" as="geometry" />
        </mxCell>
        <mxCell id="D8zbSiBJ9EzXnrRQjWzC-5845" value="" style="shape=partialRectangle;connectable=0;fillColor=none;top=0;left=0;bottom=0;right=0;align=left;spacingLeft=2;overflow=hidden;fontSize=11;" parent="D8zbSiBJ9EzXnrRQjWzC-5844" vertex="1">
          <mxGeometry width="48" height="22" as="geometry">
            <mxRectangle width="48" height="22" as="alternateBounds" />
          </mxGeometry>
        </mxCell>
        <mxCell id="D8zbSiBJ9EzXnrRQjWzC-5846" value="FeedbackType" style="shape=partialRectangle;connectable=0;fillColor=#f5f5f5;top=0;left=0;bottom=0;right=0;align=left;spacingLeft=2;overflow=hidden;fontSize=11;fontColor=#333333;strokeColor=#666666;" parent="D8zbSiBJ9EzXnrRQjWzC-5844" vertex="1">
          <mxGeometry x="48" width="114" height="22" as="geometry">
            <mxRectangle width="114" height="22" as="alternateBounds" />
          </mxGeometry>
        </mxCell>
        <mxCell id="D8zbSiBJ9EzXnrRQjWzC-5847" style="shape=tableRow;horizontal=0;startSize=0;swimlaneHead=0;swimlaneBody=0;fillColor=none;collapsible=0;dropTarget=0;points=[[0,0.5],[1,0.5]];portConstraint=eastwest;top=0;left=0;right=0;bottom=0;" parent="D8zbSiBJ9EzXnrRQjWzC-5837" vertex="1">
          <mxGeometry y="91" width="162" height="22" as="geometry" />
        </mxCell>
        <mxCell id="D8zbSiBJ9EzXnrRQjWzC-5848" value="" style="shape=partialRectangle;connectable=0;fillColor=none;top=0;left=0;bottom=0;right=0;align=left;spacingLeft=2;overflow=hidden;fontSize=11;" parent="D8zbSiBJ9EzXnrRQjWzC-5847" vertex="1">
          <mxGeometry width="48" height="22" as="geometry">
            <mxRectangle width="48" height="22" as="alternateBounds" />
          </mxGeometry>
        </mxCell>
        <mxCell id="D8zbSiBJ9EzXnrRQjWzC-5849" value="FeedbackDescription" style="shape=partialRectangle;connectable=0;fillColor=#f5f5f5;top=0;left=0;bottom=0;right=0;align=left;spacingLeft=2;overflow=hidden;fontSize=11;fontColor=#333333;strokeColor=#666666;" parent="D8zbSiBJ9EzXnrRQjWzC-5847" vertex="1">
          <mxGeometry x="48" width="114" height="22" as="geometry">
            <mxRectangle width="114" height="22" as="alternateBounds" />
          </mxGeometry>
        </mxCell>
        <mxCell id="D8zbSiBJ9EzXnrRQjWzC-5850" style="shape=tableRow;horizontal=0;startSize=0;swimlaneHead=0;swimlaneBody=0;fillColor=none;collapsible=0;dropTarget=0;points=[[0,0.5],[1,0.5]];portConstraint=eastwest;top=0;left=0;right=0;bottom=0;" parent="D8zbSiBJ9EzXnrRQjWzC-5837" vertex="1">
          <mxGeometry y="113" width="162" height="22" as="geometry" />
        </mxCell>
        <mxCell id="D8zbSiBJ9EzXnrRQjWzC-5851" value="" style="shape=partialRectangle;connectable=0;fillColor=none;top=0;left=0;bottom=0;right=0;align=left;spacingLeft=2;overflow=hidden;fontSize=11;" parent="D8zbSiBJ9EzXnrRQjWzC-5850" vertex="1">
          <mxGeometry width="48" height="22" as="geometry">
            <mxRectangle width="48" height="22" as="alternateBounds" />
          </mxGeometry>
        </mxCell>
        <mxCell id="D8zbSiBJ9EzXnrRQjWzC-5852" value="FeedbackDate" style="shape=partialRectangle;connectable=0;fillColor=#f5f5f5;top=0;left=0;bottom=0;right=0;align=left;spacingLeft=2;overflow=hidden;fontSize=11;fontColor=#333333;strokeColor=#666666;" parent="D8zbSiBJ9EzXnrRQjWzC-5850" vertex="1">
          <mxGeometry x="48" width="114" height="22" as="geometry">
            <mxRectangle width="114" height="22" as="alternateBounds" />
          </mxGeometry>
        </mxCell>
        <mxCell id="D8zbSiBJ9EzXnrRQjWzC-5853" style="shape=tableRow;horizontal=0;startSize=0;swimlaneHead=0;swimlaneBody=0;fillColor=none;collapsible=0;dropTarget=0;points=[[0,0.5],[1,0.5]];portConstraint=eastwest;top=0;left=0;right=0;bottom=0;" parent="D8zbSiBJ9EzXnrRQjWzC-5837" vertex="1">
          <mxGeometry y="135" width="162" height="22" as="geometry" />
        </mxCell>
        <mxCell id="D8zbSiBJ9EzXnrRQjWzC-5854" value="" style="shape=partialRectangle;connectable=0;fillColor=none;top=0;left=0;bottom=0;right=0;align=left;spacingLeft=2;overflow=hidden;fontSize=11;" parent="D8zbSiBJ9EzXnrRQjWzC-5853" vertex="1">
          <mxGeometry width="48" height="22" as="geometry">
            <mxRectangle width="48" height="22" as="alternateBounds" />
          </mxGeometry>
        </mxCell>
        <mxCell id="D8zbSiBJ9EzXnrRQjWzC-5855" value="Response" style="shape=partialRectangle;connectable=0;fillColor=#f5f5f5;top=0;left=0;bottom=0;right=0;align=left;spacingLeft=2;overflow=hidden;fontSize=11;fontColor=#333333;strokeColor=#666666;" parent="D8zbSiBJ9EzXnrRQjWzC-5853" vertex="1">
          <mxGeometry x="48" width="114" height="22" as="geometry">
            <mxRectangle width="114" height="22" as="alternateBounds" />
          </mxGeometry>
        </mxCell>
        <mxCell id="D8zbSiBJ9EzXnrRQjWzC-5856" value="User" style="shape=table;startSize=25;container=1;collapsible=0;childLayout=tableLayout;fixedRows=1;rowLines=1;fontStyle=1;align=center;resizeLast=1;fillColor=#dae8fc;strokeColor=#6c8ebf;" parent="1" vertex="1">
          <mxGeometry x="1910" y="7973" width="150" height="201" as="geometry" />
        </mxCell>
        <mxCell id="D8zbSiBJ9EzXnrRQjWzC-5857" style="shape=tableRow;horizontal=0;startSize=0;swimlaneHead=0;swimlaneBody=0;fillColor=none;collapsible=0;dropTarget=0;points=[[0,0.5],[1,0.5]];portConstraint=eastwest;top=0;left=0;right=0;bottom=0;" parent="D8zbSiBJ9EzXnrRQjWzC-5856" vertex="1">
          <mxGeometry y="25" width="150" height="22" as="geometry" />
        </mxCell>
        <mxCell id="D8zbSiBJ9EzXnrRQjWzC-5858" value="PK" style="shape=partialRectangle;connectable=0;fillColor=none;top=0;left=0;bottom=0;right=0;align=left;spacingLeft=2;overflow=hidden;fontSize=11;fontStyle=1" parent="D8zbSiBJ9EzXnrRQjWzC-5857" vertex="1">
          <mxGeometry width="42" height="22" as="geometry">
            <mxRectangle width="42" height="22" as="alternateBounds" />
          </mxGeometry>
        </mxCell>
        <mxCell id="D8zbSiBJ9EzXnrRQjWzC-5859" value="UserID" style="shape=partialRectangle;connectable=0;fillColor=#f5f5f5;top=0;left=0;bottom=0;right=0;align=left;spacingLeft=2;overflow=hidden;fontSize=11;fontStyle=5;fontColor=#333333;strokeColor=#666666;" parent="D8zbSiBJ9EzXnrRQjWzC-5857" vertex="1">
          <mxGeometry x="42" width="108" height="22" as="geometry">
            <mxRectangle width="108" height="22" as="alternateBounds" />
          </mxGeometry>
        </mxCell>
        <mxCell id="D8zbSiBJ9EzXnrRQjWzC-5860" style="shape=tableRow;horizontal=0;startSize=0;swimlaneHead=0;swimlaneBody=0;fillColor=none;collapsible=0;dropTarget=0;points=[[0,0.5],[1,0.5]];portConstraint=eastwest;top=0;left=0;right=0;bottom=0;" parent="D8zbSiBJ9EzXnrRQjWzC-5856" vertex="1">
          <mxGeometry y="47" width="150" height="22" as="geometry" />
        </mxCell>
        <mxCell id="D8zbSiBJ9EzXnrRQjWzC-5861" value="" style="shape=partialRectangle;connectable=0;fillColor=none;top=0;left=0;bottom=0;right=0;align=left;spacingLeft=2;overflow=hidden;fontSize=11;" parent="D8zbSiBJ9EzXnrRQjWzC-5860" vertex="1">
          <mxGeometry width="42" height="22" as="geometry">
            <mxRectangle width="42" height="22" as="alternateBounds" />
          </mxGeometry>
        </mxCell>
        <mxCell id="D8zbSiBJ9EzXnrRQjWzC-5862" value="FirstName" style="shape=partialRectangle;connectable=0;fillColor=#f5f5f5;top=0;left=0;bottom=0;right=0;align=left;spacingLeft=2;overflow=hidden;fontSize=11;fontColor=#333333;strokeColor=#666666;" parent="D8zbSiBJ9EzXnrRQjWzC-5860" vertex="1">
          <mxGeometry x="42" width="108" height="22" as="geometry">
            <mxRectangle width="108" height="22" as="alternateBounds" />
          </mxGeometry>
        </mxCell>
        <mxCell id="D8zbSiBJ9EzXnrRQjWzC-5863" style="shape=tableRow;horizontal=0;startSize=0;swimlaneHead=0;swimlaneBody=0;fillColor=none;collapsible=0;dropTarget=0;points=[[0,0.5],[1,0.5]];portConstraint=eastwest;top=0;left=0;right=0;bottom=0;" parent="D8zbSiBJ9EzXnrRQjWzC-5856" vertex="1">
          <mxGeometry y="69" width="150" height="22" as="geometry" />
        </mxCell>
        <mxCell id="D8zbSiBJ9EzXnrRQjWzC-5864" value="" style="shape=partialRectangle;connectable=0;fillColor=none;top=0;left=0;bottom=0;right=0;align=left;spacingLeft=2;overflow=hidden;fontSize=11;" parent="D8zbSiBJ9EzXnrRQjWzC-5863" vertex="1">
          <mxGeometry width="42" height="22" as="geometry">
            <mxRectangle width="42" height="22" as="alternateBounds" />
          </mxGeometry>
        </mxCell>
        <mxCell id="D8zbSiBJ9EzXnrRQjWzC-5865" value="LastName" style="shape=partialRectangle;connectable=0;fillColor=#f5f5f5;top=0;left=0;bottom=0;right=0;align=left;spacingLeft=2;overflow=hidden;fontSize=11;fontColor=#333333;strokeColor=#666666;" parent="D8zbSiBJ9EzXnrRQjWzC-5863" vertex="1">
          <mxGeometry x="42" width="108" height="22" as="geometry">
            <mxRectangle width="108" height="22" as="alternateBounds" />
          </mxGeometry>
        </mxCell>
        <mxCell id="D8zbSiBJ9EzXnrRQjWzC-5866" style="shape=tableRow;horizontal=0;startSize=0;swimlaneHead=0;swimlaneBody=0;fillColor=none;collapsible=0;dropTarget=0;points=[[0,0.5],[1,0.5]];portConstraint=eastwest;top=0;left=0;right=0;bottom=0;" parent="D8zbSiBJ9EzXnrRQjWzC-5856" vertex="1">
          <mxGeometry y="91" width="150" height="22" as="geometry" />
        </mxCell>
        <mxCell id="D8zbSiBJ9EzXnrRQjWzC-5867" value="" style="shape=partialRectangle;connectable=0;fillColor=none;top=0;left=0;bottom=0;right=0;align=left;spacingLeft=2;overflow=hidden;fontSize=11;" parent="D8zbSiBJ9EzXnrRQjWzC-5866" vertex="1">
          <mxGeometry width="42" height="22" as="geometry">
            <mxRectangle width="42" height="22" as="alternateBounds" />
          </mxGeometry>
        </mxCell>
        <mxCell id="D8zbSiBJ9EzXnrRQjWzC-5868" value="Email" style="shape=partialRectangle;connectable=0;fillColor=#f5f5f5;top=0;left=0;bottom=0;right=0;align=left;spacingLeft=2;overflow=hidden;fontSize=11;fontColor=#333333;strokeColor=#666666;" parent="D8zbSiBJ9EzXnrRQjWzC-5866" vertex="1">
          <mxGeometry x="42" width="108" height="22" as="geometry">
            <mxRectangle width="108" height="22" as="alternateBounds" />
          </mxGeometry>
        </mxCell>
        <mxCell id="D8zbSiBJ9EzXnrRQjWzC-5869" style="shape=tableRow;horizontal=0;startSize=0;swimlaneHead=0;swimlaneBody=0;fillColor=none;collapsible=0;dropTarget=0;points=[[0,0.5],[1,0.5]];portConstraint=eastwest;top=0;left=0;right=0;bottom=0;" parent="D8zbSiBJ9EzXnrRQjWzC-5856" vertex="1">
          <mxGeometry y="113" width="150" height="22" as="geometry" />
        </mxCell>
        <mxCell id="D8zbSiBJ9EzXnrRQjWzC-5870" value="" style="shape=partialRectangle;connectable=0;fillColor=none;top=0;left=0;bottom=0;right=0;align=left;spacingLeft=2;overflow=hidden;fontSize=11;" parent="D8zbSiBJ9EzXnrRQjWzC-5869" vertex="1">
          <mxGeometry width="42" height="22" as="geometry">
            <mxRectangle width="42" height="22" as="alternateBounds" />
          </mxGeometry>
        </mxCell>
        <mxCell id="D8zbSiBJ9EzXnrRQjWzC-5871" value="Password" style="shape=partialRectangle;connectable=0;fillColor=#f5f5f5;top=0;left=0;bottom=0;right=0;align=left;spacingLeft=2;overflow=hidden;fontSize=11;fontColor=#333333;strokeColor=#666666;" parent="D8zbSiBJ9EzXnrRQjWzC-5869" vertex="1">
          <mxGeometry x="42" width="108" height="22" as="geometry">
            <mxRectangle width="108" height="22" as="alternateBounds" />
          </mxGeometry>
        </mxCell>
        <mxCell id="D8zbSiBJ9EzXnrRQjWzC-5872" style="shape=tableRow;horizontal=0;startSize=0;swimlaneHead=0;swimlaneBody=0;fillColor=none;collapsible=0;dropTarget=0;points=[[0,0.5],[1,0.5]];portConstraint=eastwest;top=0;left=0;right=0;bottom=0;" parent="D8zbSiBJ9EzXnrRQjWzC-5856" vertex="1">
          <mxGeometry y="135" width="150" height="22" as="geometry" />
        </mxCell>
        <mxCell id="D8zbSiBJ9EzXnrRQjWzC-5873" value="" style="shape=partialRectangle;connectable=0;fillColor=none;top=0;left=0;bottom=0;right=0;align=left;spacingLeft=2;overflow=hidden;fontSize=11;" parent="D8zbSiBJ9EzXnrRQjWzC-5872" vertex="1">
          <mxGeometry width="42" height="22" as="geometry">
            <mxRectangle width="42" height="22" as="alternateBounds" />
          </mxGeometry>
        </mxCell>
        <mxCell id="D8zbSiBJ9EzXnrRQjWzC-5874" value="UserType" style="shape=partialRectangle;connectable=0;fillColor=#f5f5f5;top=0;left=0;bottom=0;right=0;align=left;spacingLeft=2;overflow=hidden;fontSize=11;fontColor=#333333;strokeColor=#666666;" parent="D8zbSiBJ9EzXnrRQjWzC-5872" vertex="1">
          <mxGeometry x="42" width="108" height="22" as="geometry">
            <mxRectangle width="108" height="22" as="alternateBounds" />
          </mxGeometry>
        </mxCell>
        <mxCell id="D8zbSiBJ9EzXnrRQjWzC-5875" style="shape=tableRow;horizontal=0;startSize=0;swimlaneHead=0;swimlaneBody=0;fillColor=none;collapsible=0;dropTarget=0;points=[[0,0.5],[1,0.5]];portConstraint=eastwest;top=0;left=0;right=0;bottom=0;" parent="D8zbSiBJ9EzXnrRQjWzC-5856" vertex="1">
          <mxGeometry y="157" width="150" height="22" as="geometry" />
        </mxCell>
        <mxCell id="D8zbSiBJ9EzXnrRQjWzC-5876" value="" style="shape=partialRectangle;connectable=0;fillColor=none;top=0;left=0;bottom=0;right=0;align=left;spacingLeft=2;overflow=hidden;fontSize=11;" parent="D8zbSiBJ9EzXnrRQjWzC-5875" vertex="1">
          <mxGeometry width="42" height="22" as="geometry">
            <mxRectangle width="42" height="22" as="alternateBounds" />
          </mxGeometry>
        </mxCell>
        <mxCell id="D8zbSiBJ9EzXnrRQjWzC-5877" value="PhoneNumber" style="shape=partialRectangle;connectable=0;fillColor=#f5f5f5;top=0;left=0;bottom=0;right=0;align=left;spacingLeft=2;overflow=hidden;fontSize=11;fontColor=#333333;strokeColor=#666666;" parent="D8zbSiBJ9EzXnrRQjWzC-5875" vertex="1">
          <mxGeometry x="42" width="108" height="22" as="geometry">
            <mxRectangle width="108" height="22" as="alternateBounds" />
          </mxGeometry>
        </mxCell>
        <mxCell id="D8zbSiBJ9EzXnrRQjWzC-5878" style="shape=tableRow;horizontal=0;startSize=0;swimlaneHead=0;swimlaneBody=0;fillColor=none;collapsible=0;dropTarget=0;points=[[0,0.5],[1,0.5]];portConstraint=eastwest;top=0;left=0;right=0;bottom=0;" parent="D8zbSiBJ9EzXnrRQjWzC-5856" vertex="1">
          <mxGeometry y="179" width="150" height="22" as="geometry" />
        </mxCell>
        <mxCell id="D8zbSiBJ9EzXnrRQjWzC-5879" value="" style="shape=partialRectangle;connectable=0;fillColor=none;top=0;left=0;bottom=0;right=0;align=left;spacingLeft=2;overflow=hidden;fontSize=11;" parent="D8zbSiBJ9EzXnrRQjWzC-5878" vertex="1">
          <mxGeometry width="42" height="22" as="geometry">
            <mxRectangle width="42" height="22" as="alternateBounds" />
          </mxGeometry>
        </mxCell>
        <mxCell id="D8zbSiBJ9EzXnrRQjWzC-5880" value="Address" style="shape=partialRectangle;connectable=0;fillColor=#f5f5f5;top=0;left=0;bottom=0;right=0;align=left;spacingLeft=2;overflow=hidden;fontSize=11;fontColor=#333333;strokeColor=#666666;" parent="D8zbSiBJ9EzXnrRQjWzC-5878" vertex="1">
          <mxGeometry x="42" width="108" height="22" as="geometry">
            <mxRectangle width="108" height="22" as="alternateBounds" />
          </mxGeometry>
        </mxCell>
        <mxCell id="D8zbSiBJ9EzXnrRQjWzC-5881" value="ProductCategory" style="shape=table;startSize=25;container=1;collapsible=0;childLayout=tableLayout;fixedRows=1;rowLines=1;fontStyle=1;align=center;resizeLast=1;fillColor=#dae8fc;strokeColor=#6c8ebf;" parent="1" vertex="1">
          <mxGeometry x="1776" y="7250" width="154" height="91" as="geometry" />
        </mxCell>
        <mxCell id="D8zbSiBJ9EzXnrRQjWzC-5882" style="shape=tableRow;horizontal=0;startSize=0;swimlaneHead=0;swimlaneBody=0;fillColor=none;collapsible=0;dropTarget=0;points=[[0,0.5],[1,0.5]];portConstraint=eastwest;top=0;left=0;right=0;bottom=0;" parent="D8zbSiBJ9EzXnrRQjWzC-5881" vertex="1">
          <mxGeometry y="25" width="154" height="22" as="geometry" />
        </mxCell>
        <mxCell id="D8zbSiBJ9EzXnrRQjWzC-5883" value="PK" style="shape=partialRectangle;connectable=0;fillColor=none;top=0;left=0;bottom=0;right=0;align=left;spacingLeft=2;overflow=hidden;fontSize=11;fontStyle=1" parent="D8zbSiBJ9EzXnrRQjWzC-5882" vertex="1">
          <mxGeometry width="42" height="22" as="geometry">
            <mxRectangle width="42" height="22" as="alternateBounds" />
          </mxGeometry>
        </mxCell>
        <mxCell id="D8zbSiBJ9EzXnrRQjWzC-5884" value="ProductCategoryID" style="shape=partialRectangle;connectable=0;fillColor=#f5f5f5;top=0;left=0;bottom=0;right=0;align=left;spacingLeft=2;overflow=hidden;fontSize=11;fontStyle=5;strokeColor=#666666;" parent="D8zbSiBJ9EzXnrRQjWzC-5882" vertex="1">
          <mxGeometry x="42" width="112" height="22" as="geometry">
            <mxRectangle width="112" height="22" as="alternateBounds" />
          </mxGeometry>
        </mxCell>
        <mxCell id="D8zbSiBJ9EzXnrRQjWzC-5885" style="shape=tableRow;horizontal=0;startSize=0;swimlaneHead=0;swimlaneBody=0;fillColor=none;collapsible=0;dropTarget=0;points=[[0,0.5],[1,0.5]];portConstraint=eastwest;top=0;left=0;right=0;bottom=0;" parent="D8zbSiBJ9EzXnrRQjWzC-5881" vertex="1">
          <mxGeometry y="47" width="154" height="22" as="geometry" />
        </mxCell>
        <mxCell id="D8zbSiBJ9EzXnrRQjWzC-5886" value="" style="shape=partialRectangle;connectable=0;fillColor=none;top=0;left=0;bottom=0;right=0;align=left;spacingLeft=2;overflow=hidden;fontSize=11;" parent="D8zbSiBJ9EzXnrRQjWzC-5885" vertex="1">
          <mxGeometry width="42" height="22" as="geometry">
            <mxRectangle width="42" height="22" as="alternateBounds" />
          </mxGeometry>
        </mxCell>
        <mxCell id="D8zbSiBJ9EzXnrRQjWzC-5887" value="CategoryName" style="shape=partialRectangle;connectable=0;fillColor=#f5f5f5;top=0;left=0;bottom=0;right=0;align=left;spacingLeft=2;overflow=hidden;fontSize=11;strokeColor=#666666;" parent="D8zbSiBJ9EzXnrRQjWzC-5885" vertex="1">
          <mxGeometry x="42" width="112" height="22" as="geometry">
            <mxRectangle width="112" height="22" as="alternateBounds" />
          </mxGeometry>
        </mxCell>
        <mxCell id="D8zbSiBJ9EzXnrRQjWzC-5888" style="shape=tableRow;horizontal=0;startSize=0;swimlaneHead=0;swimlaneBody=0;fillColor=none;collapsible=0;dropTarget=0;points=[[0,0.5],[1,0.5]];portConstraint=eastwest;top=0;left=0;right=0;bottom=0;" parent="D8zbSiBJ9EzXnrRQjWzC-5881" vertex="1">
          <mxGeometry y="69" width="154" height="22" as="geometry" />
        </mxCell>
        <mxCell id="D8zbSiBJ9EzXnrRQjWzC-5889" value="" style="shape=partialRectangle;connectable=0;fillColor=none;top=0;left=0;bottom=0;right=0;align=left;spacingLeft=2;overflow=hidden;fontSize=11;" parent="D8zbSiBJ9EzXnrRQjWzC-5888" vertex="1">
          <mxGeometry width="42" height="22" as="geometry">
            <mxRectangle width="42" height="22" as="alternateBounds" />
          </mxGeometry>
        </mxCell>
        <mxCell id="D8zbSiBJ9EzXnrRQjWzC-5890" value="Description" style="shape=partialRectangle;connectable=0;fillColor=#f5f5f5;top=0;left=0;bottom=0;right=0;align=left;spacingLeft=2;overflow=hidden;fontSize=11;strokeColor=#666666;" parent="D8zbSiBJ9EzXnrRQjWzC-5888" vertex="1">
          <mxGeometry x="42" width="112" height="22" as="geometry">
            <mxRectangle width="112" height="22" as="alternateBounds" />
          </mxGeometry>
        </mxCell>
        <mxCell id="D8zbSiBJ9EzXnrRQjWzC-5891" value="ProductItem" style="shape=table;startSize=25;container=1;collapsible=0;childLayout=tableLayout;fixedRows=1;rowLines=1;fontStyle=1;align=center;resizeLast=1;fillColor=#dae8fc;strokeColor=#6c8ebf;" parent="1" vertex="1">
          <mxGeometry x="1776" y="7451" width="144" height="201" as="geometry" />
        </mxCell>
        <mxCell id="D8zbSiBJ9EzXnrRQjWzC-5892" style="shape=tableRow;horizontal=0;startSize=0;swimlaneHead=0;swimlaneBody=0;fillColor=none;collapsible=0;dropTarget=0;points=[[0,0.5],[1,0.5]];portConstraint=eastwest;top=0;left=0;right=0;bottom=0;" parent="D8zbSiBJ9EzXnrRQjWzC-5891" vertex="1">
          <mxGeometry y="25" width="144" height="22" as="geometry" />
        </mxCell>
        <mxCell id="D8zbSiBJ9EzXnrRQjWzC-5893" value="PK" style="shape=partialRectangle;connectable=0;fillColor=none;top=0;left=0;bottom=0;right=0;align=left;spacingLeft=2;overflow=hidden;fontSize=11;fontStyle=1" parent="D8zbSiBJ9EzXnrRQjWzC-5892" vertex="1">
          <mxGeometry width="42" height="22" as="geometry">
            <mxRectangle width="42" height="22" as="alternateBounds" />
          </mxGeometry>
        </mxCell>
        <mxCell id="D8zbSiBJ9EzXnrRQjWzC-5894" value="ProductItemID" style="shape=partialRectangle;connectable=0;fillColor=#f5f5f5;top=0;left=0;bottom=0;right=0;align=left;spacingLeft=2;overflow=hidden;fontSize=11;fontStyle=5;fontColor=#333333;strokeColor=#666666;" parent="D8zbSiBJ9EzXnrRQjWzC-5892" vertex="1">
          <mxGeometry x="42" width="102" height="22" as="geometry">
            <mxRectangle width="102" height="22" as="alternateBounds" />
          </mxGeometry>
        </mxCell>
        <mxCell id="D8zbSiBJ9EzXnrRQjWzC-5895" style="shape=tableRow;horizontal=0;startSize=0;swimlaneHead=0;swimlaneBody=0;fillColor=none;collapsible=0;dropTarget=0;points=[[0,0.5],[1,0.5]];portConstraint=eastwest;top=0;left=0;right=0;bottom=0;" parent="D8zbSiBJ9EzXnrRQjWzC-5891" vertex="1">
          <mxGeometry y="47" width="144" height="22" as="geometry" />
        </mxCell>
        <mxCell id="D8zbSiBJ9EzXnrRQjWzC-5896" value="FK" style="shape=partialRectangle;connectable=0;fillColor=none;top=0;left=0;bottom=0;right=0;align=left;spacingLeft=2;overflow=hidden;fontSize=11;fontStyle=1" parent="D8zbSiBJ9EzXnrRQjWzC-5895" vertex="1">
          <mxGeometry width="42" height="22" as="geometry">
            <mxRectangle width="42" height="22" as="alternateBounds" />
          </mxGeometry>
        </mxCell>
        <mxCell id="D8zbSiBJ9EzXnrRQjWzC-5897" value="ProductCategoryID" style="shape=partialRectangle;connectable=0;fillColor=#f5f5f5;top=0;left=0;bottom=0;right=0;align=left;spacingLeft=2;overflow=hidden;fontSize=11;fontColor=#333333;strokeColor=#666666;" parent="D8zbSiBJ9EzXnrRQjWzC-5895" vertex="1">
          <mxGeometry x="42" width="102" height="22" as="geometry">
            <mxRectangle width="102" height="22" as="alternateBounds" />
          </mxGeometry>
        </mxCell>
        <mxCell id="D8zbSiBJ9EzXnrRQjWzC-5898" style="shape=tableRow;horizontal=0;startSize=0;swimlaneHead=0;swimlaneBody=0;fillColor=none;collapsible=0;dropTarget=0;points=[[0,0.5],[1,0.5]];portConstraint=eastwest;top=0;left=0;right=0;bottom=0;" parent="D8zbSiBJ9EzXnrRQjWzC-5891" vertex="1">
          <mxGeometry y="69" width="144" height="22" as="geometry" />
        </mxCell>
        <mxCell id="D8zbSiBJ9EzXnrRQjWzC-5899" value="" style="shape=partialRectangle;connectable=0;fillColor=none;top=0;left=0;bottom=0;right=0;align=left;spacingLeft=2;overflow=hidden;fontSize=11;" parent="D8zbSiBJ9EzXnrRQjWzC-5898" vertex="1">
          <mxGeometry width="42" height="22" as="geometry">
            <mxRectangle width="42" height="22" as="alternateBounds" />
          </mxGeometry>
        </mxCell>
        <mxCell id="D8zbSiBJ9EzXnrRQjWzC-5900" value="ProductName" style="shape=partialRectangle;connectable=0;fillColor=#f5f5f5;top=0;left=0;bottom=0;right=0;align=left;spacingLeft=2;overflow=hidden;fontSize=11;fontColor=#333333;strokeColor=#666666;" parent="D8zbSiBJ9EzXnrRQjWzC-5898" vertex="1">
          <mxGeometry x="42" width="102" height="22" as="geometry">
            <mxRectangle width="102" height="22" as="alternateBounds" />
          </mxGeometry>
        </mxCell>
        <mxCell id="D8zbSiBJ9EzXnrRQjWzC-5901" style="shape=tableRow;horizontal=0;startSize=0;swimlaneHead=0;swimlaneBody=0;fillColor=none;collapsible=0;dropTarget=0;points=[[0,0.5],[1,0.5]];portConstraint=eastwest;top=0;left=0;right=0;bottom=0;" parent="D8zbSiBJ9EzXnrRQjWzC-5891" vertex="1">
          <mxGeometry y="91" width="144" height="22" as="geometry" />
        </mxCell>
        <mxCell id="D8zbSiBJ9EzXnrRQjWzC-5902" value="" style="shape=partialRectangle;connectable=0;fillColor=none;top=0;left=0;bottom=0;right=0;align=left;spacingLeft=2;overflow=hidden;fontSize=11;" parent="D8zbSiBJ9EzXnrRQjWzC-5901" vertex="1">
          <mxGeometry width="42" height="22" as="geometry">
            <mxRectangle width="42" height="22" as="alternateBounds" />
          </mxGeometry>
        </mxCell>
        <mxCell id="D8zbSiBJ9EzXnrRQjWzC-5903" value="Description" style="shape=partialRectangle;connectable=0;fillColor=#f5f5f5;top=0;left=0;bottom=0;right=0;align=left;spacingLeft=2;overflow=hidden;fontSize=11;fontColor=#333333;strokeColor=#666666;" parent="D8zbSiBJ9EzXnrRQjWzC-5901" vertex="1">
          <mxGeometry x="42" width="102" height="22" as="geometry">
            <mxRectangle width="102" height="22" as="alternateBounds" />
          </mxGeometry>
        </mxCell>
        <mxCell id="D8zbSiBJ9EzXnrRQjWzC-5904" style="shape=tableRow;horizontal=0;startSize=0;swimlaneHead=0;swimlaneBody=0;fillColor=none;collapsible=0;dropTarget=0;points=[[0,0.5],[1,0.5]];portConstraint=eastwest;top=0;left=0;right=0;bottom=0;" parent="D8zbSiBJ9EzXnrRQjWzC-5891" vertex="1">
          <mxGeometry y="113" width="144" height="22" as="geometry" />
        </mxCell>
        <mxCell id="D8zbSiBJ9EzXnrRQjWzC-5905" value="" style="shape=partialRectangle;connectable=0;fillColor=none;top=0;left=0;bottom=0;right=0;align=left;spacingLeft=2;overflow=hidden;fontSize=11;" parent="D8zbSiBJ9EzXnrRQjWzC-5904" vertex="1">
          <mxGeometry width="42" height="22" as="geometry">
            <mxRectangle width="42" height="22" as="alternateBounds" />
          </mxGeometry>
        </mxCell>
        <mxCell id="D8zbSiBJ9EzXnrRQjWzC-5906" value="Price" style="shape=partialRectangle;connectable=0;fillColor=#f5f5f5;top=0;left=0;bottom=0;right=0;align=left;spacingLeft=2;overflow=hidden;fontSize=11;fontColor=#333333;strokeColor=#666666;" parent="D8zbSiBJ9EzXnrRQjWzC-5904" vertex="1">
          <mxGeometry x="42" width="102" height="22" as="geometry">
            <mxRectangle width="102" height="22" as="alternateBounds" />
          </mxGeometry>
        </mxCell>
        <mxCell id="D8zbSiBJ9EzXnrRQjWzC-5907" style="shape=tableRow;horizontal=0;startSize=0;swimlaneHead=0;swimlaneBody=0;fillColor=none;collapsible=0;dropTarget=0;points=[[0,0.5],[1,0.5]];portConstraint=eastwest;top=0;left=0;right=0;bottom=0;" parent="D8zbSiBJ9EzXnrRQjWzC-5891" vertex="1">
          <mxGeometry y="135" width="144" height="22" as="geometry" />
        </mxCell>
        <mxCell id="D8zbSiBJ9EzXnrRQjWzC-5908" value="" style="shape=partialRectangle;connectable=0;fillColor=none;top=0;left=0;bottom=0;right=0;align=left;spacingLeft=2;overflow=hidden;fontSize=11;" parent="D8zbSiBJ9EzXnrRQjWzC-5907" vertex="1">
          <mxGeometry width="42" height="22" as="geometry">
            <mxRectangle width="42" height="22" as="alternateBounds" />
          </mxGeometry>
        </mxCell>
        <mxCell id="D8zbSiBJ9EzXnrRQjWzC-5909" value="Availability" style="shape=partialRectangle;connectable=0;fillColor=#f5f5f5;top=0;left=0;bottom=0;right=0;align=left;spacingLeft=2;overflow=hidden;fontSize=11;fontColor=#333333;strokeColor=#666666;" parent="D8zbSiBJ9EzXnrRQjWzC-5907" vertex="1">
          <mxGeometry x="42" width="102" height="22" as="geometry">
            <mxRectangle width="102" height="22" as="alternateBounds" />
          </mxGeometry>
        </mxCell>
        <mxCell id="0ENkc4zECDI_Xj_9tLOk-2" style="shape=tableRow;horizontal=0;startSize=0;swimlaneHead=0;swimlaneBody=0;fillColor=none;collapsible=0;dropTarget=0;points=[[0,0.5],[1,0.5]];portConstraint=eastwest;top=0;left=0;right=0;bottom=0;" parent="D8zbSiBJ9EzXnrRQjWzC-5891" vertex="1">
          <mxGeometry y="157" width="144" height="22" as="geometry" />
        </mxCell>
        <mxCell id="0ENkc4zECDI_Xj_9tLOk-3" value="" style="shape=partialRectangle;connectable=0;fillColor=none;top=0;left=0;bottom=0;right=0;align=left;spacingLeft=2;overflow=hidden;fontSize=11;" parent="0ENkc4zECDI_Xj_9tLOk-2" vertex="1">
          <mxGeometry width="42" height="22" as="geometry">
            <mxRectangle width="42" height="22" as="alternateBounds" />
          </mxGeometry>
        </mxCell>
        <mxCell id="0ENkc4zECDI_Xj_9tLOk-4" value="QuantityAvailable: " style="shape=partialRectangle;connectable=0;fillColor=#f5f5f5;top=0;left=0;bottom=0;right=0;align=left;spacingLeft=2;overflow=hidden;fontSize=11;fontColor=#333333;strokeColor=#666666;" parent="0ENkc4zECDI_Xj_9tLOk-2" vertex="1">
          <mxGeometry x="42" width="102" height="22" as="geometry">
            <mxRectangle width="102" height="22" as="alternateBounds" />
          </mxGeometry>
        </mxCell>
        <mxCell id="0ENkc4zECDI_Xj_9tLOk-8" style="shape=tableRow;horizontal=0;startSize=0;swimlaneHead=0;swimlaneBody=0;fillColor=none;collapsible=0;dropTarget=0;points=[[0,0.5],[1,0.5]];portConstraint=eastwest;top=0;left=0;right=0;bottom=0;" parent="D8zbSiBJ9EzXnrRQjWzC-5891" vertex="1">
          <mxGeometry y="179" width="144" height="22" as="geometry" />
        </mxCell>
        <mxCell id="0ENkc4zECDI_Xj_9tLOk-9" value="" style="shape=partialRectangle;connectable=0;fillColor=none;top=0;left=0;bottom=0;right=0;align=left;spacingLeft=2;overflow=hidden;fontSize=11;" parent="0ENkc4zECDI_Xj_9tLOk-8" vertex="1">
          <mxGeometry width="42" height="22" as="geometry">
            <mxRectangle width="42" height="22" as="alternateBounds" />
          </mxGeometry>
        </mxCell>
        <mxCell id="0ENkc4zECDI_Xj_9tLOk-10" value="Date" style="shape=partialRectangle;connectable=0;fillColor=#f5f5f5;top=0;left=0;bottom=0;right=0;align=left;spacingLeft=2;overflow=hidden;fontSize=11;fontColor=#333333;strokeColor=#666666;" parent="0ENkc4zECDI_Xj_9tLOk-8" vertex="1">
          <mxGeometry x="42" width="102" height="22" as="geometry">
            <mxRectangle width="102" height="22" as="alternateBounds" />
          </mxGeometry>
        </mxCell>
        <mxCell id="D8zbSiBJ9EzXnrRQjWzC-5910" value="InventoryItem" style="shape=table;startSize=25;container=1;collapsible=0;childLayout=tableLayout;fixedRows=1;rowLines=1;fontStyle=1;align=center;resizeLast=1;fillColor=#dae8fc;strokeColor=#6c8ebf;" parent="1" vertex="1">
          <mxGeometry x="770" y="7760" width="150" height="157" as="geometry" />
        </mxCell>
        <mxCell id="D8zbSiBJ9EzXnrRQjWzC-5911" style="shape=tableRow;horizontal=0;startSize=0;swimlaneHead=0;swimlaneBody=0;fillColor=none;collapsible=0;dropTarget=0;points=[[0,0.5],[1,0.5]];portConstraint=eastwest;top=0;left=0;right=0;bottom=0;" parent="D8zbSiBJ9EzXnrRQjWzC-5910" vertex="1">
          <mxGeometry y="25" width="150" height="22" as="geometry" />
        </mxCell>
        <mxCell id="D8zbSiBJ9EzXnrRQjWzC-5912" value="PK" style="shape=partialRectangle;connectable=0;fillColor=none;top=0;left=0;bottom=0;right=0;align=left;spacingLeft=2;overflow=hidden;fontSize=11;fontStyle=1" parent="D8zbSiBJ9EzXnrRQjWzC-5911" vertex="1">
          <mxGeometry width="48" height="22" as="geometry">
            <mxRectangle width="48" height="22" as="alternateBounds" />
          </mxGeometry>
        </mxCell>
        <mxCell id="D8zbSiBJ9EzXnrRQjWzC-5913" value="InventoryItemID" style="shape=partialRectangle;connectable=0;fillColor=#f5f5f5;top=0;left=0;bottom=0;right=0;align=left;spacingLeft=2;overflow=hidden;fontSize=11;fontStyle=5;strokeColor=#666666;" parent="D8zbSiBJ9EzXnrRQjWzC-5911" vertex="1">
          <mxGeometry x="48" width="102" height="22" as="geometry">
            <mxRectangle width="102" height="22" as="alternateBounds" />
          </mxGeometry>
        </mxCell>
        <mxCell id="D8zbSiBJ9EzXnrRQjWzC-5917" style="shape=tableRow;horizontal=0;startSize=0;swimlaneHead=0;swimlaneBody=0;fillColor=none;collapsible=0;dropTarget=0;points=[[0,0.5],[1,0.5]];portConstraint=eastwest;top=0;left=0;right=0;bottom=0;" parent="D8zbSiBJ9EzXnrRQjWzC-5910" vertex="1">
          <mxGeometry y="47" width="150" height="22" as="geometry" />
        </mxCell>
        <mxCell id="D8zbSiBJ9EzXnrRQjWzC-5918" value="" style="shape=partialRectangle;connectable=0;fillColor=none;top=0;left=0;bottom=0;right=0;align=left;spacingLeft=2;overflow=hidden;fontSize=11;" parent="D8zbSiBJ9EzXnrRQjWzC-5917" vertex="1">
          <mxGeometry width="48" height="22" as="geometry">
            <mxRectangle width="48" height="22" as="alternateBounds" />
          </mxGeometry>
        </mxCell>
        <mxCell id="D8zbSiBJ9EzXnrRQjWzC-5919" value="Quantity" style="shape=partialRectangle;connectable=0;fillColor=#f5f5f5;top=0;left=0;bottom=0;right=0;align=left;spacingLeft=2;overflow=hidden;fontSize=11;strokeColor=#666666;" parent="D8zbSiBJ9EzXnrRQjWzC-5917" vertex="1">
          <mxGeometry x="48" width="102" height="22" as="geometry">
            <mxRectangle width="102" height="22" as="alternateBounds" />
          </mxGeometry>
        </mxCell>
        <mxCell id="D8zbSiBJ9EzXnrRQjWzC-5920" style="shape=tableRow;horizontal=0;startSize=0;swimlaneHead=0;swimlaneBody=0;fillColor=none;collapsible=0;dropTarget=0;points=[[0,0.5],[1,0.5]];portConstraint=eastwest;top=0;left=0;right=0;bottom=0;" parent="D8zbSiBJ9EzXnrRQjWzC-5910" vertex="1">
          <mxGeometry y="69" width="150" height="22" as="geometry" />
        </mxCell>
        <mxCell id="D8zbSiBJ9EzXnrRQjWzC-5921" value="" style="shape=partialRectangle;connectable=0;fillColor=none;top=0;left=0;bottom=0;right=0;align=left;spacingLeft=2;overflow=hidden;fontSize=11;" parent="D8zbSiBJ9EzXnrRQjWzC-5920" vertex="1">
          <mxGeometry width="48" height="22" as="geometry">
            <mxRectangle width="48" height="22" as="alternateBounds" />
          </mxGeometry>
        </mxCell>
        <mxCell id="D8zbSiBJ9EzXnrRQjWzC-5922" value="ReorderLevel" style="shape=partialRectangle;connectable=0;fillColor=#f5f5f5;top=0;left=0;bottom=0;right=0;align=left;spacingLeft=2;overflow=hidden;fontSize=11;strokeColor=#666666;" parent="D8zbSiBJ9EzXnrRQjWzC-5920" vertex="1">
          <mxGeometry x="48" width="102" height="22" as="geometry">
            <mxRectangle width="102" height="22" as="alternateBounds" />
          </mxGeometry>
        </mxCell>
        <mxCell id="D8zbSiBJ9EzXnrRQjWzC-5923" style="shape=tableRow;horizontal=0;startSize=0;swimlaneHead=0;swimlaneBody=0;fillColor=none;collapsible=0;dropTarget=0;points=[[0,0.5],[1,0.5]];portConstraint=eastwest;top=0;left=0;right=0;bottom=0;" parent="D8zbSiBJ9EzXnrRQjWzC-5910" vertex="1">
          <mxGeometry y="91" width="150" height="22" as="geometry" />
        </mxCell>
        <mxCell id="D8zbSiBJ9EzXnrRQjWzC-5924" value="" style="shape=partialRectangle;connectable=0;fillColor=none;top=0;left=0;bottom=0;right=0;align=left;spacingLeft=2;overflow=hidden;fontSize=11;" parent="D8zbSiBJ9EzXnrRQjWzC-5923" vertex="1">
          <mxGeometry width="48" height="22" as="geometry">
            <mxRectangle width="48" height="22" as="alternateBounds" />
          </mxGeometry>
        </mxCell>
        <mxCell id="D8zbSiBJ9EzXnrRQjWzC-5925" value="UnitPrice" style="shape=partialRectangle;connectable=0;fillColor=#f5f5f5;top=0;left=0;bottom=0;right=0;align=left;spacingLeft=2;overflow=hidden;fontSize=11;strokeColor=#666666;" parent="D8zbSiBJ9EzXnrRQjWzC-5923" vertex="1">
          <mxGeometry x="48" width="102" height="22" as="geometry">
            <mxRectangle width="102" height="22" as="alternateBounds" />
          </mxGeometry>
        </mxCell>
        <mxCell id="D8zbSiBJ9EzXnrRQjWzC-5926" style="shape=tableRow;horizontal=0;startSize=0;swimlaneHead=0;swimlaneBody=0;fillColor=none;collapsible=0;dropTarget=0;points=[[0,0.5],[1,0.5]];portConstraint=eastwest;top=0;left=0;right=0;bottom=0;" parent="D8zbSiBJ9EzXnrRQjWzC-5910" vertex="1">
          <mxGeometry y="113" width="150" height="22" as="geometry" />
        </mxCell>
        <mxCell id="D8zbSiBJ9EzXnrRQjWzC-5927" value="" style="shape=partialRectangle;connectable=0;fillColor=none;top=0;left=0;bottom=0;right=0;align=left;spacingLeft=2;overflow=hidden;fontSize=11;" parent="D8zbSiBJ9EzXnrRQjWzC-5926" vertex="1">
          <mxGeometry width="48" height="22" as="geometry">
            <mxRectangle width="48" height="22" as="alternateBounds" />
          </mxGeometry>
        </mxCell>
        <mxCell id="D8zbSiBJ9EzXnrRQjWzC-5928" value="ExpiryDate" style="shape=partialRectangle;connectable=0;fillColor=#f5f5f5;top=0;left=0;bottom=0;right=0;align=left;spacingLeft=2;overflow=hidden;fontSize=11;strokeColor=#666666;" parent="D8zbSiBJ9EzXnrRQjWzC-5926" vertex="1">
          <mxGeometry x="48" width="102" height="22" as="geometry">
            <mxRectangle width="102" height="22" as="alternateBounds" />
          </mxGeometry>
        </mxCell>
        <mxCell id="0ENkc4zECDI_Xj_9tLOk-5" style="shape=tableRow;horizontal=0;startSize=0;swimlaneHead=0;swimlaneBody=0;fillColor=none;collapsible=0;dropTarget=0;points=[[0,0.5],[1,0.5]];portConstraint=eastwest;top=0;left=0;right=0;bottom=0;" parent="D8zbSiBJ9EzXnrRQjWzC-5910" vertex="1">
          <mxGeometry y="135" width="150" height="22" as="geometry" />
        </mxCell>
        <mxCell id="0ENkc4zECDI_Xj_9tLOk-6" value="FK" style="shape=partialRectangle;connectable=0;fillColor=none;top=0;left=0;bottom=0;right=0;align=left;spacingLeft=2;overflow=hidden;fontSize=11;" parent="0ENkc4zECDI_Xj_9tLOk-5" vertex="1">
          <mxGeometry width="48" height="22" as="geometry">
            <mxRectangle width="48" height="22" as="alternateBounds" />
          </mxGeometry>
        </mxCell>
        <mxCell id="0ENkc4zECDI_Xj_9tLOk-7" value="ProductID" style="shape=partialRectangle;connectable=0;fillColor=#f5f5f5;top=0;left=0;bottom=0;right=0;align=left;spacingLeft=2;overflow=hidden;fontSize=11;strokeColor=#666666;" parent="0ENkc4zECDI_Xj_9tLOk-5" vertex="1">
          <mxGeometry x="48" width="102" height="22" as="geometry">
            <mxRectangle width="102" height="22" as="alternateBounds" />
          </mxGeometry>
        </mxCell>
        <mxCell id="D8zbSiBJ9EzXnrRQjWzC-5929" value="InventoryRestock" style="shape=table;startSize=25;container=1;collapsible=0;childLayout=tableLayout;fixedRows=1;rowLines=1;fontStyle=1;align=center;resizeLast=1;fillColor=#dae8fc;strokeColor=#6c8ebf;" parent="1" vertex="1">
          <mxGeometry x="1440" y="7739" width="141" height="113" as="geometry" />
        </mxCell>
        <mxCell id="D8zbSiBJ9EzXnrRQjWzC-5930" style="shape=tableRow;horizontal=0;startSize=0;swimlaneHead=0;swimlaneBody=0;fillColor=none;collapsible=0;dropTarget=0;points=[[0,0.5],[1,0.5]];portConstraint=eastwest;top=0;left=0;right=0;bottom=0;" parent="D8zbSiBJ9EzXnrRQjWzC-5929" vertex="1">
          <mxGeometry y="25" width="141" height="22" as="geometry" />
        </mxCell>
        <mxCell id="D8zbSiBJ9EzXnrRQjWzC-5931" value="PK" style="shape=partialRectangle;connectable=0;fillColor=none;top=0;left=0;bottom=0;right=0;align=left;spacingLeft=2;overflow=hidden;fontSize=11;fontStyle=1" parent="D8zbSiBJ9EzXnrRQjWzC-5930" vertex="1">
          <mxGeometry width="48" height="22" as="geometry">
            <mxRectangle width="48" height="22" as="alternateBounds" />
          </mxGeometry>
        </mxCell>
        <mxCell id="D8zbSiBJ9EzXnrRQjWzC-5932" value="RestockID" style="shape=partialRectangle;connectable=0;fillColor=#f5f5f5;top=0;left=0;bottom=0;right=0;align=left;spacingLeft=2;overflow=hidden;fontSize=11;fontStyle=5;fontColor=#333333;strokeColor=#666666;" parent="D8zbSiBJ9EzXnrRQjWzC-5930" vertex="1">
          <mxGeometry x="48" width="93" height="22" as="geometry">
            <mxRectangle width="93" height="22" as="alternateBounds" />
          </mxGeometry>
        </mxCell>
        <mxCell id="D8zbSiBJ9EzXnrRQjWzC-5933" style="shape=tableRow;horizontal=0;startSize=0;swimlaneHead=0;swimlaneBody=0;fillColor=none;collapsible=0;dropTarget=0;points=[[0,0.5],[1,0.5]];portConstraint=eastwest;top=0;left=0;right=0;bottom=0;" parent="D8zbSiBJ9EzXnrRQjWzC-5929" vertex="1">
          <mxGeometry y="47" width="141" height="22" as="geometry" />
        </mxCell>
        <mxCell id="D8zbSiBJ9EzXnrRQjWzC-5934" value="" style="shape=partialRectangle;connectable=0;fillColor=none;top=0;left=0;bottom=0;right=0;align=left;spacingLeft=2;overflow=hidden;fontSize=11;" parent="D8zbSiBJ9EzXnrRQjWzC-5933" vertex="1">
          <mxGeometry width="48" height="22" as="geometry">
            <mxRectangle width="48" height="22" as="alternateBounds" />
          </mxGeometry>
        </mxCell>
        <mxCell id="D8zbSiBJ9EzXnrRQjWzC-5935" value="RestockDate" style="shape=partialRectangle;connectable=0;fillColor=#f5f5f5;top=0;left=0;bottom=0;right=0;align=left;spacingLeft=2;overflow=hidden;fontSize=11;fontColor=#333333;strokeColor=#666666;" parent="D8zbSiBJ9EzXnrRQjWzC-5933" vertex="1">
          <mxGeometry x="48" width="93" height="22" as="geometry">
            <mxRectangle width="93" height="22" as="alternateBounds" />
          </mxGeometry>
        </mxCell>
        <mxCell id="D8zbSiBJ9EzXnrRQjWzC-5936" style="shape=tableRow;horizontal=0;startSize=0;swimlaneHead=0;swimlaneBody=0;fillColor=none;collapsible=0;dropTarget=0;points=[[0,0.5],[1,0.5]];portConstraint=eastwest;top=0;left=0;right=0;bottom=0;" parent="D8zbSiBJ9EzXnrRQjWzC-5929" vertex="1">
          <mxGeometry y="69" width="141" height="22" as="geometry" />
        </mxCell>
        <mxCell id="D8zbSiBJ9EzXnrRQjWzC-5937" value="" style="shape=partialRectangle;connectable=0;fillColor=none;top=0;left=0;bottom=0;right=0;align=left;spacingLeft=2;overflow=hidden;fontSize=11;" parent="D8zbSiBJ9EzXnrRQjWzC-5936" vertex="1">
          <mxGeometry width="48" height="22" as="geometry">
            <mxRectangle width="48" height="22" as="alternateBounds" />
          </mxGeometry>
        </mxCell>
        <mxCell id="D8zbSiBJ9EzXnrRQjWzC-5938" value="RestockStatus" style="shape=partialRectangle;connectable=0;fillColor=#f5f5f5;top=0;left=0;bottom=0;right=0;align=left;spacingLeft=2;overflow=hidden;fontSize=11;fontColor=#333333;strokeColor=#666666;" parent="D8zbSiBJ9EzXnrRQjWzC-5936" vertex="1">
          <mxGeometry x="48" width="93" height="22" as="geometry">
            <mxRectangle width="93" height="22" as="alternateBounds" />
          </mxGeometry>
        </mxCell>
        <mxCell id="D8zbSiBJ9EzXnrRQjWzC-5939" style="shape=tableRow;horizontal=0;startSize=0;swimlaneHead=0;swimlaneBody=0;fillColor=none;collapsible=0;dropTarget=0;points=[[0,0.5],[1,0.5]];portConstraint=eastwest;top=0;left=0;right=0;bottom=0;" parent="D8zbSiBJ9EzXnrRQjWzC-5929" vertex="1">
          <mxGeometry y="91" width="141" height="22" as="geometry" />
        </mxCell>
        <mxCell id="D8zbSiBJ9EzXnrRQjWzC-5940" value="" style="shape=partialRectangle;connectable=0;fillColor=none;top=0;left=0;bottom=0;right=0;align=left;spacingLeft=2;overflow=hidden;fontSize=11;" parent="D8zbSiBJ9EzXnrRQjWzC-5939" vertex="1">
          <mxGeometry width="48" height="22" as="geometry">
            <mxRectangle width="48" height="22" as="alternateBounds" />
          </mxGeometry>
        </mxCell>
        <mxCell id="D8zbSiBJ9EzXnrRQjWzC-5941" value="RestockAmount" style="shape=partialRectangle;connectable=0;fillColor=#f5f5f5;top=0;left=0;bottom=0;right=0;align=left;spacingLeft=2;overflow=hidden;fontSize=11;fontColor=#333333;strokeColor=#666666;" parent="D8zbSiBJ9EzXnrRQjWzC-5939" vertex="1">
          <mxGeometry x="48" width="93" height="22" as="geometry">
            <mxRectangle width="93" height="22" as="alternateBounds" />
          </mxGeometry>
        </mxCell>
        <mxCell id="D8zbSiBJ9EzXnrRQjWzC-5942" value="Customer" style="shape=table;startSize=25;container=1;collapsible=0;childLayout=tableLayout;fixedRows=1;rowLines=1;fontStyle=1;align=center;resizeLast=1;fillColor=#dae8fc;strokeColor=#6c8ebf;" parent="1" vertex="1">
          <mxGeometry x="1013" y="8272" width="145" height="91" as="geometry" />
        </mxCell>
        <mxCell id="D8zbSiBJ9EzXnrRQjWzC-5943" style="shape=tableRow;horizontal=0;startSize=0;swimlaneHead=0;swimlaneBody=0;fillColor=none;collapsible=0;dropTarget=0;points=[[0,0.5],[1,0.5]];portConstraint=eastwest;top=0;left=0;right=0;bottom=0;" parent="D8zbSiBJ9EzXnrRQjWzC-5942" vertex="1">
          <mxGeometry y="25" width="145" height="22" as="geometry" />
        </mxCell>
        <mxCell id="D8zbSiBJ9EzXnrRQjWzC-5944" value="FK" style="shape=partialRectangle;connectable=0;fillColor=none;top=0;left=0;bottom=0;right=0;align=left;spacingLeft=2;overflow=hidden;fontSize=11;fontStyle=1" parent="D8zbSiBJ9EzXnrRQjWzC-5943" vertex="1">
          <mxGeometry width="42" height="22" as="geometry">
            <mxRectangle width="42" height="22" as="alternateBounds" />
          </mxGeometry>
        </mxCell>
        <mxCell id="D8zbSiBJ9EzXnrRQjWzC-5945" value="UserID" style="shape=partialRectangle;connectable=0;fillColor=#f5f5f5;top=0;left=0;bottom=0;right=0;align=left;spacingLeft=2;overflow=hidden;fontSize=11;fontColor=#333333;strokeColor=#666666;" parent="D8zbSiBJ9EzXnrRQjWzC-5943" vertex="1">
          <mxGeometry x="42" width="103" height="22" as="geometry">
            <mxRectangle width="103" height="22" as="alternateBounds" />
          </mxGeometry>
        </mxCell>
        <mxCell id="D8zbSiBJ9EzXnrRQjWzC-5946" style="shape=tableRow;horizontal=0;startSize=0;swimlaneHead=0;swimlaneBody=0;fillColor=none;collapsible=0;dropTarget=0;points=[[0,0.5],[1,0.5]];portConstraint=eastwest;top=0;left=0;right=0;bottom=0;" parent="D8zbSiBJ9EzXnrRQjWzC-5942" vertex="1">
          <mxGeometry y="47" width="145" height="22" as="geometry" />
        </mxCell>
        <mxCell id="D8zbSiBJ9EzXnrRQjWzC-5947" value="" style="shape=partialRectangle;connectable=0;fillColor=none;top=0;left=0;bottom=0;right=0;align=left;spacingLeft=2;overflow=hidden;fontSize=11;" parent="D8zbSiBJ9EzXnrRQjWzC-5946" vertex="1">
          <mxGeometry width="42" height="22" as="geometry">
            <mxRectangle width="42" height="22" as="alternateBounds" />
          </mxGeometry>
        </mxCell>
        <mxCell id="D8zbSiBJ9EzXnrRQjWzC-5948" value="CustomerType" style="shape=partialRectangle;connectable=0;fillColor=#f5f5f5;top=0;left=0;bottom=0;right=0;align=left;spacingLeft=2;overflow=hidden;fontSize=11;fontColor=#333333;strokeColor=#666666;" parent="D8zbSiBJ9EzXnrRQjWzC-5946" vertex="1">
          <mxGeometry x="42" width="103" height="22" as="geometry">
            <mxRectangle width="103" height="22" as="alternateBounds" />
          </mxGeometry>
        </mxCell>
        <mxCell id="D8zbSiBJ9EzXnrRQjWzC-5949" style="shape=tableRow;horizontal=0;startSize=0;swimlaneHead=0;swimlaneBody=0;fillColor=none;collapsible=0;dropTarget=0;points=[[0,0.5],[1,0.5]];portConstraint=eastwest;top=0;left=0;right=0;bottom=0;" parent="D8zbSiBJ9EzXnrRQjWzC-5942" vertex="1">
          <mxGeometry y="69" width="145" height="22" as="geometry" />
        </mxCell>
        <mxCell id="D8zbSiBJ9EzXnrRQjWzC-5950" value="" style="shape=partialRectangle;connectable=0;fillColor=none;top=0;left=0;bottom=0;right=0;align=left;spacingLeft=2;overflow=hidden;fontSize=11;" parent="D8zbSiBJ9EzXnrRQjWzC-5949" vertex="1">
          <mxGeometry width="42" height="22" as="geometry">
            <mxRectangle width="42" height="22" as="alternateBounds" />
          </mxGeometry>
        </mxCell>
        <mxCell id="D8zbSiBJ9EzXnrRQjWzC-5951" value="SpecialRequests" style="shape=partialRectangle;connectable=0;fillColor=#f5f5f5;top=0;left=0;bottom=0;right=0;align=left;spacingLeft=2;overflow=hidden;fontSize=11;fontColor=#333333;strokeColor=#666666;" parent="D8zbSiBJ9EzXnrRQjWzC-5949" vertex="1">
          <mxGeometry x="42" width="103" height="22" as="geometry">
            <mxRectangle width="103" height="22" as="alternateBounds" />
          </mxGeometry>
        </mxCell>
        <mxCell id="D8zbSiBJ9EzXnrRQjWzC-5952" value="Attendance" style="shape=table;startSize=25;container=1;collapsible=0;childLayout=tableLayout;fixedRows=1;rowLines=1;fontStyle=1;align=center;resizeLast=1;fillColor=#dae8fc;strokeColor=#6c8ebf;" parent="1" vertex="1">
          <mxGeometry x="3000" y="8973" width="144" height="157" as="geometry" />
        </mxCell>
        <mxCell id="D8zbSiBJ9EzXnrRQjWzC-5953" style="shape=tableRow;horizontal=0;startSize=0;swimlaneHead=0;swimlaneBody=0;fillColor=none;collapsible=0;dropTarget=0;points=[[0,0.5],[1,0.5]];portConstraint=eastwest;top=0;left=0;right=0;bottom=0;" parent="D8zbSiBJ9EzXnrRQjWzC-5952" vertex="1">
          <mxGeometry y="25" width="144" height="22" as="geometry" />
        </mxCell>
        <mxCell id="D8zbSiBJ9EzXnrRQjWzC-5954" value="PK" style="shape=partialRectangle;connectable=0;fillColor=none;top=0;left=0;bottom=0;right=0;align=left;spacingLeft=2;overflow=hidden;fontSize=11;fontStyle=1" parent="D8zbSiBJ9EzXnrRQjWzC-5953" vertex="1">
          <mxGeometry width="48" height="22" as="geometry">
            <mxRectangle width="48" height="22" as="alternateBounds" />
          </mxGeometry>
        </mxCell>
        <mxCell id="D8zbSiBJ9EzXnrRQjWzC-5955" value="AttendanceID" style="shape=partialRectangle;connectable=0;fillColor=#f5f5f5;top=0;left=0;bottom=0;right=0;align=left;spacingLeft=2;overflow=hidden;fontSize=11;fontStyle=5;fontColor=#333333;strokeColor=#666666;" parent="D8zbSiBJ9EzXnrRQjWzC-5953" vertex="1">
          <mxGeometry x="48" width="96" height="22" as="geometry">
            <mxRectangle width="96" height="22" as="alternateBounds" />
          </mxGeometry>
        </mxCell>
        <mxCell id="D8zbSiBJ9EzXnrRQjWzC-5956" style="shape=tableRow;horizontal=0;startSize=0;swimlaneHead=0;swimlaneBody=0;fillColor=none;collapsible=0;dropTarget=0;points=[[0,0.5],[1,0.5]];portConstraint=eastwest;top=0;left=0;right=0;bottom=0;" parent="D8zbSiBJ9EzXnrRQjWzC-5952" vertex="1">
          <mxGeometry y="47" width="144" height="22" as="geometry" />
        </mxCell>
        <mxCell id="D8zbSiBJ9EzXnrRQjWzC-5957" value="FK" style="shape=partialRectangle;connectable=0;fillColor=none;top=0;left=0;bottom=0;right=0;align=left;spacingLeft=2;overflow=hidden;fontSize=11;fontStyle=1" parent="D8zbSiBJ9EzXnrRQjWzC-5956" vertex="1">
          <mxGeometry width="48" height="22" as="geometry">
            <mxRectangle width="48" height="22" as="alternateBounds" />
          </mxGeometry>
        </mxCell>
        <mxCell id="D8zbSiBJ9EzXnrRQjWzC-5958" value="UserID" style="shape=partialRectangle;connectable=0;fillColor=#f5f5f5;top=0;left=0;bottom=0;right=0;align=left;spacingLeft=2;overflow=hidden;fontSize=11;fontColor=#333333;strokeColor=#666666;" parent="D8zbSiBJ9EzXnrRQjWzC-5956" vertex="1">
          <mxGeometry x="48" width="96" height="22" as="geometry">
            <mxRectangle width="96" height="22" as="alternateBounds" />
          </mxGeometry>
        </mxCell>
        <mxCell id="D8zbSiBJ9EzXnrRQjWzC-5959" style="shape=tableRow;horizontal=0;startSize=0;swimlaneHead=0;swimlaneBody=0;fillColor=none;collapsible=0;dropTarget=0;points=[[0,0.5],[1,0.5]];portConstraint=eastwest;top=0;left=0;right=0;bottom=0;" parent="D8zbSiBJ9EzXnrRQjWzC-5952" vertex="1">
          <mxGeometry y="69" width="144" height="22" as="geometry" />
        </mxCell>
        <mxCell id="D8zbSiBJ9EzXnrRQjWzC-5960" value="" style="shape=partialRectangle;connectable=0;fillColor=none;top=0;left=0;bottom=0;right=0;align=left;spacingLeft=2;overflow=hidden;fontSize=11;" parent="D8zbSiBJ9EzXnrRQjWzC-5959" vertex="1">
          <mxGeometry width="48" height="22" as="geometry">
            <mxRectangle width="48" height="22" as="alternateBounds" />
          </mxGeometry>
        </mxCell>
        <mxCell id="D8zbSiBJ9EzXnrRQjWzC-5961" value="AttendanceDate" style="shape=partialRectangle;connectable=0;fillColor=#f5f5f5;top=0;left=0;bottom=0;right=0;align=left;spacingLeft=2;overflow=hidden;fontSize=11;fontColor=#333333;strokeColor=#666666;" parent="D8zbSiBJ9EzXnrRQjWzC-5959" vertex="1">
          <mxGeometry x="48" width="96" height="22" as="geometry">
            <mxRectangle width="96" height="22" as="alternateBounds" />
          </mxGeometry>
        </mxCell>
        <mxCell id="D8zbSiBJ9EzXnrRQjWzC-5962" style="shape=tableRow;horizontal=0;startSize=0;swimlaneHead=0;swimlaneBody=0;fillColor=none;collapsible=0;dropTarget=0;points=[[0,0.5],[1,0.5]];portConstraint=eastwest;top=0;left=0;right=0;bottom=0;" parent="D8zbSiBJ9EzXnrRQjWzC-5952" vertex="1">
          <mxGeometry y="91" width="144" height="22" as="geometry" />
        </mxCell>
        <mxCell id="D8zbSiBJ9EzXnrRQjWzC-5963" value="" style="shape=partialRectangle;connectable=0;fillColor=none;top=0;left=0;bottom=0;right=0;align=left;spacingLeft=2;overflow=hidden;fontSize=11;" parent="D8zbSiBJ9EzXnrRQjWzC-5962" vertex="1">
          <mxGeometry width="48" height="22" as="geometry">
            <mxRectangle width="48" height="22" as="alternateBounds" />
          </mxGeometry>
        </mxCell>
        <mxCell id="D8zbSiBJ9EzXnrRQjWzC-5964" value="ClockInTime" style="shape=partialRectangle;connectable=0;fillColor=#f5f5f5;top=0;left=0;bottom=0;right=0;align=left;spacingLeft=2;overflow=hidden;fontSize=11;fontColor=#333333;strokeColor=#666666;" parent="D8zbSiBJ9EzXnrRQjWzC-5962" vertex="1">
          <mxGeometry x="48" width="96" height="22" as="geometry">
            <mxRectangle width="96" height="22" as="alternateBounds" />
          </mxGeometry>
        </mxCell>
        <mxCell id="D8zbSiBJ9EzXnrRQjWzC-5965" style="shape=tableRow;horizontal=0;startSize=0;swimlaneHead=0;swimlaneBody=0;fillColor=none;collapsible=0;dropTarget=0;points=[[0,0.5],[1,0.5]];portConstraint=eastwest;top=0;left=0;right=0;bottom=0;" parent="D8zbSiBJ9EzXnrRQjWzC-5952" vertex="1">
          <mxGeometry y="113" width="144" height="22" as="geometry" />
        </mxCell>
        <mxCell id="D8zbSiBJ9EzXnrRQjWzC-5966" value="" style="shape=partialRectangle;connectable=0;fillColor=none;top=0;left=0;bottom=0;right=0;align=left;spacingLeft=2;overflow=hidden;fontSize=11;" parent="D8zbSiBJ9EzXnrRQjWzC-5965" vertex="1">
          <mxGeometry width="48" height="22" as="geometry">
            <mxRectangle width="48" height="22" as="alternateBounds" />
          </mxGeometry>
        </mxCell>
        <mxCell id="D8zbSiBJ9EzXnrRQjWzC-5967" value="ClockOutTime" style="shape=partialRectangle;connectable=0;fillColor=#f5f5f5;top=0;left=0;bottom=0;right=0;align=left;spacingLeft=2;overflow=hidden;fontSize=11;fontColor=#333333;strokeColor=#666666;" parent="D8zbSiBJ9EzXnrRQjWzC-5965" vertex="1">
          <mxGeometry x="48" width="96" height="22" as="geometry">
            <mxRectangle width="96" height="22" as="alternateBounds" />
          </mxGeometry>
        </mxCell>
        <mxCell id="D8zbSiBJ9EzXnrRQjWzC-5968" style="shape=tableRow;horizontal=0;startSize=0;swimlaneHead=0;swimlaneBody=0;fillColor=none;collapsible=0;dropTarget=0;points=[[0,0.5],[1,0.5]];portConstraint=eastwest;top=0;left=0;right=0;bottom=0;" parent="D8zbSiBJ9EzXnrRQjWzC-5952" vertex="1">
          <mxGeometry y="135" width="144" height="22" as="geometry" />
        </mxCell>
        <mxCell id="D8zbSiBJ9EzXnrRQjWzC-5969" value="" style="shape=partialRectangle;connectable=0;fillColor=none;top=0;left=0;bottom=0;right=0;align=left;spacingLeft=2;overflow=hidden;fontSize=11;" parent="D8zbSiBJ9EzXnrRQjWzC-5968" vertex="1">
          <mxGeometry width="48" height="22" as="geometry">
            <mxRectangle width="48" height="22" as="alternateBounds" />
          </mxGeometry>
        </mxCell>
        <mxCell id="D8zbSiBJ9EzXnrRQjWzC-5970" value="AttendanceStatus" style="shape=partialRectangle;connectable=0;fillColor=#f5f5f5;top=0;left=0;bottom=0;right=0;align=left;spacingLeft=2;overflow=hidden;fontSize=11;fontColor=#333333;strokeColor=#666666;" parent="D8zbSiBJ9EzXnrRQjWzC-5968" vertex="1">
          <mxGeometry x="48" width="96" height="22" as="geometry">
            <mxRectangle width="96" height="22" as="alternateBounds" />
          </mxGeometry>
        </mxCell>
        <mxCell id="D8zbSiBJ9EzXnrRQjWzC-5971" value="Manager" style="shape=table;startSize=25;container=1;collapsible=0;childLayout=tableLayout;fixedRows=1;rowLines=1;fontStyle=1;align=center;resizeLast=1;fillColor=#dae8fc;strokeColor=#6c8ebf;" parent="1" vertex="1">
          <mxGeometry x="1929" y="8272" width="126" height="113" as="geometry" />
        </mxCell>
        <mxCell id="D8zbSiBJ9EzXnrRQjWzC-5972" style="shape=tableRow;horizontal=0;startSize=0;swimlaneHead=0;swimlaneBody=0;fillColor=none;collapsible=0;dropTarget=0;points=[[0,0.5],[1,0.5]];portConstraint=eastwest;top=0;left=0;right=0;bottom=0;" parent="D8zbSiBJ9EzXnrRQjWzC-5971" vertex="1">
          <mxGeometry y="25" width="126" height="22" as="geometry" />
        </mxCell>
        <mxCell id="D8zbSiBJ9EzXnrRQjWzC-5973" value="FK" style="shape=partialRectangle;connectable=0;fillColor=none;top=0;left=0;bottom=0;right=0;align=left;spacingLeft=2;overflow=hidden;fontSize=11;fontStyle=1" parent="D8zbSiBJ9EzXnrRQjWzC-5972" vertex="1">
          <mxGeometry width="42" height="22" as="geometry">
            <mxRectangle width="42" height="22" as="alternateBounds" />
          </mxGeometry>
        </mxCell>
        <mxCell id="D8zbSiBJ9EzXnrRQjWzC-5974" value="UserID" style="shape=partialRectangle;connectable=0;fillColor=#f5f5f5;top=0;left=0;bottom=0;right=0;align=left;spacingLeft=2;overflow=hidden;fontSize=11;fontColor=#333333;strokeColor=#666666;" parent="D8zbSiBJ9EzXnrRQjWzC-5972" vertex="1">
          <mxGeometry x="42" width="84" height="22" as="geometry">
            <mxRectangle width="84" height="22" as="alternateBounds" />
          </mxGeometry>
        </mxCell>
        <mxCell id="D8zbSiBJ9EzXnrRQjWzC-5975" style="shape=tableRow;horizontal=0;startSize=0;swimlaneHead=0;swimlaneBody=0;fillColor=none;collapsible=0;dropTarget=0;points=[[0,0.5],[1,0.5]];portConstraint=eastwest;top=0;left=0;right=0;bottom=0;" parent="D8zbSiBJ9EzXnrRQjWzC-5971" vertex="1">
          <mxGeometry y="47" width="126" height="22" as="geometry" />
        </mxCell>
        <mxCell id="D8zbSiBJ9EzXnrRQjWzC-5976" value="" style="shape=partialRectangle;connectable=0;fillColor=none;top=0;left=0;bottom=0;right=0;align=left;spacingLeft=2;overflow=hidden;fontSize=11;" parent="D8zbSiBJ9EzXnrRQjWzC-5975" vertex="1">
          <mxGeometry width="42" height="22" as="geometry">
            <mxRectangle width="42" height="22" as="alternateBounds" />
          </mxGeometry>
        </mxCell>
        <mxCell id="D8zbSiBJ9EzXnrRQjWzC-5977" value="CafeBranch" style="shape=partialRectangle;connectable=0;fillColor=#f5f5f5;top=0;left=0;bottom=0;right=0;align=left;spacingLeft=2;overflow=hidden;fontSize=11;fontColor=#333333;strokeColor=#666666;" parent="D8zbSiBJ9EzXnrRQjWzC-5975" vertex="1">
          <mxGeometry x="42" width="84" height="22" as="geometry">
            <mxRectangle width="84" height="22" as="alternateBounds" />
          </mxGeometry>
        </mxCell>
        <mxCell id="D8zbSiBJ9EzXnrRQjWzC-5978" style="shape=tableRow;horizontal=0;startSize=0;swimlaneHead=0;swimlaneBody=0;fillColor=none;collapsible=0;dropTarget=0;points=[[0,0.5],[1,0.5]];portConstraint=eastwest;top=0;left=0;right=0;bottom=0;" parent="D8zbSiBJ9EzXnrRQjWzC-5971" vertex="1">
          <mxGeometry y="69" width="126" height="22" as="geometry" />
        </mxCell>
        <mxCell id="D8zbSiBJ9EzXnrRQjWzC-5979" value="" style="shape=partialRectangle;connectable=0;fillColor=none;top=0;left=0;bottom=0;right=0;align=left;spacingLeft=2;overflow=hidden;fontSize=11;" parent="D8zbSiBJ9EzXnrRQjWzC-5978" vertex="1">
          <mxGeometry width="42" height="22" as="geometry">
            <mxRectangle width="42" height="22" as="alternateBounds" />
          </mxGeometry>
        </mxCell>
        <mxCell id="D8zbSiBJ9EzXnrRQjWzC-5980" value="OfficeLocation" style="shape=partialRectangle;connectable=0;fillColor=#f5f5f5;top=0;left=0;bottom=0;right=0;align=left;spacingLeft=2;overflow=hidden;fontSize=11;fontColor=#333333;strokeColor=#666666;" parent="D8zbSiBJ9EzXnrRQjWzC-5978" vertex="1">
          <mxGeometry x="42" width="84" height="22" as="geometry">
            <mxRectangle width="84" height="22" as="alternateBounds" />
          </mxGeometry>
        </mxCell>
        <mxCell id="D8zbSiBJ9EzXnrRQjWzC-6104" style="shape=tableRow;horizontal=0;startSize=0;swimlaneHead=0;swimlaneBody=0;fillColor=none;collapsible=0;dropTarget=0;points=[[0,0.5],[1,0.5]];portConstraint=eastwest;top=0;left=0;right=0;bottom=0;" parent="D8zbSiBJ9EzXnrRQjWzC-5971" vertex="1">
          <mxGeometry y="91" width="126" height="22" as="geometry" />
        </mxCell>
        <mxCell id="D8zbSiBJ9EzXnrRQjWzC-6105" value="" style="shape=partialRectangle;connectable=0;fillColor=none;top=0;left=0;bottom=0;right=0;align=left;spacingLeft=2;overflow=hidden;fontSize=11;" parent="D8zbSiBJ9EzXnrRQjWzC-6104" vertex="1">
          <mxGeometry width="42" height="22" as="geometry">
            <mxRectangle width="42" height="22" as="alternateBounds" />
          </mxGeometry>
        </mxCell>
        <mxCell id="D8zbSiBJ9EzXnrRQjWzC-6106" value="Responsibilities" style="shape=partialRectangle;connectable=0;fillColor=#f5f5f5;top=0;left=0;bottom=0;right=0;align=left;spacingLeft=2;overflow=hidden;fontSize=11;fontColor=#333333;strokeColor=#666666;" parent="D8zbSiBJ9EzXnrRQjWzC-6104" vertex="1">
          <mxGeometry x="42" width="84" height="22" as="geometry">
            <mxRectangle width="84" height="22" as="alternateBounds" />
          </mxGeometry>
        </mxCell>
        <mxCell id="D8zbSiBJ9EzXnrRQjWzC-5981" value="Report" style="shape=table;startSize=25;container=1;collapsible=0;childLayout=tableLayout;fixedRows=1;rowLines=1;fontStyle=1;align=center;resizeLast=1;fillColor=#dae8fc;strokeColor=#6c8ebf;" parent="1" vertex="1">
          <mxGeometry x="1929" y="8473" width="126" height="135" as="geometry" />
        </mxCell>
        <mxCell id="D8zbSiBJ9EzXnrRQjWzC-5982" style="shape=tableRow;horizontal=0;startSize=0;swimlaneHead=0;swimlaneBody=0;fillColor=none;collapsible=0;dropTarget=0;points=[[0,0.5],[1,0.5]];portConstraint=eastwest;top=0;left=0;right=0;bottom=0;" parent="D8zbSiBJ9EzXnrRQjWzC-5981" vertex="1">
          <mxGeometry y="25" width="126" height="22" as="geometry" />
        </mxCell>
        <mxCell id="D8zbSiBJ9EzXnrRQjWzC-5983" value="PK" style="shape=partialRectangle;connectable=0;fillColor=none;top=0;left=0;bottom=0;right=0;align=left;spacingLeft=2;overflow=hidden;fontSize=11;fontStyle=1" parent="D8zbSiBJ9EzXnrRQjWzC-5982" vertex="1">
          <mxGeometry width="48" height="22" as="geometry">
            <mxRectangle width="48" height="22" as="alternateBounds" />
          </mxGeometry>
        </mxCell>
        <mxCell id="D8zbSiBJ9EzXnrRQjWzC-5984" value="ReportID" style="shape=partialRectangle;connectable=0;fillColor=#f5f5f5;top=0;left=0;bottom=0;right=0;align=left;spacingLeft=2;overflow=hidden;fontSize=11;fontStyle=5;fontColor=#333333;strokeColor=#666666;" parent="D8zbSiBJ9EzXnrRQjWzC-5982" vertex="1">
          <mxGeometry x="48" width="78" height="22" as="geometry">
            <mxRectangle width="78" height="22" as="alternateBounds" />
          </mxGeometry>
        </mxCell>
        <mxCell id="D8zbSiBJ9EzXnrRQjWzC-5985" style="shape=tableRow;horizontal=0;startSize=0;swimlaneHead=0;swimlaneBody=0;fillColor=none;collapsible=0;dropTarget=0;points=[[0,0.5],[1,0.5]];portConstraint=eastwest;top=0;left=0;right=0;bottom=0;" parent="D8zbSiBJ9EzXnrRQjWzC-5981" vertex="1">
          <mxGeometry y="47" width="126" height="22" as="geometry" />
        </mxCell>
        <mxCell id="D8zbSiBJ9EzXnrRQjWzC-5986" value="FK" style="shape=partialRectangle;connectable=0;fillColor=none;top=0;left=0;bottom=0;right=0;align=left;spacingLeft=2;overflow=hidden;fontSize=11;fontStyle=1" parent="D8zbSiBJ9EzXnrRQjWzC-5985" vertex="1">
          <mxGeometry width="48" height="22" as="geometry">
            <mxRectangle width="48" height="22" as="alternateBounds" />
          </mxGeometry>
        </mxCell>
        <mxCell id="D8zbSiBJ9EzXnrRQjWzC-5987" value="ManagerID" style="shape=partialRectangle;connectable=0;fillColor=#f5f5f5;top=0;left=0;bottom=0;right=0;align=left;spacingLeft=2;overflow=hidden;fontSize=11;fontColor=#333333;strokeColor=#666666;" parent="D8zbSiBJ9EzXnrRQjWzC-5985" vertex="1">
          <mxGeometry x="48" width="78" height="22" as="geometry">
            <mxRectangle width="78" height="22" as="alternateBounds" />
          </mxGeometry>
        </mxCell>
        <mxCell id="D8zbSiBJ9EzXnrRQjWzC-5988" style="shape=tableRow;horizontal=0;startSize=0;swimlaneHead=0;swimlaneBody=0;fillColor=none;collapsible=0;dropTarget=0;points=[[0,0.5],[1,0.5]];portConstraint=eastwest;top=0;left=0;right=0;bottom=0;" parent="D8zbSiBJ9EzXnrRQjWzC-5981" vertex="1">
          <mxGeometry y="69" width="126" height="22" as="geometry" />
        </mxCell>
        <mxCell id="D8zbSiBJ9EzXnrRQjWzC-5989" value="" style="shape=partialRectangle;connectable=0;fillColor=none;top=0;left=0;bottom=0;right=0;align=left;spacingLeft=2;overflow=hidden;fontSize=11;" parent="D8zbSiBJ9EzXnrRQjWzC-5988" vertex="1">
          <mxGeometry width="48" height="22" as="geometry">
            <mxRectangle width="48" height="22" as="alternateBounds" />
          </mxGeometry>
        </mxCell>
        <mxCell id="D8zbSiBJ9EzXnrRQjWzC-5990" value="ReportType" style="shape=partialRectangle;connectable=0;fillColor=#f5f5f5;top=0;left=0;bottom=0;right=0;align=left;spacingLeft=2;overflow=hidden;fontSize=11;fontColor=#333333;strokeColor=#666666;" parent="D8zbSiBJ9EzXnrRQjWzC-5988" vertex="1">
          <mxGeometry x="48" width="78" height="22" as="geometry">
            <mxRectangle width="78" height="22" as="alternateBounds" />
          </mxGeometry>
        </mxCell>
        <mxCell id="D8zbSiBJ9EzXnrRQjWzC-5991" style="shape=tableRow;horizontal=0;startSize=0;swimlaneHead=0;swimlaneBody=0;fillColor=none;collapsible=0;dropTarget=0;points=[[0,0.5],[1,0.5]];portConstraint=eastwest;top=0;left=0;right=0;bottom=0;" parent="D8zbSiBJ9EzXnrRQjWzC-5981" vertex="1">
          <mxGeometry y="91" width="126" height="22" as="geometry" />
        </mxCell>
        <mxCell id="D8zbSiBJ9EzXnrRQjWzC-5992" value="" style="shape=partialRectangle;connectable=0;fillColor=none;top=0;left=0;bottom=0;right=0;align=left;spacingLeft=2;overflow=hidden;fontSize=11;" parent="D8zbSiBJ9EzXnrRQjWzC-5991" vertex="1">
          <mxGeometry width="48" height="22" as="geometry">
            <mxRectangle width="48" height="22" as="alternateBounds" />
          </mxGeometry>
        </mxCell>
        <mxCell id="D8zbSiBJ9EzXnrRQjWzC-5993" value="ReportDate" style="shape=partialRectangle;connectable=0;fillColor=#f5f5f5;top=0;left=0;bottom=0;right=0;align=left;spacingLeft=2;overflow=hidden;fontSize=11;fontColor=#333333;strokeColor=#666666;" parent="D8zbSiBJ9EzXnrRQjWzC-5991" vertex="1">
          <mxGeometry x="48" width="78" height="22" as="geometry">
            <mxRectangle width="78" height="22" as="alternateBounds" />
          </mxGeometry>
        </mxCell>
        <mxCell id="D8zbSiBJ9EzXnrRQjWzC-5994" style="shape=tableRow;horizontal=0;startSize=0;swimlaneHead=0;swimlaneBody=0;fillColor=none;collapsible=0;dropTarget=0;points=[[0,0.5],[1,0.5]];portConstraint=eastwest;top=0;left=0;right=0;bottom=0;" parent="D8zbSiBJ9EzXnrRQjWzC-5981" vertex="1">
          <mxGeometry y="113" width="126" height="22" as="geometry" />
        </mxCell>
        <mxCell id="D8zbSiBJ9EzXnrRQjWzC-5995" value="" style="shape=partialRectangle;connectable=0;fillColor=none;top=0;left=0;bottom=0;right=0;align=left;spacingLeft=2;overflow=hidden;fontSize=11;" parent="D8zbSiBJ9EzXnrRQjWzC-5994" vertex="1">
          <mxGeometry width="48" height="22" as="geometry">
            <mxRectangle width="48" height="22" as="alternateBounds" />
          </mxGeometry>
        </mxCell>
        <mxCell id="D8zbSiBJ9EzXnrRQjWzC-5996" value="ReportDetails" style="shape=partialRectangle;connectable=0;fillColor=#f5f5f5;top=0;left=0;bottom=0;right=0;align=left;spacingLeft=2;overflow=hidden;fontSize=11;fontColor=#333333;strokeColor=#666666;" parent="D8zbSiBJ9EzXnrRQjWzC-5994" vertex="1">
          <mxGeometry x="48" width="78" height="22" as="geometry">
            <mxRectangle width="78" height="22" as="alternateBounds" />
          </mxGeometry>
        </mxCell>
        <mxCell id="D8zbSiBJ9EzXnrRQjWzC-5997" value="CafeStaff" style="shape=table;startSize=25;container=1;collapsible=0;childLayout=tableLayout;fixedRows=1;rowLines=1;fontStyle=1;align=center;resizeLast=1;fillColor=#dae8fc;strokeColor=#6c8ebf;" parent="1" vertex="1">
          <mxGeometry x="3100" y="8272" width="160" height="91" as="geometry" />
        </mxCell>
        <mxCell id="D8zbSiBJ9EzXnrRQjWzC-5998" style="shape=tableRow;horizontal=0;startSize=0;swimlaneHead=0;swimlaneBody=0;fillColor=none;collapsible=0;dropTarget=0;points=[[0,0.5],[1,0.5]];portConstraint=eastwest;top=0;left=0;right=0;bottom=0;" parent="D8zbSiBJ9EzXnrRQjWzC-5997" vertex="1">
          <mxGeometry y="25" width="160" height="22" as="geometry" />
        </mxCell>
        <mxCell id="D8zbSiBJ9EzXnrRQjWzC-5999" value="FK" style="shape=partialRectangle;connectable=0;fillColor=none;top=0;left=0;bottom=0;right=0;align=left;spacingLeft=2;overflow=hidden;fontSize=11;fontStyle=1" parent="D8zbSiBJ9EzXnrRQjWzC-5998" vertex="1">
          <mxGeometry width="42" height="22" as="geometry">
            <mxRectangle width="42" height="22" as="alternateBounds" />
          </mxGeometry>
        </mxCell>
        <mxCell id="D8zbSiBJ9EzXnrRQjWzC-6000" value="UserID" style="shape=partialRectangle;connectable=0;fillColor=#f5f5f5;top=0;left=0;bottom=0;right=0;align=left;spacingLeft=2;overflow=hidden;fontSize=11;fontColor=#333333;strokeColor=#666666;" parent="D8zbSiBJ9EzXnrRQjWzC-5998" vertex="1">
          <mxGeometry x="42" width="118" height="22" as="geometry">
            <mxRectangle width="118" height="22" as="alternateBounds" />
          </mxGeometry>
        </mxCell>
        <mxCell id="D8zbSiBJ9EzXnrRQjWzC-6001" style="shape=tableRow;horizontal=0;startSize=0;swimlaneHead=0;swimlaneBody=0;fillColor=none;collapsible=0;dropTarget=0;points=[[0,0.5],[1,0.5]];portConstraint=eastwest;top=0;left=0;right=0;bottom=0;" parent="D8zbSiBJ9EzXnrRQjWzC-5997" vertex="1">
          <mxGeometry y="47" width="160" height="22" as="geometry" />
        </mxCell>
        <mxCell id="D8zbSiBJ9EzXnrRQjWzC-6002" value="" style="shape=partialRectangle;connectable=0;fillColor=none;top=0;left=0;bottom=0;right=0;align=left;spacingLeft=2;overflow=hidden;fontSize=11;" parent="D8zbSiBJ9EzXnrRQjWzC-6001" vertex="1">
          <mxGeometry width="42" height="22" as="geometry">
            <mxRectangle width="42" height="22" as="alternateBounds" />
          </mxGeometry>
        </mxCell>
        <mxCell id="D8zbSiBJ9EzXnrRQjWzC-6003" value="Position" style="shape=partialRectangle;connectable=0;fillColor=#f5f5f5;top=0;left=0;bottom=0;right=0;align=left;spacingLeft=2;overflow=hidden;fontSize=11;fontColor=#333333;strokeColor=#666666;" parent="D8zbSiBJ9EzXnrRQjWzC-6001" vertex="1">
          <mxGeometry x="42" width="118" height="22" as="geometry">
            <mxRectangle width="118" height="22" as="alternateBounds" />
          </mxGeometry>
        </mxCell>
        <mxCell id="D8zbSiBJ9EzXnrRQjWzC-6004" style="shape=tableRow;horizontal=0;startSize=0;swimlaneHead=0;swimlaneBody=0;fillColor=none;collapsible=0;dropTarget=0;points=[[0,0.5],[1,0.5]];portConstraint=eastwest;top=0;left=0;right=0;bottom=0;" parent="D8zbSiBJ9EzXnrRQjWzC-5997" vertex="1">
          <mxGeometry y="69" width="160" height="22" as="geometry" />
        </mxCell>
        <mxCell id="D8zbSiBJ9EzXnrRQjWzC-6005" value="" style="shape=partialRectangle;connectable=0;fillColor=none;top=0;left=0;bottom=0;right=0;align=left;spacingLeft=2;overflow=hidden;fontSize=11;" parent="D8zbSiBJ9EzXnrRQjWzC-6004" vertex="1">
          <mxGeometry width="42" height="22" as="geometry">
            <mxRectangle width="42" height="22" as="alternateBounds" />
          </mxGeometry>
        </mxCell>
        <mxCell id="D8zbSiBJ9EzXnrRQjWzC-6006" value="EmploymentStatus" style="shape=partialRectangle;connectable=0;fillColor=#f5f5f5;top=0;left=0;bottom=0;right=0;align=left;spacingLeft=2;overflow=hidden;fontSize=11;fontColor=#333333;strokeColor=#666666;" parent="D8zbSiBJ9EzXnrRQjWzC-6004" vertex="1">
          <mxGeometry x="42" width="118" height="22" as="geometry">
            <mxRectangle width="118" height="22" as="alternateBounds" />
          </mxGeometry>
        </mxCell>
        <mxCell id="D8zbSiBJ9EzXnrRQjWzC-6007" value="EmployeeSchedule" style="shape=table;startSize=25;container=1;collapsible=0;childLayout=tableLayout;fixedRows=1;rowLines=1;fontStyle=1;align=center;resizeLast=1;fillColor=#dae8fc;strokeColor=#6c8ebf;" parent="1" vertex="1">
          <mxGeometry x="3197" y="8462" width="132" height="157" as="geometry" />
        </mxCell>
        <mxCell id="D8zbSiBJ9EzXnrRQjWzC-6008" style="shape=tableRow;horizontal=0;startSize=0;swimlaneHead=0;swimlaneBody=0;fillColor=none;collapsible=0;dropTarget=0;points=[[0,0.5],[1,0.5]];portConstraint=eastwest;top=0;left=0;right=0;bottom=0;" parent="D8zbSiBJ9EzXnrRQjWzC-6007" vertex="1">
          <mxGeometry y="25" width="132" height="22" as="geometry" />
        </mxCell>
        <mxCell id="D8zbSiBJ9EzXnrRQjWzC-6009" value="PK" style="shape=partialRectangle;connectable=0;fillColor=none;top=0;left=0;bottom=0;right=0;align=left;spacingLeft=2;overflow=hidden;fontSize=11;fontStyle=1" parent="D8zbSiBJ9EzXnrRQjWzC-6008" vertex="1">
          <mxGeometry width="48" height="22" as="geometry">
            <mxRectangle width="48" height="22" as="alternateBounds" />
          </mxGeometry>
        </mxCell>
        <mxCell id="D8zbSiBJ9EzXnrRQjWzC-6010" value="ScheduleID" style="shape=partialRectangle;connectable=0;fillColor=#f5f5f5;top=0;left=0;bottom=0;right=0;align=left;spacingLeft=2;overflow=hidden;fontSize=11;fontStyle=5;fontColor=#333333;strokeColor=#666666;" parent="D8zbSiBJ9EzXnrRQjWzC-6008" vertex="1">
          <mxGeometry x="48" width="84" height="22" as="geometry">
            <mxRectangle width="84" height="22" as="alternateBounds" />
          </mxGeometry>
        </mxCell>
        <mxCell id="D8zbSiBJ9EzXnrRQjWzC-6011" style="shape=tableRow;horizontal=0;startSize=0;swimlaneHead=0;swimlaneBody=0;fillColor=none;collapsible=0;dropTarget=0;points=[[0,0.5],[1,0.5]];portConstraint=eastwest;top=0;left=0;right=0;bottom=0;" parent="D8zbSiBJ9EzXnrRQjWzC-6007" vertex="1">
          <mxGeometry y="47" width="132" height="22" as="geometry" />
        </mxCell>
        <mxCell id="D8zbSiBJ9EzXnrRQjWzC-6012" value="FK" style="shape=partialRectangle;connectable=0;fillColor=none;top=0;left=0;bottom=0;right=0;align=left;spacingLeft=2;overflow=hidden;fontSize=11;fontStyle=1" parent="D8zbSiBJ9EzXnrRQjWzC-6011" vertex="1">
          <mxGeometry width="48" height="22" as="geometry">
            <mxRectangle width="48" height="22" as="alternateBounds" />
          </mxGeometry>
        </mxCell>
        <mxCell id="D8zbSiBJ9EzXnrRQjWzC-6013" value="UserID" style="shape=partialRectangle;connectable=0;fillColor=#f5f5f5;top=0;left=0;bottom=0;right=0;align=left;spacingLeft=2;overflow=hidden;fontSize=11;fontColor=#333333;strokeColor=#666666;" parent="D8zbSiBJ9EzXnrRQjWzC-6011" vertex="1">
          <mxGeometry x="48" width="84" height="22" as="geometry">
            <mxRectangle width="84" height="22" as="alternateBounds" />
          </mxGeometry>
        </mxCell>
        <mxCell id="D8zbSiBJ9EzXnrRQjWzC-6014" style="shape=tableRow;horizontal=0;startSize=0;swimlaneHead=0;swimlaneBody=0;fillColor=none;collapsible=0;dropTarget=0;points=[[0,0.5],[1,0.5]];portConstraint=eastwest;top=0;left=0;right=0;bottom=0;" parent="D8zbSiBJ9EzXnrRQjWzC-6007" vertex="1">
          <mxGeometry y="69" width="132" height="22" as="geometry" />
        </mxCell>
        <mxCell id="D8zbSiBJ9EzXnrRQjWzC-6015" value="" style="shape=partialRectangle;connectable=0;fillColor=none;top=0;left=0;bottom=0;right=0;align=left;spacingLeft=2;overflow=hidden;fontSize=11;" parent="D8zbSiBJ9EzXnrRQjWzC-6014" vertex="1">
          <mxGeometry width="48" height="22" as="geometry">
            <mxRectangle width="48" height="22" as="alternateBounds" />
          </mxGeometry>
        </mxCell>
        <mxCell id="D8zbSiBJ9EzXnrRQjWzC-6016" value="ShiftDate" style="shape=partialRectangle;connectable=0;fillColor=#f5f5f5;top=0;left=0;bottom=0;right=0;align=left;spacingLeft=2;overflow=hidden;fontSize=11;fontColor=#333333;strokeColor=#666666;" parent="D8zbSiBJ9EzXnrRQjWzC-6014" vertex="1">
          <mxGeometry x="48" width="84" height="22" as="geometry">
            <mxRectangle width="84" height="22" as="alternateBounds" />
          </mxGeometry>
        </mxCell>
        <mxCell id="D8zbSiBJ9EzXnrRQjWzC-6017" style="shape=tableRow;horizontal=0;startSize=0;swimlaneHead=0;swimlaneBody=0;fillColor=none;collapsible=0;dropTarget=0;points=[[0,0.5],[1,0.5]];portConstraint=eastwest;top=0;left=0;right=0;bottom=0;" parent="D8zbSiBJ9EzXnrRQjWzC-6007" vertex="1">
          <mxGeometry y="91" width="132" height="22" as="geometry" />
        </mxCell>
        <mxCell id="D8zbSiBJ9EzXnrRQjWzC-6018" value="" style="shape=partialRectangle;connectable=0;fillColor=none;top=0;left=0;bottom=0;right=0;align=left;spacingLeft=2;overflow=hidden;fontSize=11;" parent="D8zbSiBJ9EzXnrRQjWzC-6017" vertex="1">
          <mxGeometry width="48" height="22" as="geometry">
            <mxRectangle width="48" height="22" as="alternateBounds" />
          </mxGeometry>
        </mxCell>
        <mxCell id="D8zbSiBJ9EzXnrRQjWzC-6019" value="StartTime" style="shape=partialRectangle;connectable=0;fillColor=#f5f5f5;top=0;left=0;bottom=0;right=0;align=left;spacingLeft=2;overflow=hidden;fontSize=11;fontColor=#333333;strokeColor=#666666;" parent="D8zbSiBJ9EzXnrRQjWzC-6017" vertex="1">
          <mxGeometry x="48" width="84" height="22" as="geometry">
            <mxRectangle width="84" height="22" as="alternateBounds" />
          </mxGeometry>
        </mxCell>
        <mxCell id="D8zbSiBJ9EzXnrRQjWzC-6020" style="shape=tableRow;horizontal=0;startSize=0;swimlaneHead=0;swimlaneBody=0;fillColor=none;collapsible=0;dropTarget=0;points=[[0,0.5],[1,0.5]];portConstraint=eastwest;top=0;left=0;right=0;bottom=0;" parent="D8zbSiBJ9EzXnrRQjWzC-6007" vertex="1">
          <mxGeometry y="113" width="132" height="22" as="geometry" />
        </mxCell>
        <mxCell id="D8zbSiBJ9EzXnrRQjWzC-6021" value="" style="shape=partialRectangle;connectable=0;fillColor=none;top=0;left=0;bottom=0;right=0;align=left;spacingLeft=2;overflow=hidden;fontSize=11;" parent="D8zbSiBJ9EzXnrRQjWzC-6020" vertex="1">
          <mxGeometry width="48" height="22" as="geometry">
            <mxRectangle width="48" height="22" as="alternateBounds" />
          </mxGeometry>
        </mxCell>
        <mxCell id="D8zbSiBJ9EzXnrRQjWzC-6022" value="EndTime" style="shape=partialRectangle;connectable=0;fillColor=#f5f5f5;top=0;left=0;bottom=0;right=0;align=left;spacingLeft=2;overflow=hidden;fontSize=11;fontColor=#333333;strokeColor=#666666;" parent="D8zbSiBJ9EzXnrRQjWzC-6020" vertex="1">
          <mxGeometry x="48" width="84" height="22" as="geometry">
            <mxRectangle width="84" height="22" as="alternateBounds" />
          </mxGeometry>
        </mxCell>
        <mxCell id="D8zbSiBJ9EzXnrRQjWzC-6023" style="shape=tableRow;horizontal=0;startSize=0;swimlaneHead=0;swimlaneBody=0;fillColor=none;collapsible=0;dropTarget=0;points=[[0,0.5],[1,0.5]];portConstraint=eastwest;top=0;left=0;right=0;bottom=0;" parent="D8zbSiBJ9EzXnrRQjWzC-6007" vertex="1">
          <mxGeometry y="135" width="132" height="22" as="geometry" />
        </mxCell>
        <mxCell id="D8zbSiBJ9EzXnrRQjWzC-6024" value="" style="shape=partialRectangle;connectable=0;fillColor=none;top=0;left=0;bottom=0;right=0;align=left;spacingLeft=2;overflow=hidden;fontSize=11;" parent="D8zbSiBJ9EzXnrRQjWzC-6023" vertex="1">
          <mxGeometry width="48" height="22" as="geometry">
            <mxRectangle width="48" height="22" as="alternateBounds" />
          </mxGeometry>
        </mxCell>
        <mxCell id="D8zbSiBJ9EzXnrRQjWzC-6025" value="ScheduleStatus" style="shape=partialRectangle;connectable=0;fillColor=#f5f5f5;top=0;left=0;bottom=0;right=0;align=left;spacingLeft=2;overflow=hidden;fontSize=11;fontColor=#333333;strokeColor=#666666;" parent="D8zbSiBJ9EzXnrRQjWzC-6023" vertex="1">
          <mxGeometry x="48" width="84" height="22" as="geometry">
            <mxRectangle width="84" height="22" as="alternateBounds" />
          </mxGeometry>
        </mxCell>
        <mxCell id="D8zbSiBJ9EzXnrRQjWzC-6026" value="Shift" style="shape=table;startSize=25;container=1;collapsible=0;childLayout=tableLayout;fixedRows=1;rowLines=1;fontStyle=1;align=center;resizeLast=1;fillColor=#dae8fc;strokeColor=#6c8ebf;" parent="1" vertex="1">
          <mxGeometry x="3140" y="8718" width="132" height="157" as="geometry" />
        </mxCell>
        <mxCell id="D8zbSiBJ9EzXnrRQjWzC-6027" style="shape=tableRow;horizontal=0;startSize=0;swimlaneHead=0;swimlaneBody=0;fillColor=none;collapsible=0;dropTarget=0;points=[[0,0.5],[1,0.5]];portConstraint=eastwest;top=0;left=0;right=0;bottom=0;" parent="D8zbSiBJ9EzXnrRQjWzC-6026" vertex="1">
          <mxGeometry y="25" width="132" height="22" as="geometry" />
        </mxCell>
        <mxCell id="D8zbSiBJ9EzXnrRQjWzC-6028" value="PK" style="shape=partialRectangle;connectable=0;fillColor=none;top=0;left=0;bottom=0;right=0;align=left;spacingLeft=2;overflow=hidden;fontSize=11;fontStyle=1" parent="D8zbSiBJ9EzXnrRQjWzC-6027" vertex="1">
          <mxGeometry width="48" height="22" as="geometry">
            <mxRectangle width="48" height="22" as="alternateBounds" />
          </mxGeometry>
        </mxCell>
        <mxCell id="D8zbSiBJ9EzXnrRQjWzC-6029" value="ShiftID" style="shape=partialRectangle;connectable=0;fillColor=#f5f5f5;top=0;left=0;bottom=0;right=0;align=left;spacingLeft=2;overflow=hidden;fontSize=11;fontStyle=5;fontColor=#333333;strokeColor=#666666;" parent="D8zbSiBJ9EzXnrRQjWzC-6027" vertex="1">
          <mxGeometry x="48" width="84" height="22" as="geometry">
            <mxRectangle width="84" height="22" as="alternateBounds" />
          </mxGeometry>
        </mxCell>
        <mxCell id="D8zbSiBJ9EzXnrRQjWzC-6030" style="shape=tableRow;horizontal=0;startSize=0;swimlaneHead=0;swimlaneBody=0;fillColor=none;collapsible=0;dropTarget=0;points=[[0,0.5],[1,0.5]];portConstraint=eastwest;top=0;left=0;right=0;bottom=0;" parent="D8zbSiBJ9EzXnrRQjWzC-6026" vertex="1">
          <mxGeometry y="47" width="132" height="22" as="geometry" />
        </mxCell>
        <mxCell id="D8zbSiBJ9EzXnrRQjWzC-6031" value="FK" style="shape=partialRectangle;connectable=0;fillColor=none;top=0;left=0;bottom=0;right=0;align=left;spacingLeft=2;overflow=hidden;fontSize=11;fontStyle=1" parent="D8zbSiBJ9EzXnrRQjWzC-6030" vertex="1">
          <mxGeometry width="48" height="22" as="geometry">
            <mxRectangle width="48" height="22" as="alternateBounds" />
          </mxGeometry>
        </mxCell>
        <mxCell id="D8zbSiBJ9EzXnrRQjWzC-6032" value="ScheduleID" style="shape=partialRectangle;connectable=0;fillColor=#f5f5f5;top=0;left=0;bottom=0;right=0;align=left;spacingLeft=2;overflow=hidden;fontSize=11;fontColor=#333333;strokeColor=#666666;" parent="D8zbSiBJ9EzXnrRQjWzC-6030" vertex="1">
          <mxGeometry x="48" width="84" height="22" as="geometry">
            <mxRectangle width="84" height="22" as="alternateBounds" />
          </mxGeometry>
        </mxCell>
        <mxCell id="D8zbSiBJ9EzXnrRQjWzC-6033" style="shape=tableRow;horizontal=0;startSize=0;swimlaneHead=0;swimlaneBody=0;fillColor=none;collapsible=0;dropTarget=0;points=[[0,0.5],[1,0.5]];portConstraint=eastwest;top=0;left=0;right=0;bottom=0;" parent="D8zbSiBJ9EzXnrRQjWzC-6026" vertex="1">
          <mxGeometry y="69" width="132" height="22" as="geometry" />
        </mxCell>
        <mxCell id="D8zbSiBJ9EzXnrRQjWzC-6034" value="" style="shape=partialRectangle;connectable=0;fillColor=none;top=0;left=0;bottom=0;right=0;align=left;spacingLeft=2;overflow=hidden;fontSize=11;" parent="D8zbSiBJ9EzXnrRQjWzC-6033" vertex="1">
          <mxGeometry width="48" height="22" as="geometry">
            <mxRectangle width="48" height="22" as="alternateBounds" />
          </mxGeometry>
        </mxCell>
        <mxCell id="D8zbSiBJ9EzXnrRQjWzC-6035" value="ShiftType" style="shape=partialRectangle;connectable=0;fillColor=#f5f5f5;top=0;left=0;bottom=0;right=0;align=left;spacingLeft=2;overflow=hidden;fontSize=11;fontColor=#333333;strokeColor=#666666;" parent="D8zbSiBJ9EzXnrRQjWzC-6033" vertex="1">
          <mxGeometry x="48" width="84" height="22" as="geometry">
            <mxRectangle width="84" height="22" as="alternateBounds" />
          </mxGeometry>
        </mxCell>
        <mxCell id="D8zbSiBJ9EzXnrRQjWzC-6036" style="shape=tableRow;horizontal=0;startSize=0;swimlaneHead=0;swimlaneBody=0;fillColor=none;collapsible=0;dropTarget=0;points=[[0,0.5],[1,0.5]];portConstraint=eastwest;top=0;left=0;right=0;bottom=0;" parent="D8zbSiBJ9EzXnrRQjWzC-6026" vertex="1">
          <mxGeometry y="91" width="132" height="22" as="geometry" />
        </mxCell>
        <mxCell id="D8zbSiBJ9EzXnrRQjWzC-6037" value="" style="shape=partialRectangle;connectable=0;fillColor=none;top=0;left=0;bottom=0;right=0;align=left;spacingLeft=2;overflow=hidden;fontSize=11;" parent="D8zbSiBJ9EzXnrRQjWzC-6036" vertex="1">
          <mxGeometry width="48" height="22" as="geometry">
            <mxRectangle width="48" height="22" as="alternateBounds" />
          </mxGeometry>
        </mxCell>
        <mxCell id="D8zbSiBJ9EzXnrRQjWzC-6038" value="ShiftStartTime" style="shape=partialRectangle;connectable=0;fillColor=#f5f5f5;top=0;left=0;bottom=0;right=0;align=left;spacingLeft=2;overflow=hidden;fontSize=11;fontColor=#333333;strokeColor=#666666;" parent="D8zbSiBJ9EzXnrRQjWzC-6036" vertex="1">
          <mxGeometry x="48" width="84" height="22" as="geometry">
            <mxRectangle width="84" height="22" as="alternateBounds" />
          </mxGeometry>
        </mxCell>
        <mxCell id="D8zbSiBJ9EzXnrRQjWzC-6039" style="shape=tableRow;horizontal=0;startSize=0;swimlaneHead=0;swimlaneBody=0;fillColor=none;collapsible=0;dropTarget=0;points=[[0,0.5],[1,0.5]];portConstraint=eastwest;top=0;left=0;right=0;bottom=0;" parent="D8zbSiBJ9EzXnrRQjWzC-6026" vertex="1">
          <mxGeometry y="113" width="132" height="22" as="geometry" />
        </mxCell>
        <mxCell id="D8zbSiBJ9EzXnrRQjWzC-6040" value="" style="shape=partialRectangle;connectable=0;fillColor=none;top=0;left=0;bottom=0;right=0;align=left;spacingLeft=2;overflow=hidden;fontSize=11;" parent="D8zbSiBJ9EzXnrRQjWzC-6039" vertex="1">
          <mxGeometry width="48" height="22" as="geometry">
            <mxRectangle width="48" height="22" as="alternateBounds" />
          </mxGeometry>
        </mxCell>
        <mxCell id="D8zbSiBJ9EzXnrRQjWzC-6041" value="ShiftEndTime" style="shape=partialRectangle;connectable=0;fillColor=#f5f5f5;top=0;left=0;bottom=0;right=0;align=left;spacingLeft=2;overflow=hidden;fontSize=11;fontColor=#333333;strokeColor=#666666;" parent="D8zbSiBJ9EzXnrRQjWzC-6039" vertex="1">
          <mxGeometry x="48" width="84" height="22" as="geometry">
            <mxRectangle width="84" height="22" as="alternateBounds" />
          </mxGeometry>
        </mxCell>
        <mxCell id="D8zbSiBJ9EzXnrRQjWzC-6042" style="shape=tableRow;horizontal=0;startSize=0;swimlaneHead=0;swimlaneBody=0;fillColor=none;collapsible=0;dropTarget=0;points=[[0,0.5],[1,0.5]];portConstraint=eastwest;top=0;left=0;right=0;bottom=0;" parent="D8zbSiBJ9EzXnrRQjWzC-6026" vertex="1">
          <mxGeometry y="135" width="132" height="22" as="geometry" />
        </mxCell>
        <mxCell id="D8zbSiBJ9EzXnrRQjWzC-6043" value="" style="shape=partialRectangle;connectable=0;fillColor=none;top=0;left=0;bottom=0;right=0;align=left;spacingLeft=2;overflow=hidden;fontSize=11;" parent="D8zbSiBJ9EzXnrRQjWzC-6042" vertex="1">
          <mxGeometry width="48" height="22" as="geometry">
            <mxRectangle width="48" height="22" as="alternateBounds" />
          </mxGeometry>
        </mxCell>
        <mxCell id="D8zbSiBJ9EzXnrRQjWzC-6044" value="ShiftStatus" style="shape=partialRectangle;connectable=0;fillColor=#f5f5f5;top=0;left=0;bottom=0;right=0;align=left;spacingLeft=2;overflow=hidden;fontSize=11;fontColor=#333333;strokeColor=#666666;" parent="D8zbSiBJ9EzXnrRQjWzC-6042" vertex="1">
          <mxGeometry x="48" width="84" height="22" as="geometry">
            <mxRectangle width="84" height="22" as="alternateBounds" />
          </mxGeometry>
        </mxCell>
        <mxCell id="D8zbSiBJ9EzXnrRQjWzC-6045" value="Cashier" style="shape=table;startSize=25;container=1;collapsible=0;childLayout=tableLayout;fixedRows=1;rowLines=1;fontStyle=1;align=center;resizeLast=1;fillColor=#dae8fc;strokeColor=#6c8ebf;" parent="1" vertex="1">
          <mxGeometry x="2320" y="8272" width="150" height="91" as="geometry" />
        </mxCell>
        <mxCell id="D8zbSiBJ9EzXnrRQjWzC-6046" style="shape=tableRow;horizontal=0;startSize=0;swimlaneHead=0;swimlaneBody=0;fillColor=none;collapsible=0;dropTarget=0;points=[[0,0.5],[1,0.5]];portConstraint=eastwest;top=0;left=0;right=0;bottom=0;" parent="D8zbSiBJ9EzXnrRQjWzC-6045" vertex="1">
          <mxGeometry y="25" width="150" height="22" as="geometry" />
        </mxCell>
        <mxCell id="D8zbSiBJ9EzXnrRQjWzC-6047" value="FK" style="shape=partialRectangle;connectable=0;fillColor=none;top=0;left=0;bottom=0;right=0;align=left;spacingLeft=2;overflow=hidden;fontSize=11;fontStyle=1" parent="D8zbSiBJ9EzXnrRQjWzC-6046" vertex="1">
          <mxGeometry width="42" height="22" as="geometry">
            <mxRectangle width="42" height="22" as="alternateBounds" />
          </mxGeometry>
        </mxCell>
        <mxCell id="D8zbSiBJ9EzXnrRQjWzC-6048" value="UserID" style="shape=partialRectangle;connectable=0;fillColor=none;top=0;left=0;bottom=0;right=0;align=left;spacingLeft=2;overflow=hidden;fontSize=11;" parent="D8zbSiBJ9EzXnrRQjWzC-6046" vertex="1">
          <mxGeometry x="42" width="108" height="22" as="geometry">
            <mxRectangle width="108" height="22" as="alternateBounds" />
          </mxGeometry>
        </mxCell>
        <mxCell id="D8zbSiBJ9EzXnrRQjWzC-6049" style="shape=tableRow;horizontal=0;startSize=0;swimlaneHead=0;swimlaneBody=0;fillColor=none;collapsible=0;dropTarget=0;points=[[0,0.5],[1,0.5]];portConstraint=eastwest;top=0;left=0;right=0;bottom=0;" parent="D8zbSiBJ9EzXnrRQjWzC-6045" vertex="1">
          <mxGeometry y="47" width="150" height="22" as="geometry" />
        </mxCell>
        <mxCell id="D8zbSiBJ9EzXnrRQjWzC-6050" value="" style="shape=partialRectangle;connectable=0;fillColor=none;top=0;left=0;bottom=0;right=0;align=left;spacingLeft=2;overflow=hidden;fontSize=11;" parent="D8zbSiBJ9EzXnrRQjWzC-6049" vertex="1">
          <mxGeometry width="42" height="22" as="geometry">
            <mxRectangle width="42" height="22" as="alternateBounds" />
          </mxGeometry>
        </mxCell>
        <mxCell id="D8zbSiBJ9EzXnrRQjWzC-6051" value="RegisterNumber" style="shape=partialRectangle;connectable=0;fillColor=none;top=0;left=0;bottom=0;right=0;align=left;spacingLeft=2;overflow=hidden;fontSize=11;" parent="D8zbSiBJ9EzXnrRQjWzC-6049" vertex="1">
          <mxGeometry x="42" width="108" height="22" as="geometry">
            <mxRectangle width="108" height="22" as="alternateBounds" />
          </mxGeometry>
        </mxCell>
        <mxCell id="D8zbSiBJ9EzXnrRQjWzC-6052" style="shape=tableRow;horizontal=0;startSize=0;swimlaneHead=0;swimlaneBody=0;fillColor=none;collapsible=0;dropTarget=0;points=[[0,0.5],[1,0.5]];portConstraint=eastwest;top=0;left=0;right=0;bottom=0;" parent="D8zbSiBJ9EzXnrRQjWzC-6045" vertex="1">
          <mxGeometry y="69" width="150" height="22" as="geometry" />
        </mxCell>
        <mxCell id="D8zbSiBJ9EzXnrRQjWzC-6053" value="" style="shape=partialRectangle;connectable=0;fillColor=none;top=0;left=0;bottom=0;right=0;align=left;spacingLeft=2;overflow=hidden;fontSize=11;" parent="D8zbSiBJ9EzXnrRQjWzC-6052" vertex="1">
          <mxGeometry width="42" height="22" as="geometry">
            <mxRectangle width="42" height="22" as="alternateBounds" />
          </mxGeometry>
        </mxCell>
        <mxCell id="D8zbSiBJ9EzXnrRQjWzC-6054" value="ShiftType" style="shape=partialRectangle;connectable=0;fillColor=none;top=0;left=0;bottom=0;right=0;align=left;spacingLeft=2;overflow=hidden;fontSize=11;" parent="D8zbSiBJ9EzXnrRQjWzC-6052" vertex="1">
          <mxGeometry x="42" width="108" height="22" as="geometry">
            <mxRectangle width="108" height="22" as="alternateBounds" />
          </mxGeometry>
        </mxCell>
        <mxCell id="D8zbSiBJ9EzXnrRQjWzC-6055" value="PaymentMethod" style="shape=table;startSize=25;container=1;collapsible=0;childLayout=tableLayout;fixedRows=1;rowLines=1;fontStyle=1;align=center;resizeLast=1;fillColor=#dae8fc;strokeColor=#6c8ebf;" parent="1" vertex="1">
          <mxGeometry x="2621" y="8751" width="159" height="91" as="geometry" />
        </mxCell>
        <mxCell id="D8zbSiBJ9EzXnrRQjWzC-6056" style="shape=tableRow;horizontal=0;startSize=0;swimlaneHead=0;swimlaneBody=0;fillColor=none;collapsible=0;dropTarget=0;points=[[0,0.5],[1,0.5]];portConstraint=eastwest;top=0;left=0;right=0;bottom=0;" parent="D8zbSiBJ9EzXnrRQjWzC-6055" vertex="1">
          <mxGeometry y="25" width="159" height="22" as="geometry" />
        </mxCell>
        <mxCell id="D8zbSiBJ9EzXnrRQjWzC-6057" value="PK" style="shape=partialRectangle;connectable=0;fillColor=none;top=0;left=0;bottom=0;right=0;align=left;spacingLeft=2;overflow=hidden;fontSize=11;fontStyle=1" parent="D8zbSiBJ9EzXnrRQjWzC-6056" vertex="1">
          <mxGeometry width="42" height="22" as="geometry">
            <mxRectangle width="42" height="22" as="alternateBounds" />
          </mxGeometry>
        </mxCell>
        <mxCell id="D8zbSiBJ9EzXnrRQjWzC-6058" value="PaymentMethodID" style="shape=partialRectangle;connectable=0;fillColor=#f5f5f5;top=0;left=0;bottom=0;right=0;align=left;spacingLeft=2;overflow=hidden;fontSize=11;fontStyle=5;fontColor=#333333;strokeColor=#666666;" parent="D8zbSiBJ9EzXnrRQjWzC-6056" vertex="1">
          <mxGeometry x="42" width="117" height="22" as="geometry">
            <mxRectangle width="117" height="22" as="alternateBounds" />
          </mxGeometry>
        </mxCell>
        <mxCell id="D8zbSiBJ9EzXnrRQjWzC-6059" style="shape=tableRow;horizontal=0;startSize=0;swimlaneHead=0;swimlaneBody=0;fillColor=none;collapsible=0;dropTarget=0;points=[[0,0.5],[1,0.5]];portConstraint=eastwest;top=0;left=0;right=0;bottom=0;" parent="D8zbSiBJ9EzXnrRQjWzC-6055" vertex="1">
          <mxGeometry y="47" width="159" height="22" as="geometry" />
        </mxCell>
        <mxCell id="D8zbSiBJ9EzXnrRQjWzC-6060" value="" style="shape=partialRectangle;connectable=0;fillColor=none;top=0;left=0;bottom=0;right=0;align=left;spacingLeft=2;overflow=hidden;fontSize=11;" parent="D8zbSiBJ9EzXnrRQjWzC-6059" vertex="1">
          <mxGeometry width="42" height="22" as="geometry">
            <mxRectangle width="42" height="22" as="alternateBounds" />
          </mxGeometry>
        </mxCell>
        <mxCell id="D8zbSiBJ9EzXnrRQjWzC-6061" value="MethodName" style="shape=partialRectangle;connectable=0;fillColor=#f5f5f5;top=0;left=0;bottom=0;right=0;align=left;spacingLeft=2;overflow=hidden;fontSize=11;fontColor=#333333;strokeColor=#666666;" parent="D8zbSiBJ9EzXnrRQjWzC-6059" vertex="1">
          <mxGeometry x="42" width="117" height="22" as="geometry">
            <mxRectangle width="117" height="22" as="alternateBounds" />
          </mxGeometry>
        </mxCell>
        <mxCell id="D8zbSiBJ9EzXnrRQjWzC-6062" style="shape=tableRow;horizontal=0;startSize=0;swimlaneHead=0;swimlaneBody=0;fillColor=none;collapsible=0;dropTarget=0;points=[[0,0.5],[1,0.5]];portConstraint=eastwest;top=0;left=0;right=0;bottom=0;" parent="D8zbSiBJ9EzXnrRQjWzC-6055" vertex="1">
          <mxGeometry y="69" width="159" height="22" as="geometry" />
        </mxCell>
        <mxCell id="D8zbSiBJ9EzXnrRQjWzC-6063" value="" style="shape=partialRectangle;connectable=0;fillColor=none;top=0;left=0;bottom=0;right=0;align=left;spacingLeft=2;overflow=hidden;fontSize=11;" parent="D8zbSiBJ9EzXnrRQjWzC-6062" vertex="1">
          <mxGeometry width="42" height="22" as="geometry">
            <mxRectangle width="42" height="22" as="alternateBounds" />
          </mxGeometry>
        </mxCell>
        <mxCell id="D8zbSiBJ9EzXnrRQjWzC-6064" value="Description" style="shape=partialRectangle;connectable=0;fillColor=#f5f5f5;top=0;left=0;bottom=0;right=0;align=left;spacingLeft=2;overflow=hidden;fontSize=11;fontColor=#333333;strokeColor=#666666;" parent="D8zbSiBJ9EzXnrRQjWzC-6062" vertex="1">
          <mxGeometry x="42" width="117" height="22" as="geometry">
            <mxRectangle width="117" height="22" as="alternateBounds" />
          </mxGeometry>
        </mxCell>
        <mxCell id="D8zbSiBJ9EzXnrRQjWzC-6065" value="includes" style="curved=0;startArrow=ERmandOne;startSize=10;;endArrow=ERmany;endSize=10;;exitX=0.176;exitY=-0.007;entryX=0.20351785720221696;entryY=0.0012820806258764022;rounded=0;exitDx=0;exitDy=0;exitPerimeter=0;" parent="1" source="D8zbSiBJ9EzXnrRQjWzC-5739" target="D8zbSiBJ9EzXnrRQjWzC-5761" edge="1">
          <mxGeometry relative="1" as="geometry">
            <Array as="points">
              <mxPoint x="2420" y="7200" />
              <mxPoint x="1297" y="7200" />
            </Array>
          </mxGeometry>
        </mxCell>
        <mxCell id="D8zbSiBJ9EzXnrRQjWzC-6066" value="triggers" style="curved=0;startArrow=ERmandOne;startSize=10;;endArrow=ERmany;endSize=10;;exitX=0.009;exitY=-0.017;entryX=0.994;entryY=0.08;rounded=0;exitDx=0;exitDy=0;exitPerimeter=0;entryDx=0;entryDy=0;entryPerimeter=0;" parent="1" source="D8zbSiBJ9EzXnrRQjWzC-5746" target="D8zbSiBJ9EzXnrRQjWzC-5787" edge="1">
          <mxGeometry relative="1" as="geometry">
            <Array as="points">
              <mxPoint x="2090" y="7510" />
              <mxPoint x="2090" y="7790" />
            </Array>
          </mxGeometry>
        </mxCell>
        <mxCell id="D8zbSiBJ9EzXnrRQjWzC-6068" value="is paid with" style="curved=0;startArrow=ERmandOne;startSize=10;;endArrow=ERmany;endSize=10;;exitX=0.0029054121537642045;exitY=0.6634579093542702;entryX=0.00007184346516927083;entryY=0.38274401737956437;rounded=0;" parent="1" source="D8zbSiBJ9EzXnrRQjWzC-5739" target="D8zbSiBJ9EzXnrRQjWzC-5818" edge="1">
          <mxGeometry relative="1" as="geometry">
            <Array as="points">
              <mxPoint x="2270" y="7560" />
              <mxPoint x="2280" y="8522" />
            </Array>
          </mxGeometry>
        </mxCell>
        <mxCell id="D8zbSiBJ9EzXnrRQjWzC-6069" value="receives" style="curved=0;startArrow=ERmandOne;startSize=10;;endArrow=ERmany;endSize=10;;exitX=0.0029054121537642045;exitY=0.5382586230205011;entryX=0.14961858849437493;entryY=9.781275040064102e-8;rounded=0;" parent="1" source="D8zbSiBJ9EzXnrRQjWzC-5739" target="D8zbSiBJ9EzXnrRQjWzC-5837" edge="1">
          <mxGeometry relative="1" as="geometry">
            <Array as="points">
              <mxPoint x="2170" y="7536" />
              <mxPoint x="2170" y="7680" />
              <mxPoint x="1360" y="7680" />
            </Array>
          </mxGeometry>
        </mxCell>
        <mxCell id="D8zbSiBJ9EzXnrRQjWzC-6070" value="is placed by" style="curved=0;startArrow=ERmandOne;startSize=10;;endArrow=ERmany;endSize=10;;exitX=0;exitY=0.5;entryX=0.362;entryY=0.005;rounded=0;exitDx=0;exitDy=0;entryDx=0;entryDy=0;entryPerimeter=0;" parent="1" source="D8zbSiBJ9EzXnrRQjWzC-5740" target="D8zbSiBJ9EzXnrRQjWzC-5856" edge="1">
          <mxGeometry relative="1" as="geometry">
            <Array as="points">
              <mxPoint x="1964" y="7470" />
            </Array>
          </mxGeometry>
        </mxCell>
        <mxCell id="D8zbSiBJ9EzXnrRQjWzC-6071" value="contains" style="curved=1;startArrow=ERmandOne;startSize=10;;endArrow=ERmany;endSize=10;;exitX=0.49567291026807014;exitY=0.9955555386013455;entryX=0.49567291026807014;entryY=-0.002564112345377604;rounded=0;" parent="1" source="D8zbSiBJ9EzXnrRQjWzC-5881" target="D8zbSiBJ9EzXnrRQjWzC-5891" edge="1">
          <mxGeometry relative="1" as="geometry">
            <Array as="points" />
          </mxGeometry>
        </mxCell>
        <mxCell id="D8zbSiBJ9EzXnrRQjWzC-6072" value="is part of" style="curved=0;startArrow=ERmandOne;startSize=10;;endArrow=ERmany;endSize=10;;exitX=-0.001;exitY=0.327;entryX=1.015;entryY=1.009;rounded=0;entryDx=0;entryDy=0;entryPerimeter=0;exitDx=0;exitDy=0;exitPerimeter=0;" parent="1" source="D8zbSiBJ9EzXnrRQjWzC-5901" target="D8zbSiBJ9EzXnrRQjWzC-5771" edge="1">
          <mxGeometry relative="1" as="geometry">
            <Array as="points" />
          </mxGeometry>
        </mxCell>
        <mxCell id="D8zbSiBJ9EzXnrRQjWzC-6073" value="can have" style="curved=0;startArrow=ERmandOne;startSize=10;;endArrow=ERmany;endSize=10;;rounded=0;exitX=0.5;exitY=0;exitDx=0;exitDy=0;entryX=0.654;entryY=1.055;entryDx=0;entryDy=0;entryPerimeter=0;" parent="1" source="D8zbSiBJ9EzXnrRQjWzC-5799" target="D8zbSiBJ9EzXnrRQjWzC-5777" edge="1">
          <mxGeometry relative="1" as="geometry">
            <Array as="points">
              <mxPoint x="2605" y="7660" />
              <mxPoint x="1350" y="7660" />
            </Array>
            <mxPoint x="2270" y="7740" as="sourcePoint" />
          </mxGeometry>
        </mxCell>
        <mxCell id="D8zbSiBJ9EzXnrRQjWzC-6075" value="is included in" style="curved=0;startArrow=ERmandOne;startSize=10;;endArrow=ERmany;endSize=10;;exitX=0.5;exitY=0;entryX=0.18;entryY=0.015;rounded=0;exitDx=0;exitDy=0;entryDx=0;entryDy=0;entryPerimeter=0;" parent="1" source="D8zbSiBJ9EzXnrRQjWzC-5910" target="D8zbSiBJ9EzXnrRQjWzC-5891" edge="1">
          <mxGeometry relative="1" as="geometry">
            <Array as="points">
              <mxPoint x="845" y="7370" />
              <mxPoint x="1800" y="7370" />
            </Array>
          </mxGeometry>
        </mxCell>
        <mxCell id="D8zbSiBJ9EzXnrRQjWzC-6076" value="places" style="curved=0;startArrow=ERmandOne;startSize=10;;endArrow=ERmany;endSize=10;;exitX=0.6517339752811855;exitY=0.004444630940755209;entryX=0.653;entryY=0.014;rounded=0;entryDx=0;entryDy=0;entryPerimeter=0;" parent="1" source="D8zbSiBJ9EzXnrRQjWzC-5942" target="D8zbSiBJ9EzXnrRQjWzC-5739" edge="1">
          <mxGeometry relative="1" as="geometry">
            <Array as="points">
              <mxPoint x="1120" y="7170" />
              <mxPoint x="2480" y="7170" />
            </Array>
          </mxGeometry>
        </mxCell>
        <mxCell id="D8zbSiBJ9EzXnrRQjWzC-6077" value="provides" style="curved=0;startArrow=ERmandOne;startSize=10;;endArrow=ERmany;endSize=10;;exitX=0.9976585914348733;exitY=0.6684997179593286;entryX=0.9460174344227341;entryY=9.781275040064102e-8;rounded=0;" parent="1" source="D8zbSiBJ9EzXnrRQjWzC-5942" target="D8zbSiBJ9EzXnrRQjWzC-5837" edge="1">
          <mxGeometry relative="1" as="geometry">
            <Array as="points">
              <mxPoint x="1496" y="8340" />
            </Array>
          </mxGeometry>
        </mxCell>
        <mxCell id="D8zbSiBJ9EzXnrRQjWzC-6078" value="receives" style="curved=0;startArrow=ERmandOne;startSize=10;;endArrow=ERmany;endSize=10;;exitX=0.9776469652244836;exitY=0.004444630940755209;entryX=-0.0012789125795717592;entryY=0.6190552340272166;rounded=0;" parent="1" source="D8zbSiBJ9EzXnrRQjWzC-5942" target="D8zbSiBJ9EzXnrRQjWzC-5780" edge="1">
          <mxGeometry relative="1" as="geometry">
            <Array as="points">
              <mxPoint x="1610" y="8272" />
              <mxPoint x="1610" y="7828" />
            </Array>
          </mxGeometry>
        </mxCell>
        <mxCell id="D8zbSiBJ9EzXnrRQjWzC-6079" value="has" style="curved=0;startArrow=ERmandOne;startSize=10;;endArrow=ERmany;endSize=10;;exitX=0.497766034356479;exitY=1.0000001695421008;entryX=-0.002329587936401367;entryY=0.4703740725469116;rounded=0;" parent="1" source="D8zbSiBJ9EzXnrRQjWzC-5942" target="D8zbSiBJ9EzXnrRQjWzC-5952" edge="1">
          <mxGeometry relative="1" as="geometry">
            <Array as="points">
              <mxPoint x="1085" y="9040" />
            </Array>
          </mxGeometry>
        </mxCell>
        <mxCell id="D8zbSiBJ9EzXnrRQjWzC-6080" value="is generated by" style="curved=0;startArrow=ERmandOne;startSize=10;;endArrow=ERmany;endSize=10;;exitX=0.0002605196029420883;exitY=0.8027318812887769;entryX=-0.003501952640593998;entryY=0.22431498271547679;rounded=0;" parent="1" source="D8zbSiBJ9EzXnrRQjWzC-5971" target="D8zbSiBJ9EzXnrRQjWzC-5981" edge="1">
          <mxGeometry relative="1" as="geometry">
            <Array as="points">
              <mxPoint x="1840" y="8363" />
              <mxPoint x="1840" y="8504" />
            </Array>
          </mxGeometry>
        </mxCell>
        <mxCell id="D8zbSiBJ9EzXnrRQjWzC-6081" value="manages" style="curved=0;startArrow=ERmandOne;startSize=10;;endArrow=ERmany;endSize=10;;exitX=0.75;exitY=0;entryX=0.755;entryY=1.066;rounded=0;entryDx=0;entryDy=0;entryPerimeter=0;exitDx=0;exitDy=0;" parent="1" source="D8zbSiBJ9EzXnrRQjWzC-5971" target="D8zbSiBJ9EzXnrRQjWzC-5878" edge="1">
          <mxGeometry relative="1" as="geometry">
            <Array as="points" />
          </mxGeometry>
        </mxCell>
        <mxCell id="D8zbSiBJ9EzXnrRQjWzC-6082" value="has" style="curved=0;startArrow=ERmandOne;startSize=10;;endArrow=ERmany;endSize=10;;exitX=0.804;exitY=1.033;entryX=0.25;entryY=0;rounded=0;entryDx=0;entryDy=0;exitDx=0;exitDy=0;exitPerimeter=0;" parent="1" source="D8zbSiBJ9EzXnrRQjWzC-6004" target="D8zbSiBJ9EzXnrRQjWzC-6007" edge="1">
          <mxGeometry relative="1" as="geometry">
            <Array as="points" />
          </mxGeometry>
        </mxCell>
        <mxCell id="D8zbSiBJ9EzXnrRQjWzC-6083" value="works" style="curved=0;startArrow=ERmandOne;startSize=10;;endArrow=ERmany;endSize=10;;exitX=0.303;exitY=1.03;entryX=0.079;entryY=-0.002;rounded=0;entryDx=0;entryDy=0;entryPerimeter=0;exitDx=0;exitDy=0;exitPerimeter=0;" parent="1" source="D8zbSiBJ9EzXnrRQjWzC-6004" target="D8zbSiBJ9EzXnrRQjWzC-6026" edge="1">
          <mxGeometry relative="1" as="geometry">
            <Array as="points" />
          </mxGeometry>
        </mxCell>
        <mxCell id="D8zbSiBJ9EzXnrRQjWzC-6084" value="has" style="curved=0;startArrow=ERmandOne;startSize=10;;endArrow=ERmany;endSize=10;;exitX=0.0028503093313663563;exitY=0.849009795127659;entryX=0.047799252709173366;entryY=0.0012822273450020032;rounded=0;" parent="1" source="D8zbSiBJ9EzXnrRQjWzC-5997" target="D8zbSiBJ9EzXnrRQjWzC-5952" edge="1">
          <mxGeometry relative="1" as="geometry">
            <Array as="points">
              <mxPoint x="3010" y="8350" />
            </Array>
          </mxGeometry>
        </mxCell>
        <mxCell id="D8zbSiBJ9EzXnrRQjWzC-6085" value="handles" style="curved=0;startArrow=ERmandOne;startSize=10;;endArrow=ERmany;endSize=10;;exitX=0.5005014256913533;exitY=1.0000001695421008;entryX=-0.013;entryY=0.043;rounded=0;entryDx=0;entryDy=0;entryPerimeter=0;" parent="1" source="D8zbSiBJ9EzXnrRQjWzC-6045" target="D8zbSiBJ9EzXnrRQjWzC-5818" edge="1">
          <mxGeometry relative="1" as="geometry">
            <Array as="points">
              <mxPoint x="2395" y="8469" />
            </Array>
          </mxGeometry>
        </mxCell>
        <mxCell id="D8zbSiBJ9EzXnrRQjWzC-6086" value="processes" style="curved=0;startArrow=ERmandOne;startSize=10;;endArrow=ERmany;endSize=10;;entryX=0.2368844343489133;entryY=0.9955056436945883;rounded=0;exitX=0.75;exitY=0;exitDx=0;exitDy=0;" parent="1" source="D8zbSiBJ9EzXnrRQjWzC-6045" target="D8zbSiBJ9EzXnrRQjWzC-5739" edge="1">
          <mxGeometry relative="1" as="geometry">
            <Array as="points" />
          </mxGeometry>
        </mxCell>
        <mxCell id="D8zbSiBJ9EzXnrRQjWzC-6087" value="uses" style="curved=1;startArrow=ERmandOne;startSize=10;;endArrow=ERmany;endSize=10;;exitX=0.49912341435750324;exitY=0.997436034373748;rounded=0;" parent="1" source="D8zbSiBJ9EzXnrRQjWzC-5818" edge="1">
          <mxGeometry relative="1" as="geometry">
            <Array as="points" />
            <mxPoint x="2694" y="8750" as="targetPoint" />
          </mxGeometry>
        </mxCell>
        <mxCell id="D8zbSiBJ9EzXnrRQjWzC-6088" value="relates to" style="curved=0;startArrow=ERmandOne;startSize=10;;endArrow=ERmany;endSize=10;;exitX=0.9981749852498373;exitY=0.16323028380007068;entryX=1.00214676029426;entryY=0.6143183206862914;rounded=0;" parent="1" source="D8zbSiBJ9EzXnrRQjWzC-5818" target="D8zbSiBJ9EzXnrRQjWzC-5739" edge="1">
          <mxGeometry relative="1" as="geometry">
            <Array as="points">
              <mxPoint x="2870" y="8490" />
              <mxPoint x="2870" y="7550" />
            </Array>
          </mxGeometry>
        </mxCell>
        <mxCell id="D8zbSiBJ9EzXnrRQjWzC-6089" value="is given by" style="curved=0;startArrow=ERmandOne;startSize=10;;endArrow=ERmany;endSize=10;;exitX=0.9675450972568842;exitY=0.21089285827000098;entryX=0;entryY=0.5;rounded=0;entryDx=0;entryDy=0;" parent="1" source="D8zbSiBJ9EzXnrRQjWzC-5837" target="D8zbSiBJ9EzXnrRQjWzC-5875" edge="1">
          <mxGeometry relative="1" as="geometry">
            <Array as="points">
              <mxPoint x="1670" y="8490" />
              <mxPoint x="1670" y="8141" />
            </Array>
          </mxGeometry>
        </mxCell>
        <mxCell id="D8zbSiBJ9EzXnrRQjWzC-6091" value="includes" style="curved=0;startArrow=ERmandOne;startSize=10;;endArrow=ERmany;endSize=10;;exitX=-0.024;exitY=0.069;entryX=1.013;entryY=0.124;rounded=0;exitDx=0;exitDy=0;exitPerimeter=0;entryDx=0;entryDy=0;entryPerimeter=0;" parent="1" source="D8zbSiBJ9EzXnrRQjWzC-5939" target="D8zbSiBJ9EzXnrRQjWzC-5920" edge="1">
          <mxGeometry relative="1" as="geometry">
            <Array as="points" />
          </mxGeometry>
        </mxCell>
        <mxCell id="D8zbSiBJ9EzXnrRQjWzC-6092" value="contains" style="curved=0;startArrow=ERmandOne;startSize=10;;endArrow=ERmany;endSize=10;;exitX=0.49947204011859314;exitY=0.997436034373748;entryX=0.922;entryY=0.01;rounded=0;entryDx=0;entryDy=0;entryPerimeter=0;" parent="1" source="D8zbSiBJ9EzXnrRQjWzC-6007" target="D8zbSiBJ9EzXnrRQjWzC-6026" edge="1">
          <mxGeometry relative="1" as="geometry">
            <Array as="points" />
          </mxGeometry>
        </mxCell>
        <mxCell id="D8zbSiBJ9EzXnrRQjWzC-6093" value="is recorded in" style="curved=0;startArrow=ERmandOne;startSize=10;;endArrow=ERmany;endSize=10;;exitX=0.48731127652254974;exitY=0.9948719709347456;entryX=0.9953368769751655;entryY=0.05697068084875868;rounded=0;" parent="1" source="D8zbSiBJ9EzXnrRQjWzC-6026" target="D8zbSiBJ9EzXnrRQjWzC-5952" edge="1">
          <mxGeometry relative="1" as="geometry">
            <Array as="points">
              <mxPoint x="3204" y="8980" />
            </Array>
          </mxGeometry>
        </mxCell>
        <mxCell id="D8zbSiBJ9EzXnrRQjWzC-6094" value="is applied to" style="curved=0;startArrow=ERmandOne;startSize=10;;endArrow=ERmany;endSize=10;;exitX=0.906;exitY=-0.011;entryX=1.003;entryY=-0.062;rounded=0;entryDx=0;entryDy=0;entryPerimeter=0;exitDx=0;exitDy=0;exitPerimeter=0;" parent="1" source="D8zbSiBJ9EzXnrRQjWzC-5799" target="D8zbSiBJ9EzXnrRQjWzC-5755" edge="1">
          <mxGeometry relative="1" as="geometry">
            <Array as="points">
              <mxPoint x="2670" y="7574" />
            </Array>
          </mxGeometry>
        </mxCell>
        <mxCell id="D8zbSiBJ9EzXnrRQjWzC-6095" value="is used in" style="curved=0;startArrow=ERmandOne;startSize=10;;endArrow=ERmany;endSize=10;;exitX=0.719;exitY=0.973;entryX=0.12972857507109048;entryY=9.781275040064102e-8;rounded=0;exitDx=0;exitDy=0;exitPerimeter=0;" parent="1" source="D8zbSiBJ9EzXnrRQjWzC-5815" target="D8zbSiBJ9EzXnrRQjWzC-5818" edge="1">
          <mxGeometry relative="1" as="geometry">
            <Array as="points" />
          </mxGeometry>
        </mxCell>
        <mxCell id="D8zbSiBJ9EzXnrRQjWzC-6096" value="is sent to" style="curved=0;startArrow=ERmandOne;startSize=10;;endArrow=ERmany;endSize=10;;exitX=0.9420539008246528;exitY=0.7134199142594935;entryX=0.8;entryY=0.004;rounded=0;entryDx=0;entryDy=0;entryPerimeter=0;" parent="1" source="D8zbSiBJ9EzXnrRQjWzC-5780" target="D8zbSiBJ9EzXnrRQjWzC-5856" edge="1">
          <mxGeometry relative="1" as="geometry">
            <Array as="points">
              <mxPoint x="2030" y="7850" />
            </Array>
          </mxGeometry>
        </mxCell>
        <mxCell id="D8zbSiBJ9EzXnrRQjWzC-6097" value="is a" style="curved=0;startArrow=ERmandOne;startSize=10;;endArrow=ERmany;endSize=10;;exitX=-0.0038043975830078123;exitY=0.5448635123044897;entryX=0.3258209853378871;entryY=0.004444630940755209;rounded=0;" parent="1" source="D8zbSiBJ9EzXnrRQjWzC-5856" target="D8zbSiBJ9EzXnrRQjWzC-5942" edge="1">
          <mxGeometry relative="1" as="geometry">
            <Array as="points">
              <mxPoint x="1060" y="8082" />
            </Array>
          </mxGeometry>
        </mxCell>
        <mxCell id="D8zbSiBJ9EzXnrRQjWzC-6099" value="is a" style="curved=0;startArrow=ERmandOne;startSize=10;;endArrow=ERmany;endSize=10;;exitX=0.995271110534668;exitY=0.5357421126852774;entryX=0.5042676993295656;entryY=0.004444630940755209;rounded=0;" parent="1" source="D8zbSiBJ9EzXnrRQjWzC-5856" target="D8zbSiBJ9EzXnrRQjWzC-5997" edge="1">
          <mxGeometry relative="1" as="geometry">
            <Array as="points">
              <mxPoint x="3180" y="8081" />
            </Array>
          </mxGeometry>
        </mxCell>
        <mxCell id="D8zbSiBJ9EzXnrRQjWzC-6100" value="is a" style="curved=0;startArrow=ERmandOne;startSize=10;;endArrow=ERmany;endSize=10;;exitX=1;exitY=0.035;entryX=0.31733327242864634;entryY=0.004444630940755209;rounded=0;exitDx=0;exitDy=0;exitPerimeter=0;" parent="1" source="D8zbSiBJ9EzXnrRQjWzC-5872" target="D8zbSiBJ9EzXnrRQjWzC-6045" edge="1">
          <mxGeometry relative="1" as="geometry">
            <Array as="points">
              <mxPoint x="2370" y="8110" />
            </Array>
          </mxGeometry>
        </mxCell>
      </root>
    </mxGraphModel>
  </diagram>
</mxfile>
